<?xml version="1.0" encoding="UTF-8"?>
<svg width="1224px" height="1106px" viewBox="0 0 1224 1106" version="1.1" xmlns="http://www.w3.org/2000/svg" xmlns:xlink="http://www.w3.org/1999/xlink">
    <!-- Generator: Sketch 52.6 (67491) - http://www.bohemiancoding.com/sketch -->
    <title>Create</title>
    <desc>Created with Sketch.</desc>
    <g id="Page-1" stroke="none" stroke-width="1" fill="none" fill-rule="evenodd">
        <g id="Add-Group">
            <g id="unicycle-svgrepo-com" transform="translate(277.871251, 326.630975) rotate(-10.000000) translate(-277.871251, -326.630975) translate(107.871251, 70.630975)">
                <g id="Group" transform="translate(17.000000, 189.000000)" fill="#91928F">
                    <polygon id="Path" points="291.067 144.663 173.833 144.663 256.73 61.766 244.526 49.562 153 141.088 61.474 49.562 49.27 61.766 132.167 144.663 14.933 144.663 14.933 161.921 132.167 161.921 49.27 244.818 61.474 257.022 153 165.496 244.526 257.022 256.73 244.818 173.833 161.921 291.067 161.921"></polygon>
                    <path d="M153,305.742 C68.939,305.742 0.551,237.354 0.551,153.293 C0.551,69.232 68.939,0.843 153,0.843 C237.061,0.843 305.449,69.231 305.449,153.292 C305.449,237.353 237.061,305.742 153,305.742 Z M153,52.618 C97.488,52.618 52.326,97.78 52.326,153.292 C52.326,208.804 97.488,253.966 153,253.966 C208.512,253.966 253.674,208.804 253.674,153.292 C253.674,97.78 208.512,52.618 153,52.618 Z" id="Shape" fill-rule="nonzero"></path>
                </g>
                <path d="M170,503.371 C81.181,503.371 8.921,431.111 8.921,342.292 C8.921,253.473 81.181,181.213 170,181.213 C258.819,181.213 331.079,253.473 331.079,342.292 C331.079,431.111 258.819,503.371 170,503.371 Z M170,215.73 C100.214,215.73 43.438,272.506 43.438,342.292 C43.438,412.078 100.214,468.854 170,468.854 C239.786,468.854 296.562,412.078 296.562,342.292 C296.562,272.506 239.786,215.73 170,215.73 Z" id="Shape" fill="#47423F" fill-rule="nonzero"></path>
                <path d="M24.747,341.025 C25.419,262.159 89.872,197.709 168.739,197.039 C203.952,196.74 236.301,208.971 261.594,229.545 C268.213,234.928 277.815,234.48 283.847,228.446 C253.889,198.488 212.218,180.242 166.378,181.255 C80.597,183.149 10.854,252.892 8.962,338.674 C7.951,384.512 26.196,426.182 56.155,456.141 C62.189,450.107 62.637,440.507 57.254,433.888 C36.679,408.591 24.447,376.241 24.747,341.025 Z" id="Path" fill="#5B5751"></path>
                <rect id="Rectangle" fill="#6F7475" x="152.742" y="31.64" width="34.517" height="92.045"></rect>
                <path d="M152.742,53.171 L152.742,123.685 L170,123.685 L170,60.301 C164.392,57.576 158.634,55.198 152.742,53.171 Z" id="Path" fill="#91928F"></path>
                <path d="M161.371,56.432 C158.528,55.261 155.652,54.172 152.742,53.171 L152.742,123.685 L161.371,123.685 L161.371,56.432 Z" id="Path" fill="#7F8383"></path>
                <path d="M187.258,112.18 L152.741,112.18 C147.975,112.18 144.112,116.044 144.112,120.809 L144.112,169.708 L195.887,169.708 L195.887,120.809 C195.888,116.043 192.024,112.18 187.258,112.18 Z" id="Path" fill="#5D7A9A"></path>
                <path d="M152.742,112.18 C147.976,112.18 144.113,116.044 144.113,120.809 L144.113,169.708 L170,169.708 L170,112.18 L152.742,112.18 Z" id="Path" fill="#668BB7"></path>
                <rect id="Rectangle" fill="#A0B7CB" opacity="0.5" x="158.494" y="112.18" width="11.506" height="57.528"></rect>
                <path d="M170,155.326 C164.81,155.326 159.669,155.543 154.586,155.965 C148.651,156.456 144.112,161.474 144.112,167.428 L144.112,338.795 C144.112,352.832 155.027,364.787 169.055,365.287 C183.783,365.812 195.887,354.028 195.887,339.417 L195.887,167.427 C195.887,161.472 191.348,156.455 185.413,155.964 C180.331,155.543 175.19,155.326 170,155.326 Z" id="Path" fill="#5D7A9A"></path>
                <path d="M170,316.405 L170.091,316.405 C174.788,316.405 178.629,312.562 178.629,307.867 L178.629,181.213 C178.629,175.24 174.062,170.237 168.109,169.745 C165.873,169.561 163.626,169.422 161.37,169.317 C159.114,169.422 156.866,169.56 154.63,169.745 C148.678,170.236 144.112,175.24 144.112,181.213 L144.112,325.033 L144.248,325.033 C148.024,325.033 151.633,323.696 154.67,321.452 C158.963,318.282 164.264,316.405 170,316.405 Z" id="Path" fill="#668BB7"></path>
                <path d="M178.629,457.348 L161.371,457.348 L161.371,342.292 C161.371,337.526 165.235,333.663 170,333.663 C174.766,333.663 178.629,337.527 178.629,342.292 L178.629,457.348 Z" id="Path" fill="#91928F"></path>
                <path d="M227.528,8.629 L146.989,8.629 L105.768,8.629 L100.967,8.629 C94.612,8.629 89.461,13.78 89.461,20.135 C89.461,26.49 94.612,31.641 100.967,31.641 C136.843,31.641 171.931,42.73 200.966,63.804 C205.027,66.752 209.015,69.808 212.925,72.971 C228.034,85.193 250.54,74.643 250.54,55.209 L250.54,31.64 C250.539,18.931 240.237,8.629 227.528,8.629 Z" id="Path" fill="#8D663D"></path>
                <path d="M227.528,8.629 L146.989,8.629 L105.768,8.629 L100.967,8.629 C100.674,8.629 100.383,8.641 100.095,8.661 C93.768,9.135 94.313,18.696 100.658,18.696 L100.966,18.696 C140.144,18.696 177.353,30.671 208.568,53.328 C210.463,54.703 212.353,56.109 214.229,57.539 C218.521,60.81 224.281,61.407 229.173,59.129 C234.31,56.736 237.595,51.582 237.595,45.916 L237.595,18.893 C237.595,13.343 233.186,8.655 227.636,8.629 C227.601,8.629 227.564,8.629 227.528,8.629 Z" id="Path" fill="#A57D48"></path>
                <path d="M298.74,231.826 C274.224,203.292 240.988,183.695 204.517,176.116 L204.517,167.429 C204.517,167.228 204.494,167.031 204.488,166.831 C204.501,166.641 204.517,166.451 204.517,166.258 L204.517,120.81 C204.517,114.438 201.038,108.876 195.888,105.886 L195.888,70.78 C195.891,70.782 195.895,70.785 195.898,70.787 C199.82,73.635 203.724,76.625 207.498,79.679 C213.336,84.401 220.375,86.83 227.498,86.83 C232.142,86.83 236.822,85.798 241.225,83.696 C252.292,78.413 259.168,67.497 259.168,55.207 L259.168,31.64 C259.168,14.194 244.974,0 227.528,0 L100.966,0 C89.864,0 80.831,9.033 80.831,20.135 C80.831,31.237 89.864,40.27 100.966,40.27 C128.586,40.27 155.07,47.016 178.629,59.888 L178.629,103.551 L161.371,103.551 L161.371,63.856 C161.371,59.089 157.509,55.227 152.742,55.227 C147.975,55.227 144.113,59.089 144.113,63.856 L144.113,105.885 C138.963,108.874 135.484,114.437 135.484,120.809 L135.484,166.256 C135.484,166.449 135.5,166.639 135.513,166.829 C135.507,167.029 135.484,167.226 135.484,167.427 L135.484,176.114 C99.016,183.693 65.782,203.288 41.263,231.821 C14.843,262.571 0.293,301.803 0.293,342.292 C0.292,435.87 76.423,512 170,512 C263.577,512 339.708,435.87 339.708,342.292 C339.708,301.805 325.158,262.574 298.74,231.826 Z M98.09,20.135 C98.09,18.548 99.38,17.259 100.966,17.259 L227.528,17.259 C235.459,17.259 241.91,23.71 241.91,31.641 L241.91,55.207 C241.91,60.867 238.875,65.693 233.79,68.121 C228.615,70.59 222.844,69.896 218.351,66.262 C214.344,63.021 210.198,59.843 206.033,56.82 C175.559,34.703 139.228,23.012 100.966,23.012 C99.38,23.011 98.09,21.721 98.09,20.135 Z M234.696,289.801 C244.494,302.028 250.808,317.158 252.779,333.663 L204.516,333.663 L204.516,319.98 L234.696,289.801 Z M152.742,120.809 L187.259,120.809 L187.259,147.514 C186.883,147.461 186.51,147.396 186.127,147.364 C175.408,146.478 164.597,146.478 153.873,147.364 C153.491,147.396 153.118,147.461 152.743,147.514 L152.743,120.809 L152.742,120.809 Z M170,333.663 C165.234,333.663 161.371,337.527 161.371,342.292 L161.371,354.243 C156.233,351.118 152.742,345.312 152.742,338.796 L152.742,254.095 C152.742,254.094 152.742,254.093 152.742,254.092 L152.742,218.4 C152.742,218.38 152.742,218.361 152.742,218.34 L152.742,167.428 C152.742,165.94 153.866,164.683 155.297,164.564 C160.185,164.159 165.132,163.955 170,163.955 C174.868,163.955 179.815,164.16 184.701,164.564 C186.135,164.684 187.259,165.94 187.259,167.428 L187.259,339.416 C187.259,344.141 185.386,348.553 181.984,351.836 C180.96,352.824 179.828,353.652 178.63,354.349 L178.63,342.292 C178.629,337.527 174.766,333.663 170,333.663 Z M135.483,295.571 L117.496,277.584 C122.94,273.137 128.974,269.357 135.483,266.38 L135.483,295.571 Z M105.312,289.809 L135.483,319.98 L135.483,333.662 L87.056,333.662 C88.775,317.385 95.28,302.19 105.312,289.809 Z M137.658,350.921 C138.654,353.623 139.972,356.173 141.561,358.526 L105.264,394.822 C95.305,382.572 88.737,367.458 87.03,350.92 L137.658,350.92 L137.658,350.921 Z M154.413,370.084 C156.609,371.237 158.942,372.147 161.37,372.797 L161.37,425.263 C144.832,423.556 129.718,416.988 117.468,407.029 L154.413,370.084 Z M178.629,372.848 C181.075,372.222 183.437,371.329 185.683,370.181 L222.686,407.184 C210.054,417.246 194.681,423.574 178.629,425.252 L178.629,372.848 Z M235.01,395.098 L198.627,358.715 C200.275,356.286 201.591,353.67 202.558,350.921 L253.168,350.921 C251.845,367.081 245.563,382.36 235.01,395.098 Z M170,494.742 C85.939,494.742 17.551,426.354 17.551,342.293 C17.551,270.553 66.565,209.637 135.484,193.775 L135.484,211.576 C76.743,227.099 34.81,280.972 34.81,342.292 C34.81,416.837 95.456,477.483 170.001,477.483 C244.546,477.483 305.192,416.837 305.192,342.292 C305.192,287.472 272.421,238.44 221.703,217.375 C217.299,215.547 212.251,217.633 210.423,222.035 C208.596,226.436 210.682,231.487 215.083,233.315 C259.338,251.694 287.934,294.471 287.934,342.292 C287.934,407.321 235.03,460.225 170.001,460.225 C104.972,460.225 52.068,407.321 52.068,342.292 C52.068,290.344 86.565,244.525 135.484,229.519 L135.484,247.738 C96.228,262.127 69.327,300.098 69.327,342.292 C69.327,394.897 109.884,438.201 161.372,442.592 C161.374,442.592 161.378,442.592 161.38,442.592 C162.755,442.709 164.138,442.799 165.528,442.86 C165.649,442.866 165.77,442.869 165.889,442.874 C167.254,442.929 168.623,442.965 170.001,442.965 C171.334,442.965 172.667,442.93 173.996,442.876 C174.181,442.869 174.366,442.863 174.551,442.854 C175.802,442.796 177.05,442.716 178.296,442.611 C178.408,442.602 178.52,442.599 178.631,442.589 L178.631,442.581 C202.765,440.488 225.773,429.704 242.793,412.261 C261.413,393.181 271.313,368.257 270.673,342.077 C269.788,305.916 251.617,273.841 222.066,256.275 C217.971,253.843 212.674,255.187 210.239,259.284 C207.804,263.381 209.152,268.675 213.248,271.111 C216.511,273.051 219.6,275.215 222.517,277.569 L204.518,295.571 L204.518,193.774 C273.436,209.637 322.451,270.553 322.451,342.292 C322.449,426.353 254.061,494.742 170,494.742 Z" id="Shape" fill="#000000" fill-rule="nonzero"></path>
            </g>
            <g id="bow-tie-svgrepo-com" transform="translate(606.000000, 142.000000)">
                <path d="M300.996,13.368 C266.133,28.094 245.508,99.579 233.637,166.604 L345.386,278.361 C412.413,266.491 483.902,245.865 498.628,211.001 C532.005,131.992 380.006,-20.007 300.996,13.368 Z" id="Path" fill="#8D472E"></path>
                <path d="M300.996,13.368 C266.133,28.094 245.508,99.579 233.637,166.604 L299.652,232.625 C366.678,220.755 438.164,200.129 452.891,165.266 C466.645,132.705 448.913,87.748 417.782,48.477 C378.514,17.346 333.557,-0.387 300.996,13.368 Z" id="Path" fill="#AB5034"></path>
                <path d="M166.602,233.639 C99.577,245.509 28.094,266.135 13.368,300.997 C-20.007,380.006 131.993,532.006 211.002,498.631 C245.865,483.904 266.49,412.42 278.361,345.394 L166.602,233.639 Z" id="Path" fill="#8D472E"></path>
                <path d="M183.633,318.508 C171.164,305.263 143.744,272.507 141.109,238.568 C82.421,250.948 26.232,270.538 13.367,300.996 C-8.114,351.848 47.195,432.93 110.41,475.37 C130.257,481.676 149.259,482.523 165.264,475.762 C180.788,469.205 193.488,451.392 203.851,427.733 C219.934,391.009 211.904,348.239 184.276,319.187 C184.052,318.953 183.837,318.727 183.633,318.508 Z" id="Path" fill="#AB5034"></path>
                <g id="Group" transform="translate(120.000000, 120.000000)" fill="#8D472E">
                    <path d="M8.94,178.622 C5.153,178.622 1.688,176.095 0.662,172.263 C-0.564,167.688 2.152,162.986 6.727,161.76 L57.431,148.174 C62.005,146.949 66.708,149.664 67.934,154.239 C69.16,158.814 66.444,163.516 61.869,164.742 L11.165,178.328 C10.422,178.526 9.675,178.622 8.94,178.622 Z" id="Path"></path>
                    <path d="M43.019,237.555 C40.825,237.555 38.629,236.718 36.955,235.043 C33.606,231.694 33.606,226.264 36.955,222.916 L79.807,180.064 C83.156,176.715 88.586,176.715 91.934,180.064 C95.283,183.413 95.283,188.843 91.934,192.191 L49.082,235.043 C47.409,236.718 45.213,237.555 43.019,237.555 Z" id="Path"></path>
                    <path d="M156.241,69.051 C155.506,69.051 154.759,68.956 154.016,68.757 C149.441,67.531 146.727,62.828 147.951,58.254 L161.758,6.728 C162.984,2.152 167.693,-0.557 172.261,0.663 C176.836,1.889 179.551,6.592 178.326,11.166 L164.519,62.692 C163.493,66.524 160.027,69.051 156.241,69.051 Z" id="Path"></path>
                    <path d="M186.127,94.447 C183.933,94.447 181.737,93.61 180.063,91.935 C176.714,88.586 176.714,83.156 180.063,79.808 L222.915,36.956 C226.264,33.607 231.694,33.607 235.042,36.956 C238.391,40.305 238.391,45.735 235.042,49.083 L192.19,91.935 C190.516,93.609 188.321,94.447 186.127,94.447 Z" id="Path"></path>
                </g>
                <path d="M345.336,280.881 C344.037,302.372 302.37,344.039 280.879,345.338 C237.899,347.936 164.062,274.099 166.66,231.119 C167.959,209.628 209.626,167.961 231.117,166.662 C274.098,164.065 347.934,237.901 345.336,280.881 Z" id="Path" fill="#AB5034"></path>
                <g id="Group" transform="translate(21.000000, 21.000000)" fill="#CE9276" opacity="0.3">
                    <path d="M210.117,145.661 C192.295,146.738 160.615,175.575 149.573,197.646 C165.233,239.865 223.568,292.228 259.879,290.033 C277.701,288.956 309.381,260.119 320.423,238.048 C304.763,195.83 246.429,143.467 210.117,145.661 Z" id="Path"></path>
                    <ellipse id="Oval" transform="translate(56.626126, 308.183356) rotate(-135.000000) translate(-56.626126, -308.183356) " cx="56.6261263" cy="308.183356" rx="45.2735658" ry="33.9556744"></ellipse>
                    <ellipse id="Oval" transform="translate(319.605449, 56.626288) rotate(-135.000000) translate(-319.605449, -56.626288) " cx="319.605449" cy="56.6262883" rx="45.2735658" ry="33.9556744"></ellipse>
                </g>
                <path d="M448.023,63.977 C408.449,24.402 345.323,-14.661 297.659,5.467 C266.706,18.543 242.734,70.095 226.364,158.693 C209.419,162.217 190.877,179.632 185.255,185.253 C179.633,190.874 162.211,209.413 158.683,226.355 C70.08,242.726 18.544,266.705 5.469,297.658 C-14.664,345.321 24.404,408.447 63.978,448.021 C96.134,480.176 143.835,511.999 186.161,511.997 C195.925,511.996 205.406,510.302 214.339,506.529 C245.295,493.452 269.272,441.917 285.641,353.314 C302.584,349.787 321.124,332.364 326.745,326.743 C332.839,320.647 352.811,299.365 353.897,281.396 C354.654,268.873 350.065,255.031 342.745,241.631 L385.273,230.237 C389.848,229.012 392.562,224.308 391.337,219.734 C390.112,215.159 385.41,212.438 380.834,213.67 L333.207,226.431 C328.282,219.462 322.846,212.825 317.318,206.808 L355.045,169.081 C358.394,165.731 358.394,160.302 355.045,156.953 C351.695,153.605 346.266,153.605 342.917,156.953 L305.19,194.68 C299.172,189.153 292.536,183.718 285.567,178.793 L298.329,131.163 C299.555,126.588 296.84,121.885 292.265,120.66 C287.687,119.43 282.988,122.149 281.762,126.724 L270.366,169.257 C261.513,164.42 252.467,160.78 243.738,159.082 C258.577,80.364 279.99,31.551 304.336,21.266 C341.599,5.522 397.261,37.467 435.899,76.104 C474.535,114.74 506.475,170.403 490.735,207.663 C484.006,223.594 457.351,246.499 368.582,265.152 C363.947,266.126 360.979,270.672 361.952,275.308 C362.802,279.349 366.364,282.123 370.336,282.123 C370.92,282.123 371.514,282.062 372.108,281.938 C450.288,265.511 494.259,243.398 506.535,214.338 C526.664,166.676 487.595,103.552 448.023,63.977 Z M336.776,280.364 C336.319,287.943 327.206,302.027 314.617,314.617 C302.102,327.131 288.108,336.21 280.499,336.767 L278.162,336.821 C274.079,336.915 270.628,339.877 269.916,343.899 C255.038,427.913 232.93,480.058 207.665,490.731 C170.407,506.472 114.742,474.531 76.105,435.894 C37.469,397.259 5.529,341.595 21.268,304.335 C31.55,279.99 80.34,258.576 159.05,243.737 C160.825,252.983 164.708,262.136 169.208,270.377 L126.726,281.76 C122.151,282.985 119.437,287.689 120.661,292.263 C121.688,296.095 125.152,298.622 128.939,298.622 C129.674,298.622 130.421,298.527 131.164,298.327 L178.737,285.58 C180.807,288.508 182.808,291.161 184.603,293.431 C187.774,297.44 191.154,301.372 194.682,305.189 L156.955,342.916 C153.606,346.266 153.606,351.695 156.955,355.044 C158.629,356.718 160.824,357.555 163.019,357.555 C165.214,357.555 167.409,356.718 169.083,355.044 L206.828,317.299 C213.173,323.145 219.779,328.524 226.424,333.239 L213.671,380.834 C212.445,385.409 215.161,390.112 219.736,391.337 C220.479,391.537 221.226,391.632 221.961,391.632 C225.747,391.632 229.213,389.105 230.239,385.273 L241.621,342.796 C242.122,343.069 242.626,343.36 243.125,343.624 C247.313,345.835 252.501,344.233 254.714,340.046 C256.927,335.858 255.325,330.67 251.136,328.457 C212.954,308.291 175.659,261.497 175.175,233.902 C175.181,233.693 175.18,233.484 175.17,233.272 C175.171,232.719 175.188,232.172 175.22,231.635 C175.677,224.056 184.79,209.972 197.381,197.382 C209.97,184.793 224.056,175.681 231.634,175.223 C248.868,174.172 275.418,188.909 299.253,212.744 C323.091,236.579 337.818,263.122 336.776,280.364 Z" id="Shape" fill="#000000" fill-rule="nonzero"></path>
            </g>
            <g id="click-svgrepo-com" transform="translate(367.850520, 764.589091) rotate(20.000000) translate(-367.850520, -764.589091) translate(94.850520, 594.089091)" fill="#000000">
                <path d="M233.559859,283.038658 L43.0586568,239.117274 C25.0558976,234.963009 6.56107186,244.159298 1.7382901,259.645029 C-3.08713719,275.13076 7.59546993,291.048989 25.5955836,295.198701 L216.102077,339.120085 C219.028022,339.793872 221.961903,340.119384 224.853455,340.119384 C239.750375,340.119384 253.382736,331.565015 257.422444,318.592329 C262.24258,303.108875 251.559973,287.190645 233.559859,283.038658 Z" id="Path"></path>
                <path d="M520.111601,1.21504083 C502.031164,-2.95578903 483.47269,6.2799466 478.631234,21.8359529 L427.38828,186.494553 C422.544168,202.048273 433.26814,218.041027 451.337954,222.209571 C454.275228,222.886416 457.22047,223.213405 460.123219,223.213405 C475.077822,223.213405 488.762971,214.620215 492.818321,201.588659 L544.061275,36.9300581 C548.905387,21.3740518 538.181415,5.38587069 520.111601,1.21504083 Z" id="Path"></path>
                <path d="M335.776498,183.573315 L259.546445,69.9116297 C250.187702,55.9643304 229.480521,51.1825952 213.268087,59.2367661 C197.063622,67.2932238 191.511601,85.1258259 200.867687,99.0754121 L277.09774,212.737098 C283.374978,222.092468 294.75795,227.324706 306.470325,227.324706 C312.216269,227.324706 318.03925,226.062383 323.376098,223.409674 C339.580563,215.355504 345.135241,197.522901 335.776498,183.573315 Z" id="Path"></path>
            </g>
            <g id="User-Copy" transform="translate(683.000000, 564.000000)">
                <circle id="Oval" stroke="#979797" stroke-width="20" fill="#D8D8D8" fill-rule="nonzero" cx="265.5" cy="265.5" r="265.5"></circle>
                <g id="assistant-circus-svgrepo-com" transform="translate(42.000000, 10.000000)">
                    <path d="M56.823,266.089 C56.823,296.188 51.317,325.891 40.715,353.771 C32.681,374.9 48.389,397.514 70.993,397.514 L224,397.514 L288.713,328.285 L224,266.088 L56.823,266.088 L56.823,266.089 Z" id="Path" fill="#848075"></path>
                    <path d="M407.285,353.771 C396.683,325.89 391.177,296.188 391.177,266.089 L224.001,266.089 L224.001,397.515 L377.007,397.515 C399.61,397.516 415.319,374.9 407.285,353.771 Z" id="Path" fill="#706B63"></path>
                    <path d="M305.701,420.022 C300.815,414.294 295.317,409.117 289.298,404.594 C288.479,403.979 287.665,403.359 286.834,402.763 C269.14,390.059 247.444,382.574 224,382.574 L180.858,447.287 L224,512 C246.39,512 268.081,509.016 288.713,503.455 C288.714,503.456 288.714,503.456 288.715,503.457 C292.343,502.479 295.938,501.422 299.498,500.286 C306.842,497.942 314.04,495.275 321.069,492.283 L321.069,490.43 L321.069,463.987 L321.069,461.729 C321.07,446.44 315.621,431.654 305.701,420.022 Z" id="Path" fill="#E1B872"></path>
                    <path d="M161.166,402.762 C160.533,403.217 159.911,403.686 159.287,404.154 C152.948,408.917 147.145,414.355 141.999,420.373 C141.94,420.443 141.88,420.512 141.82,420.582 C132.08,432.033 126.931,446.692 126.931,461.726 L126.931,463.955 L126.931,492.281 C133.96,495.273 141.158,497.94 148.502,500.284 C152.062,501.421 155.657,502.477 159.285,503.455 C159.286,503.454 159.286,503.454 159.287,503.453 C160.429,503.76 161.576,504.058 162.724,504.349 C182.325,509.332 202.85,511.998 224,511.998 L224,382.572 C200.555,382.573 178.86,390.057 161.166,402.762 Z" id="Path" fill="#F8E5B5"></path>
                    <polygon id="Path" fill="#BD7155" points="224 391.483 168.061 460.348 224 491.42 279.939 460.348"></polygon>
                    <path d="M251.6,446.213 C248.011,446.154 244.533,446.596 241.234,447.475 C235.58,448.981 229.789,449.733 224,449.733 L200.272,483.957 L224,512 C246.391,512 268.081,509.016 288.713,503.455 L288.713,501.215 L288.713,500.912 L288.713,485.037 L288.713,484.734 C288.713,464.307 272.023,446.55 251.6,446.213 Z" id="Path" fill="#8D472E"></path>
                    <path d="M206.765,447.475 C203.466,446.596 199.99,446.154 196.399,446.213 C185.064,446.4 174.881,451.952 168.06,460.347 C162.591,467.08 159.285,475.642 159.285,484.732 L159.285,485.035 L159.285,500.91 L159.285,501.213 L159.285,503.453 C179.918,509.014 201.609,511.998 223.998,511.998 L223.998,449.732 C218.21,449.734 212.42,448.981 206.765,447.475 Z" id="Path" fill="#AB5034"></path>
                    <path d="M391.176,215.397 C383.262,215.397 375.797,217.304 369.196,220.664 C351.758,154.7 296.882,95.526 230.987,91.584 C228.67,91.445 226.343,91.365 224,91.365 C222.995,91.365 221.993,91.381 220.992,91.406 C220.655,91.415 220.319,91.43 219.982,91.442 C219.323,91.465 218.665,91.489 218.008,91.524 C217.599,91.546 217.19,91.57 216.782,91.596 C216.201,91.632 215.62,91.671 215.04,91.716 C214.601,91.749 214.163,91.785 213.725,91.824 C213.18,91.873 212.636,91.925 212.092,91.981 C211.635,92.027 211.177,92.074 210.721,92.126 C210.211,92.184 209.703,92.25 209.195,92.315 C208.713,92.376 208.231,92.434 207.751,92.502 C207.347,92.558 206.944,92.624 206.541,92.684 C205.377,92.859 204.218,93.05 203.063,93.259 C202.793,93.308 202.522,93.353 202.252,93.404 C201.604,93.526 200.958,93.657 200.312,93.79 C200.026,93.848 199.74,93.905 199.456,93.966 C198.796,94.106 198.138,94.253 197.481,94.405 C197.229,94.463 196.975,94.521 196.723,94.582 C196.032,94.746 195.341,94.914 194.653,95.09 C194.473,95.135 194.294,95.184 194.114,95.23 C189.887,96.329 185.723,97.648 181.632,99.179 L181.631,99.179 C145.941,112.528 115.729,141.761 96.296,177.126 C96.29,177.128 96.283,177.13 96.277,177.132 C96.144,177.373 96.022,177.618 95.891,177.86 C95.132,179.257 94.383,180.66 93.657,182.074 C93.579,182.226 93.501,182.377 93.423,182.529 C92.604,184.136 91.807,185.754 91.033,187.383 C90.947,187.564 90.862,187.746 90.775,187.928 C90,189.572 89.245,191.224 88.515,192.887 C88.469,192.993 88.424,193.098 88.379,193.203 C87.627,194.927 86.897,196.66 86.196,198.403 C86.194,198.407 86.193,198.412 86.191,198.416 C85.514,200.102 84.865,201.797 84.237,203.499 C84.156,203.717 84.074,203.935 83.994,204.154 C83.401,205.776 82.832,207.406 82.284,209.042 C82.191,209.319 82.1,209.597 82.008,209.875 C81.47,211.507 80.951,213.145 80.458,214.788 C80.389,215.018 80.323,215.249 80.255,215.479 C79.747,217.197 79.257,218.92 78.801,220.647 C78.8,220.649 78.8,220.652 78.799,220.655 L181.427,404.137 C194.403,411.173 209.022,414.935 224,414.935 C245.928,414.935 267.092,406.881 283.448,392.277 C308.049,370.31 343.459,335.6 362.214,302.885 C370.299,308.907 380.321,312.472 391.176,312.472 C417.981,312.472 439.711,290.742 439.711,263.937 C439.71,237.129 417.981,215.397 391.176,215.397 Z" id="Path" fill="#ECCE93"></path>
                    <path d="M305.43,302.513 C305.43,284.27 289.128,270.332 271.111,273.201 C267.101,273.84 263.074,274.395 259.032,274.867 C257.477,275.048 255.896,275.141 254.333,275.141 C235.072,275.141 218.392,261.41 214.671,242.49 L207.353,205.283 C207.34,205.215 207.326,205.147 207.313,205.079 C205.545,196.191 194.709,192.548 187.884,198.511 C166.529,217.167 141.184,231.361 113.301,239.603 C106.616,241.579 99.297,239.421 94.986,233.943 C90.638,228.42 85.117,223.864 78.799,220.649 C78.798,220.652 78.797,220.657 78.796,220.66 C71.254,216.823 62.583,214.882 53.404,215.515 C28.823,217.21 9.2,237.528 8.32,262.153 C7.333,289.769 29.427,312.468 56.823,312.468 C67.679,312.468 77.701,308.902 85.785,302.881 C104.54,335.596 139.95,370.306 164.551,392.273 C169.736,396.902 175.406,400.868 181.426,404.133 C203.15,403.994 224.09,395.966 240.304,381.488 C257.678,365.974 280.444,344.103 298.926,321.067 C303.148,315.806 305.43,309.257 305.43,302.513 Z" id="Path" fill="#F8E5B5"></path>
                    <circle id="Oval" fill="#E1B872" cx="391.171" cy="263.933" r="16.178"></circle>
                    <circle id="Oval" fill="#ECCE93" cx="56.819" cy="263.933" r="16.178"></circle>
                    <g id="Group" transform="translate(127.000000, 277.000000)" fill="#DFB296">
                        <path d="M19.344,16.592 L8.558,16.592 C4.09,16.592 0.469,12.97 0.469,8.503 C0.469,4.036 4.09,0.414 8.558,0.414 L19.344,0.414 C23.812,0.414 27.433,4.036 27.433,8.503 C27.433,12.971 23.812,16.592 19.344,16.592 Z" id="Path"></path>
                        <path d="M185.441,16.592 L174.655,16.592 C170.187,16.592 166.566,12.97 166.566,8.503 C166.566,4.036 170.187,0.414 174.655,0.414 L185.441,0.414 C189.909,0.414 193.53,4.036 193.53,8.503 C193.53,12.971 189.91,16.592 185.441,16.592 Z" id="Path"></path>
                    </g>
                    <rect id="Rectangle" fill="#848075" x="72.997" y="194.906" width="45.299" height="161.783"></rect>
                    <g id="Group" transform="translate(197.000000, 46.000000)" fill="#706B63">
                        <rect id="Rectangle" x="132.694" y="148.906" width="45.299" height="161.783"></rect>
                        <path d="M153.77,32.844 C131.81,18.088 105.435,7.112 76.293,1.219 C72.501,0.452 68.609,0.064 64.73,0.064 C50.366,0.064 37.132,5.225 27,13.642 L0.744,91.91 C17.861,109.027 29.495,130.85 34.166,154.601 L41.484,191.808 C43.113,200.089 50.837,205.744 59.22,204.765 C88.977,201.29 117.253,192.963 143.232,180.59 C148.751,177.962 155.303,180.924 156.961,186.809 L156.993,186.924 C161.204,181.859 166.43,177.675 172.354,174.661 C178.911,171.325 186.32,169.427 194.175,169.403 L194.175,169.22 L194.175,109.329 C194.176,78.722 179.173,49.914 153.77,32.844 Z" id="Path"></path>
                    </g>
                    <path d="M350.301,78.529 C331.537,66.003 309.577,56.227 285.44,50.008 C285.329,49.98 285.206,49.95 285.071,49.918 C274.014,47.345 264.19,57.512 266.97,68.52 L275.5,102.307 C284.575,138.252 307.718,169.039 339.724,187.748 C351.203,194.458 364.818,196.513 377.766,193.491 L377.967,193.445 C385.698,191.673 391.179,184.793 391.179,176.861 L391.179,155.328 C391.176,124.522 375.922,95.634 350.301,78.529 Z" id="Path" fill="#848075"></path>
                    <path d="M197.743,137.909 C205.898,146.064 212.792,155.297 218.298,165.289 C242.22,132.383 256.356,91.925 256.356,48.22 L256.356,46.306 C244.079,47.417 232.854,52.286 223.999,59.641 L197.743,137.909 Z" id="Path" fill="#5B5751"></path>
                    <path d="M118.301,238.05 L118.301,194.905 L73.002,194.905 L73.002,247.095 C88.68,245.832 103.847,242.742 118.301,238.05 Z" id="Path" fill="#706B63"></path>
                    <path d="M223.636,59.277 C217.944,146.452 145.439,215.397 56.824,215.397 L17.285,175.859 C8.861,167.435 8.861,153.777 17.285,145.353 L148.244,14.393 C156.668,5.969 170.326,5.969 178.75,14.393 L223.636,59.277 Z" id="Path" fill="#8D472E"></path>
                    <path d="M154.948,183.215 C182.935,143.915 178.161,90.068 144.045,55.952 L140.618,52.525 C132.194,44.101 118.537,44.1 110.112,52.525 L17.285,145.352 C8.86,153.777 8.861,167.434 17.285,175.858 L56.824,215.396 C93.253,215.396 126.955,203.737 154.417,183.956 C154.594,183.71 154.771,183.463 154.948,183.215 Z" id="Path" fill="#AB5034"></path>
                    <path d="M223.636,59.277 L191.644,27.285 L191.644,48.221 C191.644,73.339 184.732,96.871 172.72,117.026 L154.949,183.215 C154.782,183.449 154.615,183.683 154.447,183.916 C193.763,155.579 220.285,110.598 223.636,59.277 Z" id="Path" fill="#ADA999"></path>
                    <path d="M154.948,183.215 C169.068,163.387 174.838,139.857 172.719,117.026 C149.182,156.522 106.045,183.04 56.824,183.04 L24.468,183.04 C26.085,184.657 27.882,186.454 29.797,188.369 C30.955,189.527 32.153,190.725 33.368,191.94 C34.584,193.156 35.82,194.392 37.056,195.628 C38.292,196.864 39.527,198.099 40.744,199.316 C42.569,201.141 44.35,202.922 46.021,204.593 C47.692,206.264 49.257,207.829 50.647,209.219 C51.342,209.914 51.977,210.548 52.577,211.149 C52.977,211.549 53.352,211.924 53.704,212.276 C54.231,212.803 54.721,213.293 55.127,213.699 C55.667,214.239 56.092,214.664 56.381,214.953 C56.526,215.098 56.637,215.209 56.712,215.284 C56.786,215.358 56.825,215.397 56.825,215.397 C56.836,215.397 56.845,215.397 56.856,215.397 C58.121,215.397 59.381,215.38 60.64,215.351 C61.051,215.341 61.46,215.326 61.871,215.314 C62.736,215.288 63.6,215.258 64.461,215.219 C64.931,215.197 65.401,215.174 65.871,215.149 C66.685,215.106 67.497,215.056 68.309,215.001 C68.775,214.97 69.242,214.938 69.707,214.903 C70.586,214.836 71.462,214.76 72.337,214.679 C72.714,214.644 73.094,214.614 73.471,214.577 C74.691,214.456 75.906,214.324 77.119,214.177 C77.467,214.135 77.814,214.085 78.162,214.041 C79.041,213.929 79.919,213.813 80.795,213.687 C81.291,213.616 81.785,213.539 82.28,213.463 C83.007,213.352 83.734,213.238 84.458,213.117 C84.986,213.029 85.515,212.939 86.042,212.846 C86.737,212.723 87.43,212.595 88.123,212.464 C88.65,212.364 89.178,212.267 89.703,212.161 C90.447,212.012 91.189,211.855 91.93,211.696 C92.511,211.572 93.094,211.449 93.673,211.318 C94.659,211.097 95.641,210.867 96.621,210.629 C97.197,210.489 97.77,210.339 98.343,210.192 C98.932,210.042 99.52,209.891 100.106,209.735 C100.723,209.57 101.338,209.4 101.951,209.228 C102.485,209.078 103.018,208.927 103.551,208.772 C104.185,208.588 104.819,208.401 105.451,208.21 C105.944,208.06 106.434,207.906 106.924,207.752 C107.585,207.545 108.247,207.339 108.904,207.123 C109.229,207.016 109.55,206.904 109.875,206.796 C111.371,206.296 112.858,205.775 114.336,205.233 C114.624,205.127 114.914,205.025 115.202,204.918 C115.942,204.642 116.676,204.357 117.411,204.071 C117.762,203.935 118.112,203.799 118.462,203.66 C119.196,203.369 119.928,203.071 120.657,202.77 C120.981,202.636 121.304,202.5 121.628,202.364 C122.388,202.044 123.148,201.721 123.902,201.39 C124.104,201.302 124.303,201.21 124.505,201.12 C127.208,199.922 129.874,198.655 132.499,197.32 C132.59,197.274 132.681,197.229 132.772,197.183 C133.596,196.762 134.416,196.332 135.231,195.897 C135.413,195.8 135.596,195.703 135.777,195.606 C136.589,195.17 137.397,194.728 138.202,194.279 C138.335,194.205 138.467,194.129 138.6,194.055 C142.195,192.035 145.708,189.887 149.132,187.615 C149.167,187.592 149.201,187.57 149.236,187.547 C150.061,186.998 150.882,186.441 151.696,185.878 C151.79,185.813 151.884,185.749 151.978,185.684 C152.8,185.115 153.616,184.539 154.427,183.954 C154.594,183.71 154.771,183.463 154.948,183.215 Z" id="Path" fill="#C1BDAB"></path>
                    <path d="M224,310.735 C230.482,310.735 236.576,308.21 241.16,303.627 C244.319,300.468 244.319,295.346 241.159,292.187 C238.001,289.028 232.879,289.029 229.72,292.187 C228.193,293.715 226.161,294.557 224,294.557 C221.84,294.557 219.808,293.716 218.28,292.187 C215.121,289.029 209.999,289.028 206.841,292.187 C203.681,295.346 203.681,300.468 206.84,303.627 C211.424,308.21 217.519,310.735 224,310.735 Z" id="Path" fill="#000000"></path>
                    <path d="M130.38,246.272 C131.818,247.319 133.485,247.824 135.137,247.824 C137.634,247.824 140.098,246.671 141.681,244.498 C146.69,237.624 153.869,232.4 161.895,229.784 C166.142,228.4 168.464,223.835 167.081,219.586 C165.697,215.339 161.134,213.017 156.884,214.4 C145.645,218.062 135.603,225.366 128.605,234.969 C125.975,238.582 126.769,243.641 130.38,246.272 Z" id="Path" fill="#000000"></path>
                    <path d="M145.804,263.932 C145.804,268.399 149.425,272.021 153.893,272.021 C158.361,272.021 161.982,268.399 161.982,263.932 C161.982,259.471 165.61,255.843 170.071,255.843 C174.532,255.843 178.16,259.471 178.16,263.932 C178.16,268.399 181.781,272.021 186.249,272.021 C190.717,272.021 194.338,268.399 194.338,263.932 C194.338,250.55 183.451,239.664 170.07,239.664 C156.689,239.664 145.804,250.55 145.804,263.932 Z" id="Path" fill="#000000"></path>
                    <path d="M447.763,261.865 C447.266,247.954 441.611,234.723 431.84,224.614 C423.038,215.507 411.593,209.671 399.264,207.896 L399.264,155.327 C399.264,121.738 382.821,90.636 355.281,72.129 C332.183,56.609 304.386,45.252 274.896,39.289 C265.41,37.371 255.442,37.571 246.042,39.819 C241.698,40.858 239.017,45.223 240.056,49.568 C241.095,53.913 245.456,56.589 249.805,55.554 C256.928,53.851 264.498,53.693 271.689,55.147 C299.119,60.694 324.904,71.21 346.257,85.558 C369.318,101.054 383.085,127.136 383.085,155.328 L383.085,207.895 C379.932,208.349 376.825,209.075 373.776,210.063 C369.889,210.653 366.907,213.999 366.907,218.051 L366.907,356.69 C366.907,361.157 370.529,364.779 374.996,364.779 C379.463,364.779 383.085,361.157 383.085,356.69 L383.085,319.973 C385.752,320.355 388.451,320.559 391.174,320.559 C406.683,320.559 421.155,314.411 431.926,303.249 C442.694,292.088 448.318,277.392 447.763,261.865 Z M420.286,292.012 C412.592,299.986 402.254,304.378 391.177,304.378 C388.439,304.378 385.735,304.1 383.088,303.563 L383.088,255.843 L391.177,255.843 C395.638,255.843 399.266,259.471 399.266,263.932 C399.266,268.399 402.888,272.021 407.355,272.021 C411.822,272.021 415.444,268.399 415.444,263.932 C415.444,250.55 404.558,239.664 391.176,239.664 L383.087,239.664 L383.087,224.31 C386.659,223.581 390.324,223.329 394.037,223.585 C414.37,224.986 430.868,242.054 431.597,262.442 C431.992,273.542 427.975,284.043 420.286,292.012 Z" id="Shape" fill="#000000" fill-rule="nonzero"></path>
                    <path d="M128.471,171.836 C149.503,159.599 167.207,142.078 179.668,121.168 C181.955,117.331 180.698,112.365 176.859,110.078 C173.019,107.789 168.056,109.047 165.769,112.887 C142.954,151.17 101.209,174.952 56.823,174.952 C52.356,174.952 48.734,178.574 48.734,183.041 C48.734,187.508 52.356,191.13 56.823,191.13 C82.003,191.13 106.778,184.458 128.471,171.836 Z" id="Path" fill="#000000"></path>
                    <path d="M178.506,106.792 C179.513,107.206 180.554,107.401 181.579,107.401 C184.761,107.401 187.779,105.511 189.063,102.386 C194.523,89.109 197.927,75.115 199.182,60.794 C199.572,56.344 196.281,52.419 191.831,52.03 C187.373,51.638 183.456,54.93 183.067,59.381 C181.954,72.072 178.937,84.471 174.101,96.235 C172.401,100.367 174.374,105.093 178.506,106.792 Z" id="Path" fill="#000000"></path>
                    <path d="M408.388,331.438 C407.165,327.141 402.69,324.651 398.392,325.874 C394.095,327.098 391.605,331.573 392.828,335.87 C394.82,342.863 397.14,349.855 399.723,356.648 C402.58,364.162 401.594,372.277 397.018,378.914 C392.41,385.596 385.116,389.428 377.005,389.428 L298.581,389.428 C306.76,381.848 314.463,374.337 321.635,366.948 C321.92,371.158 325.415,374.486 329.696,374.486 C334.163,374.486 337.785,370.864 337.785,366.397 L337.787,231.327 C337.787,228.613 336.426,226.08 334.163,224.582 C331.899,223.083 329.036,222.821 326.538,223.881 C303.82,233.521 279.845,239.864 255.279,242.732 C251.123,243.216 247.23,240.37 246.419,236.249 L239.101,199.042 C234.531,175.81 223.809,154.464 207.992,136.971 C223.351,110.925 232.18,80.588 232.18,48.224 L232.18,16.164 C232.18,11.697 228.558,8.075 224.091,8.075 C219.624,8.075 216.002,11.697 216.002,16.164 L216.002,40.205 L184.47,8.674 C172.905,-2.891 154.088,-2.89 142.524,8.674 L11.565,139.633 C0.001,151.197 0.001,170.015 11.565,181.579 L37.344,207.358 L10.327,207.426 C5.86,207.441 2.25,211.075 2.265,215.542 C2.28,220.001 5.899,223.604 10.354,223.604 C10.363,223.604 10.372,223.604 10.381,223.604 L56.916,223.486 C59.597,223.486 62.261,223.416 64.913,223.296 L64.913,239.664 L56.824,239.664 C43.442,239.664 32.557,250.55 32.557,263.931 C32.557,268.398 36.179,272.02 40.646,272.02 C45.113,272.02 48.735,268.398 48.735,263.931 C48.735,259.47 52.363,255.842 56.824,255.842 L64.913,255.842 L64.913,303.567 C62.265,304.104 59.56,304.377 56.824,304.377 C45.746,304.377 35.408,299.985 27.714,292.01 C20.025,284.041 16.008,273.539 16.405,262.439 C16.69,254.467 19.343,246.806 24.077,240.283 C26.701,236.667 25.898,231.609 22.281,228.985 C18.664,226.359 13.606,227.165 10.983,230.781 C4.353,239.916 0.637,250.664 0.237,261.861 C-0.32,277.388 5.304,292.085 16.071,303.244 C23.512,310.957 32.723,316.272 42.819,318.824 C40.347,329.72 37.117,340.477 33.154,350.897 C28.448,363.272 30.134,377.179 37.663,388.097 C45.223,399.059 57.683,405.604 70.994,405.604 L145.015,405.604 C141.784,408.612 138.704,411.779 135.854,415.113 L135.659,415.342 C124.814,428.091 118.842,444.563 118.842,461.726 L118.842,492.281 C118.842,496.748 122.464,500.37 126.931,500.37 C131.398,500.37 135.02,496.748 135.02,492.281 L135.02,461.726 C135.02,448.4 139.623,435.65 147.965,425.842 L148.146,425.63 C151.969,421.158 156.228,416.992 160.804,413.243 L170.059,406.714 C172.492,408.332 174.999,409.846 177.571,411.241 C177.579,411.245 177.586,411.248 177.594,411.252 C182.308,413.807 187.23,415.953 192.287,417.692 L166.459,449.488 C165.11,446.898 162.407,445.127 159.286,445.127 C154.819,445.127 151.197,448.749 151.197,453.216 L151.197,484.731 L151.197,503.451 L151.197,503.907 C151.197,508.374 154.819,511.996 159.286,511.996 C163.753,511.996 167.375,508.374 167.375,503.907 L167.375,503.451 L167.375,484.731 C167.375,477.525 170.009,470.777 174.317,465.471 C174.325,465.462 174.333,465.455 174.34,465.446 L174.411,465.359 C179.808,458.774 187.793,454.443 196.532,454.299 C199.308,454.257 202.044,454.587 204.684,455.29 C217.296,458.648 230.702,458.649 243.317,455.29 C245.955,454.588 248.699,454.256 251.467,454.3 C260.213,454.445 268.203,458.78 273.6,465.372 L273.66,465.446 C273.667,465.454 273.674,465.46 273.679,465.468 C277.988,470.773 280.624,477.524 280.624,484.732 L280.624,503.452 L280.624,503.908 C280.624,508.375 284.246,511.997 288.713,511.997 C293.18,511.997 296.802,508.375 296.802,503.908 L296.802,503.452 L296.802,484.732 L296.802,453.22 C296.802,448.753 293.18,445.131 288.713,445.131 C285.592,445.131 282.888,446.902 281.54,449.492 L255.719,417.705 C263.231,415.12 270.412,411.617 277.106,407.257 L289.299,414.975 C292.957,418.125 296.403,421.588 299.546,425.273 C308.209,435.431 312.98,448.378 312.98,461.729 L312.98,490.43 C312.98,494.897 316.602,498.519 321.069,498.519 C325.536,498.519 329.158,494.897 329.158,490.43 L329.158,461.729 C329.158,444.534 323.013,427.859 311.855,414.774 C309.11,411.557 306.163,408.491 303.068,405.606 L377.006,405.606 C390.316,405.606 402.777,399.061 410.337,388.099 C417.866,377.181 419.552,363.274 414.846,350.899 C412.425,344.534 410.253,337.987 408.388,331.438 Z M23.005,151.072 L153.965,20.113 C159.222,14.856 167.775,14.856 173.032,20.113 L215.361,62.442 C208.237,142.464 141.617,205.629 60.134,207.267 L23.005,170.14 C17.748,164.883 17.748,156.329 23.005,151.072 Z M50.981,378.913 C46.405,372.277 45.419,364.162 48.276,356.647 C52.736,344.919 56.334,332.791 59.021,320.512 C61,320.436 62.965,320.249 64.913,319.971 L64.913,331.803 C64.913,336.27 68.535,339.892 73.002,339.892 C77.469,339.892 81.091,336.27 81.091,331.803 L81.091,221.811 C129.348,215.123 171.382,188.72 198.778,151.016 C211.1,165.706 219.502,183.217 223.229,202.161 L230.547,239.368 C232.783,250.734 242.858,258.845 254.18,258.937 C253.841,260.549 253.66,262.22 253.66,263.932 C253.66,268.399 257.281,272.021 261.749,272.021 C266.217,272.021 269.838,268.399 269.838,263.932 C269.838,259.471 273.466,255.843 277.927,255.843 C282.388,255.843 286.016,259.471 286.016,263.932 C286.016,268.399 289.637,272.021 294.105,272.021 C298.573,272.021 302.194,268.399 302.194,263.932 C302.194,259.09 300.763,254.579 298.31,250.788 C306.181,248.624 313.956,246.114 321.61,243.255 L321.608,343.385 C321.494,343.497 321.377,343.604 321.268,343.724 C308.847,357.425 294.31,371.729 278.06,386.238 C263.18,399.524 243.982,406.841 224,406.841 C210.519,406.841 197.131,403.446 185.284,397.021 C185.279,397.019 185.274,397.017 185.269,397.013 C179.752,394.021 174.595,390.396 169.937,386.238 C153.494,371.556 138.876,357.136 126.388,343.324 L126.388,230.74 C126.388,226.273 122.766,222.651 118.299,222.651 C113.832,222.651 110.21,226.273 110.21,230.74 L110.21,366.395 C110.21,370.862 113.832,374.484 118.299,374.484 C122.582,374.484 126.078,371.153 126.36,366.943 C133.529,374.329 141.231,381.838 149.418,389.427 L70.992,389.427 C62.884,389.426 55.59,385.594 50.981,378.913 Z M251.469,438.13 C247.3,438.084 243.151,438.594 239.153,439.658 C229.255,442.294 218.742,442.293 208.849,439.658 C204.85,438.592 200.705,438.083 196.531,438.129 L209.679,421.944 C214.414,422.65 219.204,423.018 224.003,423.018 C228.828,423.018 233.611,422.645 238.325,421.947 L251.469,438.13 Z" id="Shape" fill="#000000" fill-rule="nonzero"></path>
                </g>
            </g>
        </g>
    </g>
</svg>