<?xml version="1.0" encoding="UTF-8"?>
<svg width="1224px" height="1106px" viewBox="0 0 1224 1106" version="1.1" xmlns="http://www.w3.org/2000/svg" xmlns:xlink="http://www.w3.org/1999/xlink">
    <!-- Generator: Sketch 52.6 (67491) - http://www.bohemiancoding.com/sketch -->
    <title>Untitled 2</title>
    <desc>Created with Sketch.</desc>
    <g id="Page-1" stroke="none" stroke-width="1" fill="none" fill-rule="evenodd">
        <g id="balloon-modelling-svgrepo-com" transform="translate(537.263248, 458.466997) rotate(-7.000000) translate(-537.263248, -458.466997) translate(45.263248, 56.966997)">
            <g id="Group" transform="translate(16.000000, 15.000000)" fill="#796093">
                <path d="M123.621008,288.155546 C160.236575,276.070351 186.565121,242.69749 186.565121,203.391383 L186.565121,191.596534 C186.565121,142.098139 144.838708,101.973783 93.3632581,101.973783 C41.8878085,101.973783 0.163316532,142.098139 0.163316532,191.594649 L0.163316532,203.389498 C0.163316532,252.708783 41.5919173,292.708705 92.8099032,292.997166 L123.621008,288.155546 Z" id="Path"></path>
                <path d="M925.053659,247.623951 L876.944452,200.416276 C857.688472,181.521139 832.224542,172.4563 806.99502,173.167083 C807.581038,168.979685 807.907671,164.714988 807.907671,160.371105 L807.907671,93.6103 C807.907671,42.107761 765.358911,0.35444878 712.870899,0.35444878 C660.384808,0.35444878 617.834127,42.1058756 617.834127,93.6103 L617.834127,160.371105 C617.834127,187.388398 629.55449,211.709617 648.2648,228.740127 L535.130635,339.754239 C521.590734,353.040412 513.061768,369.369566 509.507232,386.498115 L331.544089,386.498115 C310.970048,386.498115 291.960004,393.053532 276.542923,404.133827 C275.288268,402.746198 273.997107,401.377422 272.640619,400.048239 L224.531411,352.840563 C200.043538,328.813461 165.524187,320.649827 134.209683,328.327037 L105.377591,340.683724 C99.9843024,344.145256 94.8657702,348.193137 90.1295907,352.840563 C53.0163891,389.260176 53.0144677,448.306063 90.1295907,484.725676 L138.238798,531.933351 C160.572815,553.848844 191.251345,562.557349 220.237147,558.098459 C216.936232,560.5796 213.750599,563.277559 210.728282,566.239468 L162.620996,613.441488 C125.505873,649.8611 125.507794,708.906988 162.620996,745.3266 C199.734198,781.746212 259.909615,781.746212 297.024738,745.3266 L345.133946,698.118924 C381.190393,662.736263 382.20872,606.00372 348.206218,569.404998 L500.255831,569.404998 C466.253329,606.00372 467.271655,662.736263 503.328103,698.118924 L551.43731,745.3266 C588.552433,781.746212 648.725929,781.744327 685.841052,745.3266 C722.956175,708.908873 722.956175,649.8611 685.841052,613.441488 L637.731845,566.233812 C623.173617,551.948395 605.062774,543.29268 586.191069,540.213878 C597.481044,528.305907 605.57578,513.449224 609.128395,496.940961 C630.632379,495.262985 651.661784,486.375371 668.110641,470.234754 L775.613268,364.746649 L790.65376,379.505293 C827.768883,415.924905 887.942379,415.92302 925.057502,379.505293 C962.170704,343.091337 962.168782,284.043563 925.053659,247.623951 Z" id="Shape" fill-rule="nonzero"></path>
            </g>
            <g id="Group" transform="translate(36.000000, 15.000000)" fill="#FEFBE1" opacity="0.2">
                <path d="M710.219722,49.1918635 C710.219722,32.0701042 695.994363,18.140665 678.508865,18.140665 C661.023368,18.140665 646.798008,32.0719876 646.798008,49.1918635 L646.798008,53.7759975 C646.798008,70.8977568 661.023368,84.827196 678.508865,84.827196 C695.994363,84.827196 710.219722,70.8958734 710.219722,53.7759975 L710.219722,49.1918635 Z" id="Path"></path>
                <path d="M290.865905,467.299161 C273.717,467.299161 259.766685,453.637161 259.766685,436.846876 C259.766685,420.056591 273.718923,406.394591 290.865905,406.394591 L415.264709,406.394591 C432.413614,406.394591 446.363929,420.056591 446.363929,436.846876 C446.363929,453.637161 432.411691,467.299161 415.264709,467.299161 L290.865905,467.299161 Z" id="Path"></path>
                <path d="M551.744297,423.909975 C539.511565,435.888238 519.608372,435.890122 507.373717,423.909975 C495.139062,411.929829 495.140985,392.440667 507.373717,380.462404 L596.114877,293.567263 C608.347609,281.589 628.250802,281.587117 640.485457,293.567263 C652.720112,305.547409 652.718189,325.036571 640.485457,337.014834 L551.744297,423.909975 Z" id="Path"></path>
                <path d="M272.878404,616.873012 C285.243849,604.764797 285.243849,585.066581 272.878404,572.958365 C260.512958,560.850149 240.396269,560.850149 228.030824,572.958365 L224.720678,576.199653 C212.355232,588.307868 212.355232,608.006084 224.720678,620.1143 C237.086123,632.222516 257.202812,632.222516 269.568257,620.1143 L272.878404,616.873012 Z" id="Path"></path>
                <path d="M530.771702,588.475489 C518.406256,576.367273 498.289567,576.367273 485.924122,588.475489 C473.558677,600.583705 473.558677,620.281921 485.924122,632.390136 L489.234268,635.631424 C501.599714,647.73964 521.716403,647.73964 534.081848,635.631424 C546.447293,623.523208 546.447293,603.824993 534.081848,591.716777 L530.771702,588.475489 Z" id="Path"></path>
                <path d="M770.24089,223.040531 C757.875444,210.932315 737.758755,210.932315 725.39331,223.040531 C713.027865,235.148747 713.027865,254.846963 725.39331,266.955179 L728.703456,270.196467 C741.068902,282.304682 761.185591,282.304682 773.551036,270.196467 C785.916482,258.088251 785.916482,238.390035 773.551036,226.281819 L770.24089,223.040531 Z" id="Path"></path>
                <path d="M117.145727,375.305725 C104.780281,363.197509 84.6635924,363.197509 72.2981471,375.305725 C59.9327017,387.41394 59.9327017,407.112156 72.2981471,419.220372 L75.6082935,422.46166 C87.9737389,434.569876 108.090428,434.569876 120.455873,422.46166 C132.821319,410.353444 132.821319,390.655228 120.455873,378.547012 L117.145727,375.305725 Z" id="Path"></path>
                <path d="M125.000833,184.015124 L125.000833,176.159568 C125.000833,143.194861 97.1521345,116.473541 62.8004695,116.473541 C28.4488045,116.473541 0.600105845,143.194861 0.600105845,176.159568 L0.600105845,184.015124 C0.600105845,216.979831 28.4488045,243.701151 62.8004695,243.701151 C97.1521345,243.701151 125.000833,216.976065 125.000833,184.015124 Z" id="Path"></path>
                <path d="M71.1498859,485.404042 C34.4209165,449.439119 32.4859906,390.8737 68.3378963,354.068792 C72.9040135,349.381072 77.8413441,345.271548 83.0633357,341.732687 C95.1498902,333.538124 111.666001,334.830119 122.086904,344.983392 C122.142682,345.03801 122.200384,345.092628 122.256162,345.149129 L169.200232,391.116655 C205.929201,427.081578 207.864127,485.646998 172.012221,522.451906 C161.718262,533.021404 149.520151,540.658489 136.479598,545.42531 C129.928547,541.575692 123.741016,536.901156 118.093956,531.369685 L71.1498859,485.404042 Z" id="Path"></path>
                <path d="M598.19021,95.1970571 C598.19021,44.3346402 639.114083,1.58580149 691.041645,0.384208437 C697.654244,0.231655087 704.112973,0.745816377 710.362052,1.85700744 C724.825911,4.43158065 735.571866,16.7808685 735.60841,31.1755012 C735.60841,31.2527196 735.60841,31.3318213 735.60841,31.4109231 L735.60841,96.4174839 C735.60841,147.279901 694.684537,190.028739 642.756975,191.230333 C627.844968,191.57499 613.706161,188.531457 601.042591,182.873799 C599.188447,175.615273 598.192133,168.025273 598.192133,160.205501 L598.192133,95.1989404 L598.19021,95.1989404 L598.19021,95.1970571 Z" id="Path"></path>
                <path d="M453.65933,386.091811 L313.284886,386.091811 C262.344021,386.091811 219.52946,425.390308 218.327344,475.258303 C217.981135,489.5776 221.031624,503.154849 226.697918,515.317682 C233.966392,517.097471 241.569535,518.056109 249.40156,518.056109 L436.000728,518.056109 C436.179603,518.056109 436.356554,518.056109 436.535429,518.054226 C459.521809,517.92804 473.887575,494.073216 464.072539,473.721469 C450.82426,446.254333 447.360243,415.359454 453.65933,386.091811 Z" id="Path"></path>
                <path d="M648.513668,266.077526 C648.513668,248.315419 651.898827,231.05994 658.369096,215.023005 C660.715626,209.203377 653.36637,204.355571 648.82141,208.755134 L648.682926,208.888854 C648.627148,208.943471 648.57137,208.998089 648.515592,209.052707 L516.605967,338.220194 C480.265522,373.804675 478.353677,431.748581 513.828599,468.161747 C524.012925,478.61636 536.080246,486.172459 548.980392,490.890313 C555.464125,487.084012 561.584337,482.454677 567.171772,476.983474 L640.395058,405.2834 C663.993075,382.176275 670.715307,347.5994 658.421027,317.218682 C651.916137,301.157263 648.513668,283.875417 648.513668,266.077526 Z" id="Path"></path>
                <path d="M190.659444,565.639571 C227.813482,529.258422 288.050069,529.260305 325.202183,565.639571 C335.151856,575.382268 342.410713,586.754084 347.030685,598.869834 C343.099285,605.284608 338.325442,611.343424 332.676459,616.873012 L284.516809,664.030831 C247.362772,700.41198 187.126185,700.410097 149.97407,664.030831 C140.024397,654.288134 132.76554,642.916318 128.145568,630.800568 C132.076968,624.385794 136.850811,618.326978 142.499794,612.79739 L190.659444,565.639571 Z" id="Path"></path>
                <path d="M484.775861,698.573806 C448.046891,662.608883 446.111965,604.043464 481.963871,567.238556 C486.529988,562.550836 491.467319,558.441313 496.689311,554.902452 C508.775865,546.707888 525.291976,547.999883 535.712879,558.153156 C535.768657,558.207774 535.826359,558.262392 535.882137,558.318893 L582.826207,604.286419 C619.555176,640.251342 621.490102,698.816762 585.638196,735.62167 C575.344237,746.191169 563.146126,753.828253 550.105573,758.595074 C543.554522,754.745457 537.36699,750.070921 531.719931,744.539449 L484.775861,698.573806 Z" id="Path"></path>
                <path d="M724.243125,333.140732 C687.514156,297.175809 685.57923,238.61039 721.431136,201.805481 C725.997253,197.117762 730.934584,193.008238 736.156575,189.469377 C748.24313,181.274814 764.759241,182.566809 775.180144,192.720082 C775.235922,192.7747 775.293623,192.829318 775.349402,192.885819 L822.293471,238.853345 C859.022441,274.818268 860.957367,333.383687 825.105461,370.188596 C814.811502,380.758094 802.613391,388.395179 789.572837,393.162 C783.021786,389.312382 776.834255,384.637846 771.187195,379.106375 L724.243125,333.140732 Z" id="Path"></path>
                <path d="M83.5345652,168.925526 C83.5345652,152.470481 69.5823267,139.083454 52.435345,139.083454 C35.2883633,139.083454 21.3361249,152.470481 21.3361249,168.925526 L21.3361249,173.330739 C21.3361249,189.785784 35.2883633,203.172811 52.435345,203.172811 C69.5823267,203.172811 83.5345652,189.785784 83.5345652,173.330739 L83.5345652,168.925526 Z" id="Path"></path>
            </g>
            <path d="M951.655899,251.805604 L903.53229,204.58451 C886.125919,187.503897 863.263361,176.669392 839.028589,173.672694 L839.028589,108.529875 C839.028589,48.6845542 789.415531,0 728.430772,0 C667.446013,0 617.829112,48.6864401 617.829112,108.529875 L617.829112,175.309657 C617.829112,200.08852 626.585149,224.131882 642.250306,243.288872 L539.658997,343.960194 C527.46858,355.922469 518.42234,370.366591 513.089153,386.253427 L347.006968,386.253427 C328.34946,386.253427 310.374216,390.834283 294.315075,399.60184 L250.951937,357.052124 C217.432613,324.160111 167.581243,316.852242 126.7838,335.090798 C126.220693,330.394903 126.676176,325.753698 127.556392,321.631117 C178.59932,313.018204 217.524863,269.995127 217.524863,218.338391 L217.524863,206.54019 C217.524863,148.701469 168.732443,101.646334 108.762431,101.646334 C48.7924195,101.646334 0,148.701469 0,206.54019 L0,218.338391 C0,272.003612 42.0120644,316.354364 95.9743126,322.481659 C94.850019,331.728235 95.2978145,342.219507 99.2914591,352.678718 C97.6770888,354.087487 96.0877028,355.535859 94.5425199,357.052124 C51.4234587,399.369874 51.4234587,468.222262 94.5444417,510.53624 L142.666129,557.757334 C157.993037,572.797401 177.401996,582.892633 198.187013,587.179287 L167.054651,617.72901 C123.93559,660.044874 123.93559,728.897262 167.054651,771.21124 C187.945371,791.709106 215.718305,802.998114 245.261281,803 C245.263203,803 245.261281,803 245.263203,803 C274.804257,803 302.579113,791.709106 323.46599,771.21124 L371.589599,723.990145 C405.812327,690.407893 413.107743,640.318342 392.866615,599.705447 L486.573121,599.705447 C466.330071,640.316456 473.627409,690.407893 507.852059,723.990145 L555.973746,771.21124 C576.862544,791.709106 604.635478,803 634.180376,803 C663.723352,803 691.496286,791.710992 712.387006,771.21124 C755.506068,728.895376 755.506068,660.042988 712.387006,617.72901 L664.263397,570.50603 C653.63546,560.076993 641.175981,552.00722 627.50188,546.605997 C631.416728,540.009112 634.601266,533.016189 636.990149,525.746037 C658.739945,521.823362 678.902276,511.496164 694.653918,496.043085 L791.199026,401.304809 L795.258014,405.287834 C816.146812,425.7857 843.919746,437.076594 873.464644,437.076594 C903.00762,437.076594 930.780554,425.787586 951.671274,405.287834 C994.778804,362.970084 994.778804,294.119582 951.655899,251.805604 Z M31.0747058,218.336505 L31.0747058,206.538304 C31.0747058,165.514283 65.9239631,132.137593 108.762431,132.137593 C151.6009,132.137593 186.450157,165.516169 186.450157,206.54019 L186.450157,218.338391 C186.450157,259.362413 151.6009,292.739102 108.762431,292.739102 C65.9239631,292.739102 31.0747058,259.364298 31.0747058,218.336505 Z M929.681245,383.724433 C914.661836,398.462755 894.689769,406.579676 873.449269,406.579676 C852.206847,406.579676 832.23478,398.462755 817.215371,383.722547 L802.180587,368.969137 C802.176743,368.965366 802.174822,368.96348 802.170978,368.959708 L770.308306,337.695228 C750.370833,318.128998 741.953045,289.385969 748.347104,262.6816 C750.311255,254.485471 745.129895,246.278026 736.777451,244.350634 C728.426928,242.430786 720.061031,247.507634 718.09688,255.705649 C709.262047,292.607089 720.848997,332.284576 748.335573,359.258629 L769.208996,379.741408 L672.66581,474.479684 C659.489474,487.40754 642.000463,495.324556 623.421752,496.7767 C623.34872,496.782358 623.283377,496.803103 623.210346,496.810647 C615.434462,497.400934 607.627829,496.863452 600.017226,495.201972 C591.622501,493.365104 583.337322,498.558877 581.476953,506.777637 C579.616583,514.996397 584.895958,523.141607 593.271465,524.970932 C596.532877,525.681917 599.821196,526.211855 603.124889,526.628639 C600.918583,531.015247 598.277935,535.188748 595.235615,539.10388 C585.564769,538.313687 575.855485,538.762531 566.255747,540.465501 C557.812975,541.966678 552.206882,549.900667 553.73669,558.183548 C555.095452,565.54988 561.637495,570.717251 569.007864,570.717251 C569.926518,570.717251 570.860546,570.636157 571.796497,570.468312 C580.771626,568.874725 589.883209,568.799289 598.877558,570.23446 C598.975573,570.253319 599.065901,570.285379 599.163916,570.302353 C615.58629,572.982219 630.494231,580.508853 642.277212,592.071317 L690.400821,639.292411 C721.408261,669.71955 721.408261,719.224472 690.400821,749.651611 C675.381412,764.389933 655.409345,772.506854 634.168845,772.506854 C612.926423,772.506854 592.954356,764.389933 577.934947,749.651611 L529.81326,702.430516 C499.707177,672.887865 498.577117,625.581905 527.234111,594.732324 C531.381506,590.27028 532.451987,583.826154 529.96701,578.302348 C527.480111,572.778542 521.90669,569.212301 515.752864,569.212301 L370.21354,569.212301 C355.495865,555.254742 337.255402,545.602697 317.319852,541.28021 C308.925126,539.460315 300.647635,544.661632 298.798796,552.880392 C296.946114,561.102924 302.238943,569.24059 310.620215,571.056713 C325.376328,574.257089 338.860163,581.521582 349.609179,592.069431 C350.06274,592.514504 350.543207,592.914315 351.037128,593.295267 C351.394595,593.789373 351.763594,594.277822 352.186406,594.730438 C380.8434,625.578133 379.713341,672.884093 349.609179,702.42863 L301.48557,749.649725 C286.468083,764.388047 266.496016,772.504968 245.253594,772.504968 C224.013094,772.504968 204.041027,764.388047 189.021618,749.649725 C158.014178,719.222586 158.014178,669.717664 189.021618,639.290525 L237.145227,592.069431 C239.541798,589.715825 242.224728,587.420683 245.115219,585.248124 C245.13636,585.233037 245.149813,585.214178 245.169032,585.199091 C251.78795,580.224082 259.100663,576.320265 267.045671,573.591365 C275.144428,570.80966 279.4129,562.113767 276.580065,554.164691 C273.747229,546.217501 264.883568,542.030799 256.780966,544.808732 C247.031323,548.156208 237.954334,552.754037 229.634562,558.530554 C205.745725,561.108581 181.674311,552.908681 164.635018,536.192047 L116.51333,488.970953 C85.5058901,458.5457 85.5058901,409.038892 116.511409,378.609867 C147.522693,348.1865 197.971764,348.182728 228.97536,378.609867 L269.793944,418.662649 C250.90389,437.361365 238.940253,462.626791 238.271443,490.41744 C238.067724,498.836105 244.859611,505.821485 253.438836,506.019505 C253.565679,506.021391 253.686757,506.023277 253.811678,506.023277 C262.225622,506.023277 269.138586,499.43205 269.338461,491.135968 C270.326302,450.111947 305.923166,416.737143 348.690525,416.737143 L507.652184,416.737143 C506.741218,446.147781 518.091779,474.871951 539.657075,496.033655 C542.689785,499.011494 546.668055,500.49947 550.64248,500.49947 C554.618828,500.49947 558.595176,499.011494 561.629808,496.033655 C567.697149,490.079863 567.697149,480.424046 561.627886,474.47214 C543.156799,456.344852 535.096479,430.474052 540.072199,405.265203 C540.085652,405.19731 540.089496,405.13319 540.101027,405.065297 C540.14523,404.888023 540.199042,404.716405 540.235558,404.535359 C543.310549,389.723486 550.709746,376.231745 561.629808,365.516051 L674.79332,254.470383 C677.776061,251.541578 679.419259,247.545352 679.340463,243.403912 C679.261666,239.262471 677.468562,235.32848 674.37243,232.510943 C657.948135,217.5614 648.903817,197.242694 648.903817,175.298341 L648.903817,108.522331 C648.903817,65.4935966 684.577557,30.487488 728.42885,30.487488 C772.278222,30.487488 807.951961,65.4935966 807.951961,108.522331 L807.951961,174.136626 C795.644309,176.039501 783.84211,179.947089 772.970095,185.691546 C771.071288,184.394045 768.85345,183.481269 766.408833,183.121062 C739.971598,179.249305 713.103864,184.91644 690.756367,199.081448 C683.549357,203.650988 681.479503,213.088041 686.138115,220.162058 C689.111247,224.676907 694.106185,227.136123 699.204904,227.136123 C702.095396,227.136123 705.016637,226.347816 707.622692,224.69388 C718.256396,217.953667 730.333423,213.915952 742.806355,212.774981 C741.985717,217.48785 743.415587,222.502462 747.120952,226.138481 C750.153661,229.11632 754.131931,230.604296 758.106357,230.604296 C762.082705,230.604296 766.059052,229.11632 769.093684,226.138481 C783.48272,212.014963 802.54382,203.948961 822.84837,203.336043 C822.907948,203.336043 822.965604,203.341701 823.025182,203.339815 C845.084399,202.708038 865.938603,210.807986 881.555714,226.136595 L929.679323,273.35769 C960.688685,303.792372 960.688685,353.301066 929.681245,383.724433 Z" id="Shape" fill="#000000" fill-rule="nonzero"></path>
        </g>
        <circle id="Oval" stroke="#979797" stroke-width="20" fill="#D8D8D8" fill-rule="nonzero" cx="948.5" cy="830.5" r="265.5"></circle>
        <g id="assistant-circus-svgrepo-com" transform="translate(725.000000, 575.000000)">
            <path d="M56.823,266.089 C56.823,296.188 51.317,325.891 40.715,353.771 C32.681,374.9 48.389,397.514 70.993,397.514 L224,397.514 L288.713,328.285 L224,266.088 L56.823,266.088 L56.823,266.089 Z" id="Path" fill="#848075"></path>
            <path d="M407.285,353.771 C396.683,325.89 391.177,296.188 391.177,266.089 L224.001,266.089 L224.001,397.515 L377.007,397.515 C399.61,397.516 415.319,374.9 407.285,353.771 Z" id="Path" fill="#706B63"></path>
            <path d="M305.701,420.022 C300.815,414.294 295.317,409.117 289.298,404.594 C288.479,403.979 287.665,403.359 286.834,402.763 C269.14,390.059 247.444,382.574 224,382.574 L180.858,447.287 L224,512 C246.39,512 268.081,509.016 288.713,503.455 C288.714,503.456 288.714,503.456 288.715,503.457 C292.343,502.479 295.938,501.422 299.498,500.286 C306.842,497.942 314.04,495.275 321.069,492.283 L321.069,490.43 L321.069,463.987 L321.069,461.729 C321.07,446.44 315.621,431.654 305.701,420.022 Z" id="Path" fill="#E1B872"></path>
            <path d="M161.166,402.762 C160.533,403.217 159.911,403.686 159.287,404.154 C152.948,408.917 147.145,414.355 141.999,420.373 C141.94,420.443 141.88,420.512 141.82,420.582 C132.08,432.033 126.931,446.692 126.931,461.726 L126.931,463.955 L126.931,492.281 C133.96,495.273 141.158,497.94 148.502,500.284 C152.062,501.421 155.657,502.477 159.285,503.455 C159.286,503.454 159.286,503.454 159.287,503.453 C160.429,503.76 161.576,504.058 162.724,504.349 C182.325,509.332 202.85,511.998 224,511.998 L224,382.572 C200.555,382.573 178.86,390.057 161.166,402.762 Z" id="Path" fill="#F8E5B5"></path>
            <polygon id="Path" fill="#BD7155" points="224 391.483 168.061 460.348 224 491.42 279.939 460.348"></polygon>
            <path d="M251.6,446.213 C248.011,446.154 244.533,446.596 241.234,447.475 C235.58,448.981 229.789,449.733 224,449.733 L200.272,483.957 L224,512 C246.391,512 268.081,509.016 288.713,503.455 L288.713,501.215 L288.713,500.912 L288.713,485.037 L288.713,484.734 C288.713,464.307 272.023,446.55 251.6,446.213 Z" id="Path" fill="#8D472E"></path>
            <path d="M206.765,447.475 C203.466,446.596 199.99,446.154 196.399,446.213 C185.064,446.4 174.881,451.952 168.06,460.347 C162.591,467.08 159.285,475.642 159.285,484.732 L159.285,485.035 L159.285,500.91 L159.285,501.213 L159.285,503.453 C179.918,509.014 201.609,511.998 223.998,511.998 L223.998,449.732 C218.21,449.734 212.42,448.981 206.765,447.475 Z" id="Path" fill="#AB5034"></path>
            <path d="M391.176,215.397 C383.262,215.397 375.797,217.304 369.196,220.664 C351.758,154.7 296.882,95.526 230.987,91.584 C228.67,91.445 226.343,91.365 224,91.365 C222.995,91.365 221.993,91.381 220.992,91.406 C220.655,91.415 220.319,91.43 219.982,91.442 C219.323,91.465 218.665,91.489 218.008,91.524 C217.599,91.546 217.19,91.57 216.782,91.596 C216.201,91.632 215.62,91.671 215.04,91.716 C214.601,91.749 214.163,91.785 213.725,91.824 C213.18,91.873 212.636,91.925 212.092,91.981 C211.635,92.027 211.177,92.074 210.721,92.126 C210.211,92.184 209.703,92.25 209.195,92.315 C208.713,92.376 208.231,92.434 207.751,92.502 C207.347,92.558 206.944,92.624 206.541,92.684 C205.377,92.859 204.218,93.05 203.063,93.259 C202.793,93.308 202.522,93.353 202.252,93.404 C201.604,93.526 200.958,93.657 200.312,93.79 C200.026,93.848 199.74,93.905 199.456,93.966 C198.796,94.106 198.138,94.253 197.481,94.405 C197.229,94.463 196.975,94.521 196.723,94.582 C196.032,94.746 195.341,94.914 194.653,95.09 C194.473,95.135 194.294,95.184 194.114,95.23 C189.887,96.329 185.723,97.648 181.632,99.179 L181.631,99.179 C145.941,112.528 115.729,141.761 96.296,177.126 C96.29,177.128 96.283,177.13 96.277,177.132 C96.144,177.373 96.022,177.618 95.891,177.86 C95.132,179.257 94.383,180.66 93.657,182.074 C93.579,182.226 93.501,182.377 93.423,182.529 C92.604,184.136 91.807,185.754 91.033,187.383 C90.947,187.564 90.862,187.746 90.775,187.928 C90,189.572 89.245,191.224 88.515,192.887 C88.469,192.993 88.424,193.098 88.379,193.203 C87.627,194.927 86.897,196.66 86.196,198.403 C86.194,198.407 86.193,198.412 86.191,198.416 C85.514,200.102 84.865,201.797 84.237,203.499 C84.156,203.717 84.074,203.935 83.994,204.154 C83.401,205.776 82.832,207.406 82.284,209.042 C82.191,209.319 82.1,209.597 82.008,209.875 C81.47,211.507 80.951,213.145 80.458,214.788 C80.389,215.018 80.323,215.249 80.255,215.479 C79.747,217.197 79.257,218.92 78.801,220.647 C78.8,220.649 78.8,220.652 78.799,220.655 L181.427,404.137 C194.403,411.173 209.022,414.935 224,414.935 C245.928,414.935 267.092,406.881 283.448,392.277 C308.049,370.31 343.459,335.6 362.214,302.885 C370.299,308.907 380.321,312.472 391.176,312.472 C417.981,312.472 439.711,290.742 439.711,263.937 C439.71,237.129 417.981,215.397 391.176,215.397 Z" id="Path" fill="#ECCE93"></path>
            <path d="M305.43,302.513 C305.43,284.27 289.128,270.332 271.111,273.201 C267.101,273.84 263.074,274.395 259.032,274.867 C257.477,275.048 255.896,275.141 254.333,275.141 C235.072,275.141 218.392,261.41 214.671,242.49 L207.353,205.283 C207.34,205.215 207.326,205.147 207.313,205.079 C205.545,196.191 194.709,192.548 187.884,198.511 C166.529,217.167 141.184,231.361 113.301,239.603 C106.616,241.579 99.297,239.421 94.986,233.943 C90.638,228.42 85.117,223.864 78.799,220.649 C78.798,220.652 78.797,220.657 78.796,220.66 C71.254,216.823 62.583,214.882 53.404,215.515 C28.823,217.21 9.2,237.528 8.32,262.153 C7.333,289.769 29.427,312.468 56.823,312.468 C67.679,312.468 77.701,308.902 85.785,302.881 C104.54,335.596 139.95,370.306 164.551,392.273 C169.736,396.902 175.406,400.868 181.426,404.133 C203.15,403.994 224.09,395.966 240.304,381.488 C257.678,365.974 280.444,344.103 298.926,321.067 C303.148,315.806 305.43,309.257 305.43,302.513 Z" id="Path" fill="#F8E5B5"></path>
            <circle id="Oval" fill="#E1B872" cx="391.171" cy="263.933" r="16.178"></circle>
            <circle id="Oval" fill="#ECCE93" cx="56.819" cy="263.933" r="16.178"></circle>
            <g id="Group" transform="translate(127.000000, 277.000000)" fill="#DFB296">
                <path d="M19.344,16.592 L8.558,16.592 C4.09,16.592 0.469,12.97 0.469,8.503 C0.469,4.036 4.09,0.414 8.558,0.414 L19.344,0.414 C23.812,0.414 27.433,4.036 27.433,8.503 C27.433,12.971 23.812,16.592 19.344,16.592 Z" id="Path"></path>
                <path d="M185.441,16.592 L174.655,16.592 C170.187,16.592 166.566,12.97 166.566,8.503 C166.566,4.036 170.187,0.414 174.655,0.414 L185.441,0.414 C189.909,0.414 193.53,4.036 193.53,8.503 C193.53,12.971 189.91,16.592 185.441,16.592 Z" id="Path"></path>
            </g>
            <rect id="Rectangle" fill="#848075" x="72.997" y="194.906" width="45.299" height="161.783"></rect>
            <g id="Group" transform="translate(197.000000, 46.000000)" fill="#706B63">
                <rect id="Rectangle" x="132.694" y="148.906" width="45.299" height="161.783"></rect>
                <path d="M153.77,32.844 C131.81,18.088 105.435,7.112 76.293,1.219 C72.501,0.452 68.609,0.064 64.73,0.064 C50.366,0.064 37.132,5.225 27,13.642 L0.744,91.91 C17.861,109.027 29.495,130.85 34.166,154.601 L41.484,191.808 C43.113,200.089 50.837,205.744 59.22,204.765 C88.977,201.29 117.253,192.963 143.232,180.59 C148.751,177.962 155.303,180.924 156.961,186.809 L156.993,186.924 C161.204,181.859 166.43,177.675 172.354,174.661 C178.911,171.325 186.32,169.427 194.175,169.403 L194.175,169.22 L194.175,109.329 C194.176,78.722 179.173,49.914 153.77,32.844 Z" id="Path"></path>
            </g>
            <path d="M350.301,78.529 C331.537,66.003 309.577,56.227 285.44,50.008 C285.329,49.98 285.206,49.95 285.071,49.918 C274.014,47.345 264.19,57.512 266.97,68.52 L275.5,102.307 C284.575,138.252 307.718,169.039 339.724,187.748 C351.203,194.458 364.818,196.513 377.766,193.491 L377.967,193.445 C385.698,191.673 391.179,184.793 391.179,176.861 L391.179,155.328 C391.176,124.522 375.922,95.634 350.301,78.529 Z" id="Path" fill="#848075"></path>
            <path d="M197.743,137.909 C205.898,146.064 212.792,155.297 218.298,165.289 C242.22,132.383 256.356,91.925 256.356,48.22 L256.356,46.306 C244.079,47.417 232.854,52.286 223.999,59.641 L197.743,137.909 Z" id="Path" fill="#5B5751"></path>
            <path d="M118.301,238.05 L118.301,194.905 L73.002,194.905 L73.002,247.095 C88.68,245.832 103.847,242.742 118.301,238.05 Z" id="Path" fill="#706B63"></path>
            <path d="M223.636,59.277 C217.944,146.452 145.439,215.397 56.824,215.397 L17.285,175.859 C8.861,167.435 8.861,153.777 17.285,145.353 L148.244,14.393 C156.668,5.969 170.326,5.969 178.75,14.393 L223.636,59.277 Z" id="Path" fill="#8D472E"></path>
            <path d="M154.948,183.215 C182.935,143.915 178.161,90.068 144.045,55.952 L140.618,52.525 C132.194,44.101 118.537,44.1 110.112,52.525 L17.285,145.352 C8.86,153.777 8.861,167.434 17.285,175.858 L56.824,215.396 C93.253,215.396 126.955,203.737 154.417,183.956 C154.594,183.71 154.771,183.463 154.948,183.215 Z" id="Path" fill="#AB5034"></path>
            <path d="M223.636,59.277 L191.644,27.285 L191.644,48.221 C191.644,73.339 184.732,96.871 172.72,117.026 L154.949,183.215 C154.782,183.449 154.615,183.683 154.447,183.916 C193.763,155.579 220.285,110.598 223.636,59.277 Z" id="Path" fill="#ADA999"></path>
            <path d="M154.948,183.215 C169.068,163.387 174.838,139.857 172.719,117.026 C149.182,156.522 106.045,183.04 56.824,183.04 L24.468,183.04 C26.085,184.657 27.882,186.454 29.797,188.369 C30.955,189.527 32.153,190.725 33.368,191.94 C34.584,193.156 35.82,194.392 37.056,195.628 C38.292,196.864 39.527,198.099 40.744,199.316 C42.569,201.141 44.35,202.922 46.021,204.593 C47.692,206.264 49.257,207.829 50.647,209.219 C51.342,209.914 51.977,210.548 52.577,211.149 C52.977,211.549 53.352,211.924 53.704,212.276 C54.231,212.803 54.721,213.293 55.127,213.699 C55.667,214.239 56.092,214.664 56.381,214.953 C56.526,215.098 56.637,215.209 56.712,215.284 C56.786,215.358 56.825,215.397 56.825,215.397 C56.836,215.397 56.845,215.397 56.856,215.397 C58.121,215.397 59.381,215.38 60.64,215.351 C61.051,215.341 61.46,215.326 61.871,215.314 C62.736,215.288 63.6,215.258 64.461,215.219 C64.931,215.197 65.401,215.174 65.871,215.149 C66.685,215.106 67.497,215.056 68.309,215.001 C68.775,214.97 69.242,214.938 69.707,214.903 C70.586,214.836 71.462,214.76 72.337,214.679 C72.714,214.644 73.094,214.614 73.471,214.577 C74.691,214.456 75.906,214.324 77.119,214.177 C77.467,214.135 77.814,214.085 78.162,214.041 C79.041,213.929 79.919,213.813 80.795,213.687 C81.291,213.616 81.785,213.539 82.28,213.463 C83.007,213.352 83.734,213.238 84.458,213.117 C84.986,213.029 85.515,212.939 86.042,212.846 C86.737,212.723 87.43,212.595 88.123,212.464 C88.65,212.364 89.178,212.267 89.703,212.161 C90.447,212.012 91.189,211.855 91.93,211.696 C92.511,211.572 93.094,211.449 93.673,211.318 C94.659,211.097 95.641,210.867 96.621,210.629 C97.197,210.489 97.77,210.339 98.343,210.192 C98.932,210.042 99.52,209.891 100.106,209.735 C100.723,209.57 101.338,209.4 101.951,209.228 C102.485,209.078 103.018,208.927 103.551,208.772 C104.185,208.588 104.819,208.401 105.451,208.21 C105.944,208.06 106.434,207.906 106.924,207.752 C107.585,207.545 108.247,207.339 108.904,207.123 C109.229,207.016 109.55,206.904 109.875,206.796 C111.371,206.296 112.858,205.775 114.336,205.233 C114.624,205.127 114.914,205.025 115.202,204.918 C115.942,204.642 116.676,204.357 117.411,204.071 C117.762,203.935 118.112,203.799 118.462,203.66 C119.196,203.369 119.928,203.071 120.657,202.77 C120.981,202.636 121.304,202.5 121.628,202.364 C122.388,202.044 123.148,201.721 123.902,201.39 C124.104,201.302 124.303,201.21 124.505,201.12 C127.208,199.922 129.874,198.655 132.499,197.32 C132.59,197.274 132.681,197.229 132.772,197.183 C133.596,196.762 134.416,196.332 135.231,195.897 C135.413,195.8 135.596,195.703 135.777,195.606 C136.589,195.17 137.397,194.728 138.202,194.279 C138.335,194.205 138.467,194.129 138.6,194.055 C142.195,192.035 145.708,189.887 149.132,187.615 C149.167,187.592 149.201,187.57 149.236,187.547 C150.061,186.998 150.882,186.441 151.696,185.878 C151.79,185.813 151.884,185.749 151.978,185.684 C152.8,185.115 153.616,184.539 154.427,183.954 C154.594,183.71 154.771,183.463 154.948,183.215 Z" id="Path" fill="#C1BDAB"></path>
            <path d="M224,310.735 C230.482,310.735 236.576,308.21 241.16,303.627 C244.319,300.468 244.319,295.346 241.159,292.187 C238.001,289.028 232.879,289.029 229.72,292.187 C228.193,293.715 226.161,294.557 224,294.557 C221.84,294.557 219.808,293.716 218.28,292.187 C215.121,289.029 209.999,289.028 206.841,292.187 C203.681,295.346 203.681,300.468 206.84,303.627 C211.424,308.21 217.519,310.735 224,310.735 Z" id="Path" fill="#000000"></path>
            <path d="M130.38,246.272 C131.818,247.319 133.485,247.824 135.137,247.824 C137.634,247.824 140.098,246.671 141.681,244.498 C146.69,237.624 153.869,232.4 161.895,229.784 C166.142,228.4 168.464,223.835 167.081,219.586 C165.697,215.339 161.134,213.017 156.884,214.4 C145.645,218.062 135.603,225.366 128.605,234.969 C125.975,238.582 126.769,243.641 130.38,246.272 Z" id="Path" fill="#000000"></path>
            <path d="M145.804,263.932 C145.804,268.399 149.425,272.021 153.893,272.021 C158.361,272.021 161.982,268.399 161.982,263.932 C161.982,259.471 165.61,255.843 170.071,255.843 C174.532,255.843 178.16,259.471 178.16,263.932 C178.16,268.399 181.781,272.021 186.249,272.021 C190.717,272.021 194.338,268.399 194.338,263.932 C194.338,250.55 183.451,239.664 170.07,239.664 C156.689,239.664 145.804,250.55 145.804,263.932 Z" id="Path" fill="#000000"></path>
            <path d="M447.763,261.865 C447.266,247.954 441.611,234.723 431.84,224.614 C423.038,215.507 411.593,209.671 399.264,207.896 L399.264,155.327 C399.264,121.738 382.821,90.636 355.281,72.129 C332.183,56.609 304.386,45.252 274.896,39.289 C265.41,37.371 255.442,37.571 246.042,39.819 C241.698,40.858 239.017,45.223 240.056,49.568 C241.095,53.913 245.456,56.589 249.805,55.554 C256.928,53.851 264.498,53.693 271.689,55.147 C299.119,60.694 324.904,71.21 346.257,85.558 C369.318,101.054 383.085,127.136 383.085,155.328 L383.085,207.895 C379.932,208.349 376.825,209.075 373.776,210.063 C369.889,210.653 366.907,213.999 366.907,218.051 L366.907,356.69 C366.907,361.157 370.529,364.779 374.996,364.779 C379.463,364.779 383.085,361.157 383.085,356.69 L383.085,319.973 C385.752,320.355 388.451,320.559 391.174,320.559 C406.683,320.559 421.155,314.411 431.926,303.249 C442.694,292.088 448.318,277.392 447.763,261.865 Z M420.286,292.012 C412.592,299.986 402.254,304.378 391.177,304.378 C388.439,304.378 385.735,304.1 383.088,303.563 L383.088,255.843 L391.177,255.843 C395.638,255.843 399.266,259.471 399.266,263.932 C399.266,268.399 402.888,272.021 407.355,272.021 C411.822,272.021 415.444,268.399 415.444,263.932 C415.444,250.55 404.558,239.664 391.176,239.664 L383.087,239.664 L383.087,224.31 C386.659,223.581 390.324,223.329 394.037,223.585 C414.37,224.986 430.868,242.054 431.597,262.442 C431.992,273.542 427.975,284.043 420.286,292.012 Z" id="Shape" fill="#000000" fill-rule="nonzero"></path>
            <path d="M128.471,171.836 C149.503,159.599 167.207,142.078 179.668,121.168 C181.955,117.331 180.698,112.365 176.859,110.078 C173.019,107.789 168.056,109.047 165.769,112.887 C142.954,151.17 101.209,174.952 56.823,174.952 C52.356,174.952 48.734,178.574 48.734,183.041 C48.734,187.508 52.356,191.13 56.823,191.13 C82.003,191.13 106.778,184.458 128.471,171.836 Z" id="Path" fill="#000000"></path>
            <path d="M178.506,106.792 C179.513,107.206 180.554,107.401 181.579,107.401 C184.761,107.401 187.779,105.511 189.063,102.386 C194.523,89.109 197.927,75.115 199.182,60.794 C199.572,56.344 196.281,52.419 191.831,52.03 C187.373,51.638 183.456,54.93 183.067,59.381 C181.954,72.072 178.937,84.471 174.101,96.235 C172.401,100.367 174.374,105.093 178.506,106.792 Z" id="Path" fill="#000000"></path>
            <path d="M408.388,331.438 C407.165,327.141 402.69,324.651 398.392,325.874 C394.095,327.098 391.605,331.573 392.828,335.87 C394.82,342.863 397.14,349.855 399.723,356.648 C402.58,364.162 401.594,372.277 397.018,378.914 C392.41,385.596 385.116,389.428 377.005,389.428 L298.581,389.428 C306.76,381.848 314.463,374.337 321.635,366.948 C321.92,371.158 325.415,374.486 329.696,374.486 C334.163,374.486 337.785,370.864 337.785,366.397 L337.787,231.327 C337.787,228.613 336.426,226.08 334.163,224.582 C331.899,223.083 329.036,222.821 326.538,223.881 C303.82,233.521 279.845,239.864 255.279,242.732 C251.123,243.216 247.23,240.37 246.419,236.249 L239.101,199.042 C234.531,175.81 223.809,154.464 207.992,136.971 C223.351,110.925 232.18,80.588 232.18,48.224 L232.18,16.164 C232.18,11.697 228.558,8.075 224.091,8.075 C219.624,8.075 216.002,11.697 216.002,16.164 L216.002,40.205 L184.47,8.674 C172.905,-2.891 154.088,-2.89 142.524,8.674 L11.565,139.633 C0.001,151.197 0.001,170.015 11.565,181.579 L37.344,207.358 L10.327,207.426 C5.86,207.441 2.25,211.075 2.265,215.542 C2.28,220.001 5.899,223.604 10.354,223.604 C10.363,223.604 10.372,223.604 10.381,223.604 L56.916,223.486 C59.597,223.486 62.261,223.416 64.913,223.296 L64.913,239.664 L56.824,239.664 C43.442,239.664 32.557,250.55 32.557,263.931 C32.557,268.398 36.179,272.02 40.646,272.02 C45.113,272.02 48.735,268.398 48.735,263.931 C48.735,259.47 52.363,255.842 56.824,255.842 L64.913,255.842 L64.913,303.567 C62.265,304.104 59.56,304.377 56.824,304.377 C45.746,304.377 35.408,299.985 27.714,292.01 C20.025,284.041 16.008,273.539 16.405,262.439 C16.69,254.467 19.343,246.806 24.077,240.283 C26.701,236.667 25.898,231.609 22.281,228.985 C18.664,226.359 13.606,227.165 10.983,230.781 C4.353,239.916 0.637,250.664 0.237,261.861 C-0.32,277.388 5.304,292.085 16.071,303.244 C23.512,310.957 32.723,316.272 42.819,318.824 C40.347,329.72 37.117,340.477 33.154,350.897 C28.448,363.272 30.134,377.179 37.663,388.097 C45.223,399.059 57.683,405.604 70.994,405.604 L145.015,405.604 C141.784,408.612 138.704,411.779 135.854,415.113 L135.659,415.342 C124.814,428.091 118.842,444.563 118.842,461.726 L118.842,492.281 C118.842,496.748 122.464,500.37 126.931,500.37 C131.398,500.37 135.02,496.748 135.02,492.281 L135.02,461.726 C135.02,448.4 139.623,435.65 147.965,425.842 L148.146,425.63 C151.969,421.158 156.228,416.992 160.804,413.243 L170.059,406.714 C172.492,408.332 174.999,409.846 177.571,411.241 C177.579,411.245 177.586,411.248 177.594,411.252 C182.308,413.807 187.23,415.953 192.287,417.692 L166.459,449.488 C165.11,446.898 162.407,445.127 159.286,445.127 C154.819,445.127 151.197,448.749 151.197,453.216 L151.197,484.731 L151.197,503.451 L151.197,503.907 C151.197,508.374 154.819,511.996 159.286,511.996 C163.753,511.996 167.375,508.374 167.375,503.907 L167.375,503.451 L167.375,484.731 C167.375,477.525 170.009,470.777 174.317,465.471 C174.325,465.462 174.333,465.455 174.34,465.446 L174.411,465.359 C179.808,458.774 187.793,454.443 196.532,454.299 C199.308,454.257 202.044,454.587 204.684,455.29 C217.296,458.648 230.702,458.649 243.317,455.29 C245.955,454.588 248.699,454.256 251.467,454.3 C260.213,454.445 268.203,458.78 273.6,465.372 L273.66,465.446 C273.667,465.454 273.674,465.46 273.679,465.468 C277.988,470.773 280.624,477.524 280.624,484.732 L280.624,503.452 L280.624,503.908 C280.624,508.375 284.246,511.997 288.713,511.997 C293.18,511.997 296.802,508.375 296.802,503.908 L296.802,503.452 L296.802,484.732 L296.802,453.22 C296.802,448.753 293.18,445.131 288.713,445.131 C285.592,445.131 282.888,446.902 281.54,449.492 L255.719,417.705 C263.231,415.12 270.412,411.617 277.106,407.257 L289.299,414.975 C292.957,418.125 296.403,421.588 299.546,425.273 C308.209,435.431 312.98,448.378 312.98,461.729 L312.98,490.43 C312.98,494.897 316.602,498.519 321.069,498.519 C325.536,498.519 329.158,494.897 329.158,490.43 L329.158,461.729 C329.158,444.534 323.013,427.859 311.855,414.774 C309.11,411.557 306.163,408.491 303.068,405.606 L377.006,405.606 C390.316,405.606 402.777,399.061 410.337,388.099 C417.866,377.181 419.552,363.274 414.846,350.899 C412.425,344.534 410.253,337.987 408.388,331.438 Z M23.005,151.072 L153.965,20.113 C159.222,14.856 167.775,14.856 173.032,20.113 L215.361,62.442 C208.237,142.464 141.617,205.629 60.134,207.267 L23.005,170.14 C17.748,164.883 17.748,156.329 23.005,151.072 Z M50.981,378.913 C46.405,372.277 45.419,364.162 48.276,356.647 C52.736,344.919 56.334,332.791 59.021,320.512 C61,320.436 62.965,320.249 64.913,319.971 L64.913,331.803 C64.913,336.27 68.535,339.892 73.002,339.892 C77.469,339.892 81.091,336.27 81.091,331.803 L81.091,221.811 C129.348,215.123 171.382,188.72 198.778,151.016 C211.1,165.706 219.502,183.217 223.229,202.161 L230.547,239.368 C232.783,250.734 242.858,258.845 254.18,258.937 C253.841,260.549 253.66,262.22 253.66,263.932 C253.66,268.399 257.281,272.021 261.749,272.021 C266.217,272.021 269.838,268.399 269.838,263.932 C269.838,259.471 273.466,255.843 277.927,255.843 C282.388,255.843 286.016,259.471 286.016,263.932 C286.016,268.399 289.637,272.021 294.105,272.021 C298.573,272.021 302.194,268.399 302.194,263.932 C302.194,259.09 300.763,254.579 298.31,250.788 C306.181,248.624 313.956,246.114 321.61,243.255 L321.608,343.385 C321.494,343.497 321.377,343.604 321.268,343.724 C308.847,357.425 294.31,371.729 278.06,386.238 C263.18,399.524 243.982,406.841 224,406.841 C210.519,406.841 197.131,403.446 185.284,397.021 C185.279,397.019 185.274,397.017 185.269,397.013 C179.752,394.021 174.595,390.396 169.937,386.238 C153.494,371.556 138.876,357.136 126.388,343.324 L126.388,230.74 C126.388,226.273 122.766,222.651 118.299,222.651 C113.832,222.651 110.21,226.273 110.21,230.74 L110.21,366.395 C110.21,370.862 113.832,374.484 118.299,374.484 C122.582,374.484 126.078,371.153 126.36,366.943 C133.529,374.329 141.231,381.838 149.418,389.427 L70.992,389.427 C62.884,389.426 55.59,385.594 50.981,378.913 Z M251.469,438.13 C247.3,438.084 243.151,438.594 239.153,439.658 C229.255,442.294 218.742,442.293 208.849,439.658 C204.85,438.592 200.705,438.083 196.531,438.129 L209.679,421.944 C214.414,422.65 219.204,423.018 224.003,423.018 C228.828,423.018 233.611,422.645 238.325,421.947 L251.469,438.13 Z" id="Shape" fill="#000000" fill-rule="nonzero"></path>
        </g>
    </g>
</svg>