<?xml version="1.0" encoding="UTF-8"?>
<svg width="1224px" height="1106px" viewBox="0 0 1224 1106" version="1.1" xmlns="http://www.w3.org/2000/svg" xmlns:xlink="http://www.w3.org/1999/xlink">
    <!-- Generator: Sketch 52.6 (67491) - http://www.bohemiancoding.com/sketch -->
    <title>Create</title>
    <desc>Created with Sketch.</desc>
    <g id="Page-1" stroke="none" stroke-width="1" fill="none" fill-rule="evenodd">
        <g id="Deliver" transform="translate(225.000000, 0.000000)">
            <polygon id="Path" fill="#AB5034" points="37.5370352 567.336957 37.5370352 916.470051 386.667969 1041.16075 735.801063 916.470051 735.801063 567.336957"></polygon>
            <path d="M386.667969,991.284902 C193.845941,991.284902 37.534875,924.294137 37.534875,841.657359 L37.534875,916.472211 C37.534875,999.108988 193.845941,1066.09975 386.667969,1066.09975 C579.489996,1066.09975 735.801063,999.108988 735.801063,916.472211 L735.801063,841.657359 C735.801063,924.291977 579.489996,991.284902 386.667969,991.284902 Z" id="Path" fill="#91928F"></path>
            <path d="M37.5370352,567.336957 L37.5370352,746.891305 C37.5370352,829.528082 193.848102,896.518848 386.670129,896.518848 C579.492156,896.518848 735.803223,829.528082 735.803223,746.891305 L735.803223,567.336957 L37.5370352,567.336957 Z" id="Path" fill="#47423F" opacity="0.3"></path>
            <path d="M37.5370352,567.336957 L37.5370352,692.027656 C37.5370352,774.664434 193.848102,841.655199 386.670129,841.655199 C579.492156,841.655199 735.803223,774.664434 735.803223,692.027656 L735.803223,567.336957 L37.5370352,567.336957 Z" id="Path" fill="#91928F"></path>
            <path d="M37.5370352,567.336957 L37.5370352,642.151809 C37.5370352,719.608531 174.871129,783.32018 350.8785,791.003855 C370.885867,791.876559 386.670129,808.332629 386.670129,828.361598 L386.670129,1066.10191 C579.492156,1066.10191 735.803223,999.111148 735.803223,916.474371 L735.803223,642.156129 L735.803223,567.336957 L37.5370352,567.336957 Z" id="Path" fill="#47423F" opacity="0.3"></path>
            <ellipse id="Oval" fill="#7F8383" cx="386.672289" cy="567.339117" rx="349.133094" ry="149.627543"></ellipse>
            <path d="M386.667969,455.11684 C208.627891,455.11684 61.7221445,512.231371 40.2458711,586.04175 C61.7221445,659.849969 208.627891,716.96666 386.667969,716.96666 C403.603594,716.96666 420.254078,716.450383 436.543816,715.45023 L436.543816,456.63543 C420.256238,455.635277 403.603594,455.11684 386.667969,455.11684 Z" id="Path" fill="#C1BDAB"></path>
            <path d="M410.252555,455.458145 C268.712637,459.506277 150.262629,499.698145 104.726535,554.691402 C89.7307305,572.799992 89.7307305,599.283508 104.726535,617.389937 C150.262629,672.383195 268.714797,712.575062 410.252555,716.623195 C577.539375,711.840609 712.570742,656.562211 733.092227,586.03959 C712.568582,515.516969 577.539375,460.23857 410.252555,455.458145 Z" id="Path" fill="#E7E4CD"></path>
            <path d="M183.343262,195.20252 C177.500039,175.374445 156.654531,164.027145 136.785414,169.857406 C116.914137,175.687668 105.545234,196.492133 111.390617,216.322367 L207.489488,542.400113 L279.435652,521.260824 L183.343262,195.20252 Z" id="Path" fill="#C9AD80"></path>
            <path d="M242.836125,532.011922 L150.923637,220.139363 C145.827828,202.849473 129.324234,192.016289 112.010582,193.390148 C109.49184,200.538105 109.08573,208.498281 111.390617,216.320207 L207.489488,542.397953 L242.836125,532.011922 Z" id="Path" fill="#B69362"></path>
            <path d="M279.584703,519.562941 C273.935895,518.199883 268.045148,517.458949 261.97943,517.458949 C240.663008,517.458949 221.444098,526.389035 207.815672,540.69359 C195.029707,554.116801 187.164578,572.270754 187.164578,592.273801 C187.164578,633.59327 220.657801,667.088652 261.97943,667.088652 C303.301059,667.088652 336.794281,633.59543 336.794281,592.273801 C336.792121,557.022211 312.406117,527.484234 279.584703,519.562941 Z" id="Path" fill="#AB5034"></path>
            <path d="M311.697586,572.242672 C312.1685,564.874379 311.570137,557.715621 310.045066,550.911129 C306.625539,535.664746 294.993098,523.332414 279.81584,519.619105 C279.738074,519.599664 279.664629,519.582383 279.586863,519.565102 C273.938055,518.202043 268.047309,517.461109 261.98159,517.461109 C240.665168,517.461109 221.446258,526.391195 207.817832,540.69575 C195.031867,554.118961 187.166738,572.272914 187.166738,592.275961 C187.166738,592.418531 187.166738,592.563262 187.166738,592.705832 C187.32227,620.135496 210.178883,642.352703 237.606387,642.149648 C239.04073,642.138848 240.483715,642.087004 241.93534,641.994117 C279.115949,639.628746 309.323574,609.425441 311.697586,572.242672 Z" id="Path" fill="#BD7155"></path>
            <path d="M258.313645,543.449949 C255.49032,542.7695 252.543867,542.397953 249.511008,542.397953 C238.852797,542.397953 229.244422,546.860836 222.431289,554.013113 C216.037227,560.724719 212.103582,569.801695 212.103582,579.803219 C212.103582,600.462953 228.851273,617.210645 249.511008,617.210645 C270.170742,617.210645 286.918434,600.462953 286.918434,579.803219 C286.916273,562.180664 274.724352,547.409516 258.313645,543.449949 Z" id="Path" fill="#CE9276"></path>
            <path d="M589.996996,45.5728164 C595.840219,25.7447422 616.685727,14.3974414 636.554844,20.2277031 C656.426121,26.0579648 667.795023,46.8624297 661.949641,66.6926641 L565.85293,392.77041 L493.906766,371.631121 L589.996996,45.5728164 Z" id="Path" fill="#C9AD80"></path>
            <path d="M530.504133,382.384379 L622.416621,70.5118203 C627.51243,53.2219297 644.016023,42.3887461 661.329676,43.7626055 C663.848418,50.9105625 664.254527,58.8707383 661.949641,66.6926641 L565.85077,392.77041 L530.504133,382.384379 Z" id="Path" fill="#B69362"></path>
            <path d="M528.966102,369.935398 C523.317293,368.57234 517.426547,367.831406 511.360828,367.831406 C490.044406,367.831406 470.825496,376.761492 457.19707,391.066047 C444.411105,404.489258 436.545977,422.643211 436.545977,442.646258 C436.545977,483.965727 470.039199,517.461109 511.360828,517.461109 C552.682457,517.461109 586.17568,483.967887 586.17568,442.646258 C586.17352,407.394668 561.785355,377.854531 528.966102,369.935398 Z" id="Path" fill="#AB5034"></path>
            <path d="M561.078984,422.615129 C561.549898,415.246836 560.951535,408.088078 559.426465,401.283586 C556.006938,386.037203 544.374496,373.704871 529.197238,369.991562 C529.119473,369.972121 529.046027,369.95484 528.968262,369.937559 C523.319453,368.5745 517.428707,367.833566 511.362988,367.833566 C490.046566,367.833566 470.827656,376.763652 457.19923,391.068207 C444.413266,404.491418 436.548137,422.645371 436.548137,442.648418 C436.548137,442.790988 436.548137,442.935719 436.548137,443.078289 C436.703668,470.507953 459.560281,492.72516 486.987785,492.522105 C488.422129,492.511305 489.865113,492.459461 491.316738,492.366574 C528.497348,489.999043 558.704973,459.797898 561.078984,422.615129 Z" id="Path" fill="#BD7155"></path>
            <path d="M507.692883,393.820246 C504.869559,393.139797 501.923105,392.76825 498.890246,392.76825 C488.232035,392.76825 478.62366,397.231133 471.810527,404.38341 C465.416465,411.095016 461.48282,420.171992 461.48282,430.173516 C461.48282,450.83325 478.230512,467.580941 498.890246,467.580941 C519.54998,467.580941 536.297672,450.83325 536.297672,430.173516 C536.297672,412.550961 524.10575,397.781973 507.692883,393.820246 Z" id="Path" fill="#CE9276"></path>
            <path d="M754.505855,900.260238 L754.505855,627.763008 C766.818746,608.827078 773.208488,588.52377 773.208488,567.339117 C773.208488,511.464516 728.841039,461.679395 648.278012,427.155777 C632.791852,420.517617 616.191051,414.559906 598.713227,409.269684 C595.771094,401.573047 591.805047,394.276039 586.884211,387.553633 L679.883258,71.9828867 C684.117164,57.609207 682.501367,42.4470703 675.325328,29.2895586 C668.136328,16.1104453 656.236027,6.51935156 641.812664,2.28760547 C612.084594,-6.43726562 580.796891,10.6150078 572.046098,40.2912344 L479.360273,354.781902 C463.781227,360.41559 450.336414,369.913797 440.030309,382.045234 C422.481199,380.930594 404.677191,380.306309 386.661488,380.306309 C342.952887,380.306309 300.326523,383.63727 260.234023,389.966527 L201.279039,189.918777 C194.172125,165.807113 172.181734,150.027172 148.238563,149.638344 C144.555496,149.577859 140.827066,149.882441 137.098637,150.578012 C135.232262,150.923637 133.370207,151.370789 131.512473,151.915148 C127.440578,153.109715 123.59766,154.777355 119.972918,156.788461 C110.772812,161.89507 103.162582,169.459938 98.0041289,178.914941 C90.8259297,192.074613 89.2079727,207.23675 93.4418789,221.61043 L139.0795,376.46123 L151.040285,417.039766 C142.092918,420.223836 133.393969,423.578559 125.051445,427.151457 C44.488418,461.677234 0.12096875,511.464516 0.12096875,567.334797 C0.12096875,588.519449 6.51287109,608.827078 18.8236016,627.758687 L18.8236016,900.255918 C8.49157422,900.255918 0.12096875,908.630844 0.12096875,918.958551 C0.12096875,974.833152 44.488418,1024.61827 125.051445,1059.14189 C195.545984,1089.35384 288.452145,1105.99352 386.661488,1105.99352 C484.870832,1105.99352 577.779152,1089.35384 648.271531,1059.14189 C728.834559,1024.61611 773.202008,974.828832 773.202008,918.958551 C773.208488,908.635164 764.837883,900.260238 754.505855,900.260238 Z M81.4400508,787.802504 C108.308074,805.930535 143.23348,821.524703 185.036824,833.692863 L119.914594,918.355867 L81.4400508,787.802504 Z M235.783215,829.076609 L327.954922,970.406992 C262.938539,965.609285 203.313906,952.922687 155.345477,933.645453 L235.783215,829.076609 Z M297.697613,855.534203 C326.624266,858.713953 356.389059,860.357832 386.670129,860.357832 C416.949039,860.357832 446.715992,858.713953 475.642645,855.534203 L386.667969,991.956711 L297.697613,855.534203 Z M537.554883,829.076609 L617.992621,933.645453 C570.026352,952.922687 510.401719,965.609285 445.383176,970.406992 L537.554883,829.076609 Z M653.464547,918.405551 L588.303434,833.695023 C630.262309,821.47718 665.287082,805.813887 692.196148,787.601609 L653.464547,918.405551 Z M54.7361992,613.814879 L60.1603516,600.644406 C73.0478437,569.348063 117.637789,539.224684 180.934688,518.463422 L186.449566,537.174695 C186.434445,537.194137 186.419324,537.217898 186.404203,537.23734 C185.769117,538.107883 185.151313,538.993547 184.546469,539.883531 C184.416859,540.073625 184.28941,540.261559 184.161961,540.451652 C183.570078,541.337316 182.995477,542.227301 182.435996,543.130246 C182.336629,543.290098 182.239422,543.452109 182.142215,543.614121 C179.709879,547.590969 177.586445,551.729828 175.782715,556.004777 C175.71575,556.162469 175.646625,556.318 175.57966,556.477852 C175.195152,557.402398 174.832246,558.333426 174.480141,559.270934 C174.363492,559.579836 174.249004,559.888738 174.134516,560.197641 C173.810492,561.085465 173.49943,561.975449 173.199168,562.874074 C173.08252,563.2305 172.970191,563.589086 172.855703,563.949832 C172.574883,564.835496 172.294063,565.72332 172.039164,566.615465 C171.948438,566.928687 171.872832,567.248391 171.784266,567.565934 C171.345754,569.16877 170.950445,570.782406 170.6005,572.411164 C170.486012,572.942562 170.360723,573.471801 170.254875,574.005359 C170.123105,574.672848 170.010777,575.346816 169.894129,576.018625 C169.771,576.712035 169.650031,577.405445 169.544184,578.101016 C169.449137,578.727461 169.364891,579.353906 169.282805,579.980352 C169.181277,580.751527 169.088391,581.520543 169.006305,582.293879 C168.94366,582.870641 168.883176,583.449563 168.833492,584.026324 C168.755727,584.916309 168.697402,585.808453 168.641238,586.702758 C168.613156,587.175832 168.576434,587.651066 168.556992,588.124141 C168.496508,589.50232 168.459785,590.88482 168.459785,592.271641 C168.459785,643.838891 210.41002,685.789125 261.97727,685.789125 C313.54452,685.789125 355.494754,643.838891 355.494754,592.271641 C355.494754,590.966906 355.464512,589.670813 355.412668,588.379039 C355.395387,587.957809 355.362984,587.540898 355.341383,587.119668 C355.293859,586.251285 355.246336,585.385063 355.177211,584.52316 C355.134008,584.017684 355.080004,583.518688 355.03032,583.015371 C354.954715,582.244195 354.88127,581.47518 354.786223,580.710484 C354.721418,580.176926 354.641492,579.645527 354.565887,579.114129 C354.464359,578.383996 354.358512,577.656023 354.239703,576.930211 C354.148977,576.388012 354.05177,575.850133 353.952402,575.314414 C353.822793,574.605883 353.691023,573.899512 353.546293,573.197461 C353.433965,572.657422 353.317316,572.117383 353.196348,571.581664 C353.038656,570.888254 352.876645,570.194844 352.705992,569.505754 C352.574223,568.972195 352.435973,568.438637 352.295563,567.907238 C352.111949,567.222469 351.919695,566.537699 351.718801,565.85725 C351.56759,565.336652 351.414219,564.818215 351.252207,564.301937 C351.038352,563.612848 350.811535,562.932398 350.584719,562.251949 C350.416227,561.750793 350.249895,561.249637 350.072762,560.752801 C349.824344,560.05507 349.560805,559.36382 349.297266,558.67257 C349.117973,558.205977 348.94516,557.735062 348.759387,557.270629 C348.459125,556.527535 348.143742,555.790922 347.826199,555.058629 C347.653387,554.659 347.489215,554.252891 347.309922,553.857582 C346.899492,552.941676 346.467461,552.03873 346.028949,551.140105 C345.927422,550.93057 345.834535,550.718875 345.728688,550.50934 C345.180008,549.4055 344.609727,548.314621 344.017844,547.234543 C343.851512,546.927801 343.667898,546.627539 343.497246,546.325117 C343.065215,545.556102 342.631023,544.791406 342.177391,544.037512 C341.935453,543.635723 341.680555,543.242574 341.434297,542.842945 C341.034668,542.199219 340.632879,541.555492 340.220289,540.922566 C339.939469,540.492695 339.645688,540.071465 339.358387,539.645914 C338.956598,539.054031 338.552648,538.464309 338.137898,537.883227 C337.828996,537.451195 337.513613,537.025645 337.19823,536.602254 C336.78348,536.040613 336.36441,535.483293 335.938859,534.932453 C335.606195,534.506902 335.271371,534.083512 334.934387,533.662281 C334.502355,533.124402 334.063844,532.590844 333.621012,532.061605 C333.271066,531.644695 332.921121,531.234266 332.564695,530.823836 C332.113223,530.305398 331.65527,529.791281 331.188676,529.283645 C330.821449,528.881855 330.456383,528.482227 330.084836,528.086918 C329.607441,527.583602 329.125727,527.086766 328.637531,526.59209 C328.261664,526.209742 327.887957,525.829555 327.503449,525.451527 C326.997973,524.954691 326.479535,524.468656 325.958938,523.982621 C325.58091,523.626195 325.202883,523.267609 324.816215,522.917664 C324.263215,522.418668 323.699414,521.930473 323.133453,521.444437 C322.764066,521.126895 322.40332,520.802871 322.031773,520.491809 C321.381566,519.947449 320.718398,519.422531 320.05091,518.897613 C319.746328,518.657836 319.452547,518.409418 319.143645,518.173961 C318.171574,517.426547 317.184383,516.694254 316.17991,515.983562 C315.925012,515.80427 315.661473,515.633617 315.406574,515.456484 C314.646199,514.929406 313.883664,514.404488 313.103848,513.901172 C312.699898,513.637633 312.282988,513.387055 311.874719,513.129996 C311.230992,512.726047 310.587266,512.322098 309.934898,511.93327 C309.481266,511.66325 309.014672,511.404031 308.556719,511.142652 C307.932434,510.786227 307.308148,510.429801 306.673063,510.088496 C306.187027,509.827117 305.694512,509.572219 305.201996,509.31732 C304.582031,508.995457 303.957746,508.673594 303.32698,508.366852 C302.817184,508.118434 302.305227,507.878656 301.791109,507.636719 C301.160344,507.342937 300.527418,507.051316 299.885852,506.768336 C299.365254,506.539359 298.840336,506.314703 298.317578,506.094367 C297.669531,505.822187 297.019324,505.558648 296.362637,505.30159 C295.831238,505.092055 295.29768,504.88684 294.759801,504.688105 C294.496262,504.590898 294.237043,504.48073 293.971344,504.385684 L291.094016,494.621777 C322.008012,490.757258 354.075531,488.782875 386.67877,488.782875 C401.441277,488.782875 416.223227,489.208426 430.78268,490.014164 C447.061617,517.60368 477.079148,536.163742 511.369469,536.163742 C535.109586,536.163742 556.799715,527.255258 573.307629,512.62668 L575.517469,513.259605 C647.714211,533.977664 699.177773,566.637066 713.182066,600.629285 L718.610539,613.808398 C672.992359,673.69225 541.635418,716.96234 386.674449,716.96234 C231.71132,716.96666 100.356539,673.69657 54.7361992,613.814879 Z M130.041406,198.498918 C130.281184,197.932957 130.553363,197.373477 130.849305,196.829117 C133.251398,192.424559 137.230406,189.223207 142.051875,187.806145 C142.844652,187.575008 143.63743,187.415156 144.434527,187.289867 C144.646223,187.257465 144.855758,187.229383 145.067453,187.205621 C145.730621,187.123535 146.393789,187.076012 147.054797,187.065211 C147.188727,187.063051 147.324816,187.05009 147.458746,187.05009 C148.350891,187.05441 149.236555,187.134336 150.109258,187.263945 C150.286391,187.292027 150.463523,187.317949 150.638496,187.350352 C151.504719,187.505883 152.360141,187.704617 153.189641,187.976797 C153.286848,188.009199 153.379734,188.048082 153.476941,188.084805 C154.254598,188.352664 155.012813,188.672367 155.749426,189.039594 C155.876875,189.102238 156.006484,189.156242 156.131773,189.223207 C156.892148,189.622836 157.622281,190.080789 158.324332,190.579785 C158.471223,190.683473 158.613793,190.793641 158.758523,190.901648 C159.456254,191.430887 160.130223,191.996848 160.754508,192.623293 C160.799871,192.668656 160.838754,192.7205 160.884117,192.765863 C161.47168,193.368547 162.013879,194.025234 162.519355,194.710004 C162.616563,194.841773 162.72241,194.971383 162.815297,195.109633 C163.314293,195.826805 163.765766,196.58502 164.165395,197.382117 C164.24532,197.541969 164.320926,197.708301 164.394371,197.870312 C164.785359,198.710613 165.141785,199.578996 165.411805,200.492742 L253.431691,499.162426 C240.675969,500.307309 228.492688,503.996855 217.447809,510.00857 L211.52898,489.925598 L206.396449,471.925016 L206.236598,471.970379 L129.330715,211.034305 C128.099426,206.847922 128.358645,202.462805 130.041406,198.498918 Z M298.017316,549.26509 C298.656723,549.798648 299.31125,550.314926 299.924734,550.876566 C300.430211,551.341 300.896805,551.842156 301.38716,552.323871 C301.987684,552.917914 302.609809,553.492516 303.18225,554.11248 C303.644523,554.611477 304.063594,555.145035 304.506426,555.661312 C305.059426,556.305039 305.631867,556.931484 306.154625,557.598973 C306.569375,558.128211 306.936602,558.687691 307.33407,559.229891 C307.837387,559.923301 308.362305,560.60159 308.835379,561.316602 C309.196125,561.865281 309.513668,562.446363 309.857133,563.010164 C310.310766,563.753258 310.78384,564.483391 311.20291,565.250246 C311.531254,565.85293 311.814234,566.483695 312.120977,567.1015 C312.499004,567.857555 312.900793,568.600648 313.246418,569.376145 C313.551,570.060914 313.799418,570.771605 314.080238,571.473656 C314.371859,572.21027 314.691563,572.929602 314.952941,573.679176 C315.220801,574.443871 315.426016,575.234488 315.661473,576.014305 C315.875328,576.722836 316.117266,577.420566 316.305199,578.139898 C316.516895,578.960758 316.663785,579.803219 316.838758,580.637039 C316.985648,581.34125 317.167102,582.03034 317.28807,582.745352 C317.450082,583.700141 317.545129,584.676531 317.657457,585.646441 C317.728742,586.255605 317.83675,586.853969 317.888594,587.467453 C318.022523,589.059488 318.093809,590.668805 318.093809,592.293242 C318.093809,623.231 292.923668,648.403301 261.98375,648.403301 C231.043832,648.403301 205.873691,623.231 205.873691,592.293242 C205.873691,590.506793 205.960098,588.735465 206.12643,586.977098 C206.232277,585.884059 206.420211,584.812621 206.584383,583.734703 C206.68375,583.084496 206.744234,582.423488 206.865203,581.775441 C207.126582,580.405902 207.474367,579.062285 207.835113,577.720828 C207.92584,577.383844 207.984164,577.038219 208.081371,576.701234 C208.502602,575.245289 209.005918,573.815266 209.545957,572.402523 C209.623723,572.195148 209.682047,571.981293 209.761973,571.776078 C210.327934,570.341734 210.97166,568.937633 211.65643,567.555133 C211.742836,567.378 211.814121,567.194387 211.900527,567.019414 C212.583137,565.675797 213.341352,564.366742 214.134129,563.074969 C214.259418,562.869754 214.365266,562.655898 214.492715,562.455004 C215.270371,561.225875 216.121473,560.035629 216.996336,558.860504 C217.177789,558.616406 217.339801,558.359348 217.525574,558.11741 C218.378836,557.00925 219.305543,555.950773 220.247371,554.900937 C220.541152,554.572594 220.811172,554.222648 221.113594,553.900785 L221.603949,553.371547 C232.288082,542.292105 246.609918,536.187504 261.975109,536.187504 C266.152852,536.187504 270.347875,536.677859 274.456492,537.613207 L274.624984,537.65209 C274.83668,537.701773 275.057016,537.747137 275.281672,537.79466 C276.08525,537.989074 276.858586,538.243973 277.642723,538.470789 C278.407418,538.693285 279.189395,538.887699 279.938969,539.138277 C280.688543,539.391016 281.407875,539.697758 282.140168,539.976418 C282.887582,540.263719 283.647957,540.522937 284.38025,540.83832 C285.080141,541.142902 285.751949,541.497168 286.436719,541.827672 C287.162531,542.177617 287.905625,542.503801 288.611996,542.881828 C289.264363,543.233934 289.884328,543.631402 290.521574,544.00727 C291.225785,544.42202 291.942957,544.813008 292.623406,545.25368 C293.22393,545.644668 293.789891,546.078859 294.373133,546.493609 C295.049262,546.968844 295.742672,547.426797 296.392879,547.932273 C296.95884,548.342703 297.477277,548.813617 298.017316,549.26509 Z M735.714656,564.898141 C711.037031,530.404766 662.945473,501.106566 596.801488,480.595883 C600.97059,471.244566 603.647023,461.091832 604.530527,450.433621 C683.149414,477.37725 733.984371,518.57575 735.714656,564.898141 Z M607.937094,50.8608789 C610.861945,40.9457617 621.334383,35.2580703 631.284063,38.1742813 C636.109852,39.5913438 640.086699,42.7948555 642.488793,47.1972539 C644.877926,51.5758906 645.415805,56.6220156 644.005223,61.4046016 L555.89677,360.374547 C544.851891,354.364992 532.67293,350.671125 519.912887,349.528402 L607.937094,50.8608789 Z M498.142832,388.117434 L498.147152,388.115273 C502.491227,387.065437 506.936828,386.534039 511.360828,386.534039 C526.846988,386.534039 541.272512,392.722887 551.982566,403.96866 C561.971129,414.449738 567.470887,428.186172 567.470887,442.644098 C567.470887,473.581855 542.298586,498.754156 511.360828,498.754156 C480.42307,498.754156 455.25077,473.581855 455.25077,442.644098 C455.248609,416.633656 472.890605,394.213395 498.142832,388.117434 Z M386.667969,417.709414 C398.257207,417.709414 409.695234,417.979434 420.995012,418.452508 C418.938543,426.198828 417.841184,434.310215 417.841184,442.648418 C417.841184,445.800086 418.003195,448.917191 418.309938,451.991094 C407.802938,451.597945 397.228973,451.377609 386.667969,451.377609 C350.385984,451.377609 314.693723,453.717059 280.37748,458.29227 L270.909516,426.166426 C307.143977,420.703391 346.082953,417.709414 386.667969,417.709414 Z M161.633691,452.958844 L170.354242,482.552984 C107.383527,502.95566 61.5277305,531.478363 37.6234414,564.898141 C39.2997227,520.001453 87.1039805,479.917594 161.633691,452.958844 Z M56.239668,667.734539 C74.8602148,682.494887 97.8918008,695.879215 125.057926,707.520297 C195.552465,737.732242 288.458625,754.371926 386.667969,754.371926 C484.877313,754.371926 577.785633,737.732242 648.278012,707.520297 C675.441977,695.877055 698.475723,682.494887 717.09627,667.734539 L717.09627,692.027656 C717.09627,734.731785 657.285863,777.189656 563.681973,801.694469 L551.118504,785.359367 C547.422477,780.550859 541.609496,777.824742 535.567539,778.07532 C529.510461,778.312937 523.941578,781.466766 520.630059,786.547453 L502.564672,814.249297 C465.496391,819.999633 426.570375,822.950406 386.667969,822.950406 C346.765563,822.950406 307.839547,819.999633 270.771266,814.249297 L252.705879,786.547453 C249.394359,781.466766 243.825477,778.310777 237.766238,778.07532 C231.71348,777.859305 225.911301,780.55302 222.215273,785.359367 L209.651805,801.692309 C116.052234,777.185336 56.239668,734.729625 56.239668,692.025496 L56.239668,667.734539 Z M386.667969,1066.09759 C233.357359,1066.09759 103.164742,1023.74125 56.239668,964.84675 L56.239668,834.630371 L94.4096289,964.15118 C96.3969727,970.897348 102.002578,975.958594 108.919398,977.250367 C115.836219,978.52918 122.886969,975.846266 127.177039,970.268742 L131.74577,964.330473 C191.664184,990.183223 269.336922,1005.95452 353.310836,1009.28332 L371.004676,1036.41273 C374.458766,1041.70727 380.351672,1044.89998 386.670129,1044.89998 C392.988586,1044.89998 398.881492,1041.70727 402.335582,1036.41273 L420.029422,1009.28332 C504.005496,1005.95452 581.678234,990.183223 641.596648,964.330473 L646.165379,970.270902 C650.448969,975.841945 657.504039,978.552941 664.407898,977.252527 C671.318238,975.967234 676.926004,970.916789 678.921988,964.177102 L717.10059,835.250336 L717.10059,964.85107 C670.171195,1023.74125 539.980738,1066.09759 386.667969,1066.09759 Z" id="Shape" fill="#000000" fill-rule="nonzero"></path>
        </g>
    </g>
</svg>