<?xml version="1.0" encoding="UTF-8"?>
<svg width="1346px" height="870px" viewBox="0 0 1346 870" version="1.1" xmlns="http://www.w3.org/2000/svg" xmlns:xlink="http://www.w3.org/1999/xlink">
    <!-- Generator: Sketch 52.6 (67491) - http://www.bohemiancoding.com/sketch -->
    <title>Untitled</title>
    <desc>Created with Sketch.</desc>
    <g id="Page-1" stroke="none" stroke-width="1" fill="none" fill-rule="evenodd" fill-opacity="0.31">
        <g id="HeroBackground" transform="translate(-30.000000, -173.000000)">
            <path d="M1023.6,320.7 C1068.2,387.3 1007.8,479.1 915.3,486.9 C888.7,489.2 856.5,490.5 817.9,490 C633.5,487.5 410.3,621.2 343,648.3 C222.8,696.6 -102,744.2 32.3,542.3 C208.1,278.4 21.2,78.6 164.2,24.2 C287.5,-22.7 494.1,10.9 590.9,40.1 C680.9,67.3 908.8,160.4 1021.8,318.3 C1022.5,319.1 1023,319.9 1023.6,320.7 Z" id="Path" fill="#9B9B9B"></path>
            <path d="M763.923976,435.171592 C813.362874,471.96855 864.102795,509.487018 880.040334,560.353402 C895.652617,611.219786 876.462519,675.434087 852.718838,732.433297 C828.975157,789.071753 800.677893,838.855874 760.996673,876.013587 C721.315453,913.532055 669.92502,938.424115 618.209332,939.506378 C566.493643,940.227887 514.452699,916.778845 470.543152,880.703395 C426.633605,844.9887 391.180712,797.008352 366.786519,738.926878 C342.392326,680.845404 329.38209,612.662804 341.741814,548.809258 C354.101539,484.955712 392.156479,425.43122 442.571144,388.634262 C492.985809,351.837303 556.085454,338.489387 611.378958,350.03353 C666.672461,361.21692 714.485079,398.013879 763.923976,435.171592 Z" id="Path" fill="#50E3C2"></path>
            <path d="M987.797818,1171.2 C987.797818,1171.2 924.597818,1033.5 773.697818,934 C622.797818,834.5 685.297818,723 742.097818,706.7 C780.097818,695.8 971.697818,736.4 1075.89782,660.1 C1180.09782,583.8 1243.79782,500 1279.59782,492.5 C1314.39782,485.2 1367.29782,462.4 1295.09782,791.1 C1222.89782,1119.9 1150.29782,1186.3 1117.69782,1210.5 C1096.59782,1226.2 1041.79782,1248.6 987.797818,1171.2 Z" id="Path" fill="#4A90E2"></path>
        </g>
    </g>
</svg>