<?xml version="1.0" encoding="UTF-8"?>
<svg width="1224px" height="1106px" viewBox="0 0 1224 1106" version="1.1" xmlns="http://www.w3.org/2000/svg" xmlns:xlink="http://www.w3.org/1999/xlink">
    <!-- Generator: Sketch 52.6 (67491) - http://www.bohemiancoding.com/sketch -->
    <title>Create</title>
    <desc>Created with Sketch.</desc>
    <g id="Page-1" stroke="none" stroke-width="1" fill="none" fill-rule="evenodd">
        <g id="Invite-Group">
            <g id="human-cannonball-circus-svgrepo-com" transform="translate(117.000000, 593.000000)">
                <path d="M265.415,394.671 L130.586,394.671 C100.573,412.203 78.006,441.082 68.752,475.423 C106.708,497.604 150.866,510.327 198,510.327 C245.134,510.327 289.292,497.604 327.248,475.423 C317.995,441.082 295.428,412.202 265.415,394.671 Z" id="Path" fill="#D5D2BD"></path>
                <path d="M125.108,398.05 C97.835,415.793 77.434,443.203 68.752,475.422 C106.708,497.603 150.866,510.326 198,510.326 L198,455.12 C198,444.523 190.552,435.353 180.163,433.27 C157.667,428.763 138.195,415.895 125.108,398.05 Z" id="Path" fill="#E7E4CD"></path>
                <path d="M269.391,439.751 L269.391,500.251 C278.645,497.574 287.684,494.387 296.476,490.728 C292.581,471.063 282.949,453.464 269.391,439.751 Z" id="Path" fill="#C1BDAB"></path>
                <path d="M99.527,490.727 C108.319,494.387 117.357,497.573 126.612,500.25 L126.612,439.751 C113.053,453.464 103.42,471.063 99.527,490.727 Z" id="Path" fill="#D5D2BD"></path>
                <path d="M203.969,438.225 L211.788,453.635 L228.885,456.051 C234.432,456.835 236.619,463.681 232.553,467.535 L220.31,479.143 L223.241,495.765 C224.2,501.207 218.524,505.403 213.603,502.886 L198.001,494.908 L182.399,502.886 C177.479,505.403 171.801,501.207 172.761,495.765 L175.692,479.143 L163.449,467.535 C159.383,463.681 161.569,456.835 167.117,456.051 L184.214,453.635 L192.033,438.225 C194.511,433.339 201.49,433.339 203.969,438.225 Z" id="Path" fill="#BD7155"></path>
                <path d="M191.464,439.344 L184.212,453.635 L167.115,456.051 C161.568,456.835 159.381,463.681 163.447,467.535 L175.69,479.143 L172.759,495.765 C171.8,501.207 177.476,505.403 182.397,502.886 L197.999,494.908 L197.999,455.12 C198.001,449.03 195.531,443.418 191.464,439.344 Z" id="Path" fill="#CE9276"></path>
                <path d="M348.098,223.786 L348.174,209.016 C333.144,152.159 291.216,100.189 238.217,82.085 C225.385,77.701 211.906,75.295 198.001,75.295 C126.661,75.295 66.497,138.395 47.829,209.017 L47.91,224.956 C46.134,230.752 45.143,236.88 45.091,243.227 C45.027,251.187 50.353,289.877 50.353,289.877 L116.021,386.703 C139.849,401.432 167.929,409.936 198,409.936 C263.97,409.936 320.376,369.026 343.256,311.196 C346.257,303.611 347.73,295.507 347.771,287.351 L347.87,267.858 C350.179,259.963 351.347,251.686 351.28,243.227 C351.228,236.451 350.108,229.921 348.098,223.786 Z" id="Path" fill="#D5A150"></path>
                <path d="M276.366,346.041 C282.725,339.518 277.738,328.683 268.631,328.938 C267.832,328.96 267.033,328.971 266.231,328.971 C251.515,328.971 237.265,325.136 224.726,318.245 C208.214,309.17 188.16,309.168 171.649,318.245 C159.11,325.137 144.861,328.971 130.146,328.971 C107.328,328.971 85.891,320.029 69.785,303.794 C59.297,293.223 51.944,280.405 48.125,266.453 L48.232,287.338 C48.276,295.768 49.903,304.118 53.044,311.94 C65.553,343.082 87.803,369.259 116.023,386.703 C132.556,390.925 149.006,393.204 164.538,393.204 C208.379,393.203 248.001,375.135 276.366,346.041 Z" id="Path" fill="#E1B872"></path>
                <g id="Group" transform="translate(74.000000, 208.000000)" fill="#A57D48">
                    <path d="M70.381,0.221 L36.065,0.221 C16.351,0.221 0.37,16.202 0.37,35.916 C0.37,66.719 25.341,91.689 56.143,91.689 C77.983,91.689 97.912,79.237 107.487,59.607 C120.866,32.182 100.896,0.221 70.381,0.221 Z" id="Path"></path>
                    <path d="M177.993,0.221 L212.309,0.221 C232.023,0.221 248.004,16.202 248.004,35.916 C248.004,66.719 223.033,91.689 192.231,91.689 C170.391,91.689 150.462,79.237 140.887,59.607 C127.508,32.182 147.478,0.221 177.993,0.221 Z" id="Path"></path>
                </g>
                <path d="M198.001,8.366 C93.272,8.366 8.371,93.477 8.371,198.467 L8.371,281.655 C8.371,290.896 15.862,298.387 25.103,298.387 C40.026,298.387 52.676,287.638 55.348,272.957 C67.669,205.237 68.606,153.738 198.001,153.738 C325.164,153.738 328.332,205.237 340.654,272.957 C343.326,287.639 355.976,298.387 370.899,298.387 C380.14,298.387 387.631,290.896 387.631,281.655 L387.631,198.467 C387.63,93.477 302.73,8.366 198.001,8.366 Z" id="Path" fill="#BD7155"></path>
                <path d="M131.072,160.511 C148.391,156.116 170.231,153.738 198,153.738 C225.756,153.738 247.603,156.192 264.928,160.733 L264.928,20.559 C244.114,12.686 221.562,8.366 198,8.366 C174.438,8.366 151.885,12.686 131.072,20.559 L131.072,160.511 Z" id="Path" fill="#E7E4CD"></path>
                <path d="M203.969,54.418 L211.788,69.828 L228.885,72.244 C234.432,73.028 236.619,79.874 232.553,83.728 L220.31,95.336 L223.241,111.958 C224.2,117.4 218.524,121.596 213.603,119.079 L198,111.101 L182.398,119.079 C177.478,121.595 171.8,117.4 172.76,111.958 L175.691,95.336 L163.448,83.728 C159.382,79.874 161.568,73.028 167.116,72.244 L184.213,69.828 L192.032,54.418 C194.511,49.532 201.49,49.532 203.969,54.418 Z" id="Path" fill="#67A0C0"></path>
                <path d="M198.001,8.366 L198.001,58.084 C198.001,90.896 174.231,119.003 141.825,124.14 C106.242,129.78 80.736,141.739 62.061,160.992 C36.319,187.529 30.29,222.073 24.46,255.478 C24.308,256.35 24.155,257.226 24.002,258.105 C23.313,262.044 19.89,264.926 15.893,264.926 L8.373,264.926 L8.373,281.658 C8.373,290.899 15.864,298.39 25.105,298.39 C39.961,298.39 52.656,287.746 55.319,273.131 C67.669,205.326 68.499,153.74 198.003,153.74 C325.284,153.74 328.341,205.334 340.69,273.146 C343.35,287.755 356.051,298.389 370.9,298.389 C380.141,298.389 387.632,290.898 387.632,281.657 L387.632,264.925 L387.632,198.469 C387.63,93.477 302.73,8.366 198.001,8.366 Z" id="Path" fill="#493023" opacity="0.2"></path>
                <path d="M21.508,128.805 C22.333,128.818 23.159,128.836 23.988,128.836 C94.786,128.836 153.723,78.097 166.446,11 C100.153,22.134 45.513,67.733 21.508,128.805 Z" id="Path" fill="#E7E4CD" opacity="0.3"></path>
                <path d="M230.056,447.768 L217.276,445.962 L211.43,434.439 C208.85,429.354 203.703,426.195 198.001,426.195 C192.299,426.195 187.152,429.354 184.572,434.439 L178.726,445.961 L165.947,447.767 C160.172,448.582 155.483,452.54 153.708,458.095 C151.933,463.65 153.459,469.593 157.691,473.606 L169.936,485.214 C173.288,488.393 178.584,488.251 181.763,484.898 C184.943,481.545 184.802,476.25 181.448,473.071 L171.72,463.849 L185.384,461.918 C188.089,461.535 190.437,459.857 191.674,457.419 L198.001,444.949 L204.328,457.419 C205.564,459.856 207.913,461.535 210.618,461.918 L224.282,463.849 L214.554,473.071 C212.516,475.003 211.584,477.83 212.071,480.596 L214.418,493.906 L201.808,487.461 C199.415,486.237 196.583,486.237 194.192,487.461 L180.983,494.215 C180.355,490.894 177.738,488.149 174.213,487.527 C169.659,486.727 165.324,489.764 164.522,494.314 C163.523,499.979 165.776,505.621 170.403,509.04 C175.029,512.459 181.088,512.955 186.207,510.337 L198.001,504.307 L209.795,510.337 C211.977,511.452 214.327,512.002 216.665,512.002 C219.815,512.002 222.943,511.003 225.599,509.039 C230.226,505.621 232.479,499.978 231.48,494.313 L229.329,482.122 L238.31,473.609 C242.542,469.597 244.068,463.653 242.293,458.098 C240.519,452.541 235.829,448.583 230.056,447.768 Z" id="Path" fill="#000000"></path>
                <path d="M230.056,63.961 L217.276,62.155 L211.43,50.633 C208.85,45.546 203.703,42.387 198.001,42.387 C192.299,42.387 187.152,45.546 184.572,50.633 L178.726,62.155 L165.947,63.961 C160.172,64.776 155.483,68.734 153.708,74.289 C151.933,79.844 153.459,85.787 157.691,89.8 L166.672,98.313 L164.521,110.505 C163.522,116.17 165.775,121.813 170.402,125.231 C175.028,128.65 181.084,129.146 186.207,126.528 L198,120.498 L209.794,126.528 C211.976,127.643 214.326,128.193 216.664,128.193 C219.814,128.193 222.942,127.194 225.598,125.23 C230.225,121.812 232.478,116.169 231.479,110.504 C230.677,105.954 226.338,102.915 221.788,103.717 C218.263,104.339 215.645,107.083 215.018,110.405 L201.81,103.651 C199.417,102.427 196.583,102.427 194.191,103.651 L181.582,110.098 L183.929,96.788 C184.418,94.023 183.485,91.196 181.446,89.263 L171.718,80.041 L185.382,78.11 C188.087,77.727 190.435,76.049 191.672,73.611 L197.999,61.142 L204.326,73.611 C205.562,76.048 207.911,77.727 210.616,78.11 L224.28,80.041 L214.552,89.263 C211.199,92.442 211.057,97.737 214.237,101.09 C217.417,104.444 222.712,104.584 226.064,101.406 L238.309,89.8 C242.541,85.788 244.067,79.844 242.292,74.289 C240.519,68.734 235.829,64.776 230.056,63.961 Z" id="Path" fill="#000000"></path>
                <path d="M268.615,13.058 C268.154,12.832 267.672,12.645 267.168,12.506 C245.626,4.428 222.321,0 198.001,0 C173.681,0 150.376,4.428 128.832,12.506 C128.329,12.645 127.846,12.832 127.385,13.058 C52.98,41.628 0.005,113.958 0.005,198.468 L0.005,281.656 C0.005,295.496 11.265,306.754 25.103,306.754 C43.993,306.754 60.173,293.17 63.579,274.455 C64.304,270.468 64.991,266.539 65.665,262.671 C66.111,260.111 66.553,257.584 66.998,255.088 C72.302,285.144 98.588,308.056 130.144,308.056 C155.003,308.056 178.108,293.62 189.008,271.277 C190.456,268.308 191.586,265.247 192.412,262.137 L203.963,262.137 C204.79,265.248 205.92,268.309 207.367,271.278 C218.266,293.62 241.372,308.057 266.231,308.057 C297.369,308.057 323.385,285.749 329.163,256.278 C329.71,259.271 330.251,262.308 330.798,265.391 C331.329,268.377 331.867,271.4 332.422,274.455 C333.512,280.444 335.915,285.904 339.292,290.566 C338.932,296.707 337.659,302.605 335.478,308.118 C313.015,364.886 259.052,401.569 197.999,401.569 C170.509,401.569 143.684,393.968 120.418,379.586 C93.66,363.046 72.487,337.914 60.803,308.821 C59.081,304.533 54.211,302.455 49.921,304.176 C45.634,305.898 43.554,310.77 45.276,315.057 C58.285,347.442 81.846,375.413 111.622,393.818 C112.491,394.356 113.377,394.862 114.255,395.383 C88.031,414.499 69.126,441.879 60.673,473.247 C59.472,477.709 62.113,482.299 66.575,483.502 C67.303,483.698 68.036,483.792 68.757,483.792 C72.446,483.792 75.823,481.332 76.829,477.6 C84.87,447.761 103.635,422.001 129.669,405.064 C130.139,404.758 130.566,404.413 130.953,404.036 C151.939,413.404 174.756,418.301 198,418.301 C221.3,418.301 243.977,413.454 264.875,404.139 C291.686,421.056 310.952,447.099 319.17,477.6 C320.176,481.332 323.554,483.792 327.243,483.792 C327.964,483.792 328.696,483.698 329.425,483.502 C333.887,482.3 336.528,477.709 335.327,473.248 C326.846,441.773 307.996,414.49 281.769,395.391 C285.088,393.422 288.354,391.343 291.549,389.13 C318.464,370.492 339.033,344.607 351.035,314.274 C352.466,310.658 353.586,306.919 354.418,303.09 C359.452,305.447 365.044,306.754 370.898,306.754 C384.737,306.754 395.996,295.496 395.996,281.656 L395.996,198.468 C395.996,113.957 343.022,41.628 268.615,13.058 Z M173.968,263.94 C165.854,280.575 148.652,291.323 130.143,291.323 C104.002,291.323 82.736,270.057 82.736,243.916 C82.736,228.847 94.995,216.587 110.065,216.587 L144.381,216.587 C155.808,216.587 166.244,222.373 172.299,232.063 C178.354,241.753 178.977,253.67 173.968,263.94 Z M266.23,291.324 C247.722,291.324 230.518,280.575 222.404,263.941 C217.394,253.671 218.018,241.754 224.073,232.063 C230.129,222.372 240.565,216.587 251.991,216.587 L286.308,216.587 C301.378,216.587 313.637,228.847 313.637,243.916 C313.638,270.056 292.371,291.324 266.23,291.324 Z M286.309,199.855 L251.992,199.855 C234.758,199.855 219.017,208.581 209.884,223.196 C205.596,230.059 203.138,237.664 202.493,245.403 L193.879,245.403 C193.234,237.664 190.777,230.059 186.488,223.195 C177.356,208.579 161.614,199.854 144.38,199.854 L110.064,199.854 C96.836,199.854 84.958,205.722 76.875,214.983 C80.498,205.515 85.278,197.131 92.083,190.116 C110.62,171.005 144.276,162.104 197.999,162.104 C251.5,162.104 285.114,171.251 303.781,190.89 C309.893,197.32 314.401,204.853 317.93,213.279 C309.917,205.01 298.706,199.855 286.309,199.855 Z M379.264,281.656 C379.264,286.27 375.512,290.022 370.898,290.022 C360.098,290.022 350.841,282.216 348.884,271.461 C348.332,268.428 347.799,265.426 347.272,262.463 C341.392,229.393 336.316,200.832 315.911,179.364 C305.409,168.315 291.396,160.085 273.296,154.49 L273.296,141.48 C273.296,136.86 269.551,133.114 264.93,133.114 C260.309,133.114 256.564,136.86 256.564,141.48 L256.564,150.298 C239.946,146.99 220.539,145.374 198.002,145.374 C175.456,145.374 156.049,146.94 139.44,150.146 L139.44,103.181 C139.44,98.561 135.695,94.815 131.074,94.815 C126.453,94.815 122.708,98.561 122.708,103.181 L122.708,154.213 C104.552,159.662 90.533,167.686 80.076,178.466 C59.714,199.457 54.834,227.418 49.184,259.794 C48.516,263.623 47.837,267.514 47.118,271.461 C45.161,282.217 35.903,290.024 25.103,290.024 C20.489,290.024 16.737,286.272 16.737,281.658 L16.737,198.47 C16.737,125.18 60.237,61.891 122.706,33.173 L122.706,40.345 C122.706,44.965 126.451,48.711 131.072,48.711 C135.693,48.711 139.438,44.965 139.438,40.345 L139.438,26.469 C157.818,20.161 177.517,16.732 198,16.732 C218.483,16.732 238.183,20.161 256.562,26.469 L256.562,90.646 C256.562,95.266 260.307,99.012 264.928,99.012 C269.549,99.012 273.294,95.266 273.294,90.646 L273.294,33.171 C335.764,61.889 379.263,125.178 379.263,198.468 L379.263,281.656 L379.264,281.656 Z" id="Shape" fill="#000000" fill-rule="nonzero"></path>
                <circle id="Oval" fill="#000000" cx="142.227" cy="253.769" r="16.732"></circle>
                <circle id="Oval" fill="#000000" cx="253.774" cy="253.769" r="16.732"></circle>
                <path d="M215.792,310.979 C219.034,307.686 218.993,302.39 215.701,299.147 C212.41,295.905 207.113,295.946 203.87,299.237 C202.303,300.829 200.208,301.716 197.974,301.732 C195.74,301.749 193.631,300.894 192.041,299.327 C188.749,296.085 183.452,296.126 180.21,299.416 C176.967,302.709 177.007,308.005 180.299,311.248 C185.075,315.952 191.398,318.515 198.102,318.464 C204.805,318.414 211.088,315.756 215.792,310.979 Z" id="Path" fill="#000000"></path>
                <path d="M275.339,433.869 C272.091,430.583 266.793,430.554 263.508,433.801 C260.223,437.049 260.192,442.347 263.441,445.632 C276.183,458.52 284.768,474.675 288.267,492.351 C289.056,496.335 292.553,499.094 296.466,499.094 C297.004,499.094 297.551,499.042 298.1,498.932 C302.632,498.035 305.579,493.634 304.681,489.101 C300.542,468.197 290.396,449.098 275.339,433.869 Z" id="Path" fill="#000000"></path>
                <path d="M120.662,433.869 C105.605,449.097 95.459,468.196 91.32,489.103 C90.422,493.635 93.37,498.037 97.901,498.934 C98.45,499.043 98.996,499.096 99.535,499.096 C103.448,499.096 106.945,496.337 107.734,492.353 C111.233,474.677 119.818,458.522 132.56,445.634 C135.809,442.349 135.779,437.052 132.493,433.803 C129.206,430.553 123.909,430.583 120.662,433.869 Z" id="Path" fill="#000000"></path>
            </g>
            <g id="clown-circus-svgrepo-com" transform="translate(684.000000, 22.000000)">
                <path d="M305.52546,375.92181 C299.82828,369.36159 293.35362,363.49794 286.2447,358.47501 C268.47333,345.91908 246.74481,338.60835 223.32555,338.78784 L176.71953,407.74455 L224.31321,468.07272 C246.67878,467.90253 268.32174,464.75634 288.89055,459.04428 C289.31091,458.92803 289.73127,458.81271 290.14884,458.69274 C293.33874,457.78878 296.50353,456.82344 299.63949,455.79579 C305.10045,454.00647 310.46841,452.01348 315.75546,449.86425 C318.98256,448.55295 322.18641,447.19701 325.34283,445.75272 C327.51717,444.75855 329.67756,443.73927 331.81842,442.68465 C330.92004,417.15615 321.15411,393.91824 305.52546,375.92181 Z" id="Path" fill="#656890"></path>
                <path d="M223.32648,338.78784 C199.90722,338.9664 178.29309,346.60728 160.71516,359.43384 C153.6825,364.56465 147.29805,370.52688 141.70224,377.17266 C126.35073,395.40531 116.94006,418.78923 116.43135,444.32796 C126.84456,449.26347 137.66046,453.48195 148.80651,456.9462 C151.95828,457.92549 155.13609,458.84247 158.34087,459.69807 C158.76123,459.80967 159.18345,459.92034 159.60474,460.03008 C180.25725,465.4278 201.94671,468.24291 224.31228,468.07272 L223.32648,338.78784 Z" id="Path" fill="#797DAF"></path>
                <path d="M251.42178,407.53344 C247.83477,407.50089 244.36587,407.96961 241.07739,408.87264 C229.80486,411.96675 217.96596,412.05789 206.64693,409.13583 C203.3445,408.28395 199.86909,407.86731 196.28301,407.9538 C175.88439,408.44484 159.34806,426.31014 159.50337,446.71434 L159.50523,447.01566 L159.60474,460.02729 C180.25725,465.42501 201.94671,468.24012 224.31228,468.06993 C246.67785,467.89974 268.32174,464.75262 288.88962,459.04149 L288.79011,446.02986 L288.78825,445.72668 C288.63201,425.32527 271.82598,407.71479 251.42178,407.53344 Z" id="Path" fill="#5B5751" opacity="0.3"></path>
                <path d="M141.70224,377.17266 C126.35073,395.40531 116.94006,418.78923 116.43135,444.32796 C126.84456,449.26347 137.66046,453.48195 148.80651,456.9462 C151.95828,457.92549 155.13609,458.84247 158.34087,459.69807 C158.76123,459.80967 159.18345,459.92034 159.60474,460.03008 L159.46431,441.63096 C159.28575,418.10289 152.82969,396.09258 141.70224,377.17266 Z" id="Path" fill="#959BC9"></path>
                <path d="M305.52546,375.92181 C302.57643,381.11493 299.98359,386.53404 297.76554,392.14194 C291.83121,407.14656 288.61806,423.51735 288.74919,440.6433 L288.88962,459.04242 C289.30998,458.92617 289.73034,458.81085 290.14791,458.69088 C293.33781,457.78692 296.5026,456.82065 299.63856,455.79393 C305.09952,454.00461 310.46748,452.01255 315.75453,449.86239 C318.98163,448.55109 322.18548,447.19515 325.3419,445.75086 C327.51624,444.75669 329.67663,443.73741 331.81749,442.68279 C330.92004,417.15615 321.15411,393.91824 305.52546,375.92181 Z" id="Path" fill="#535572"></path>
                <path d="M267.4866,395.31975 L263.62989,391.46304 L224.12442,350.64162 L210.11862,403.434 L224.12535,457.30425 L267.48753,413.94207 C272.6295,408.80103 272.6295,400.46265 267.4866,395.31975 Z" id="Path" fill="#AB5034"></path>
                <path d="M184.62081,391.46397 C183.67035,392.44233 180.7641,395.32068 180.7641,395.32068 C175.6212,400.46358 175.6212,408.80103 180.7641,413.94393 L224.12628,457.30611 L224.12628,350.64348 C224.12442,350.64255 194.649,381.13539 184.62081,391.46397 Z" id="Path" fill="#BD7155"></path>
                <path d="M224.12442,371.11278 L203.09898,350.08734 C194.95404,341.9424 181.02822,347.71026 181.02822,359.22924 L181.02822,382.99539 C181.02822,394.51437 194.95497,400.28223 203.09898,392.13729 L224.12442,371.11278 Z" id="Path" fill="#E2C35A"></path>
                <path d="M224.12442,371.11278 L245.14986,350.08734 C253.2948,341.9424 267.22062,347.71026 267.22062,359.22924 L267.22062,382.99539 C267.22062,394.51437 253.29387,400.28223 245.14986,392.13729 L224.12442,371.11278 Z" id="Path" fill="#BB9430"></path>
                <circle id="Oval" fill="#D9B43A" cx="224.11884" cy="371.11185" r="16.16061"></circle>
                <path d="M439.5738,218.49792 C438.69495,193.90035 419.09334,173.60496 394.53855,171.9105 C385.36875,171.2781 376.70766,173.21622 369.1728,177.04968 C369.16164,177.05526 369.15234,177.06177 369.14118,177.06735 L369.12723,177.01341 C368.17398,173.43942 364.96269,170.90703 361.26408,170.87076 C342.10236,170.6829 323.02248,173.73051 304.80192,179.84061 C279.1209,188.45241 252.27738,192.80295 224.66382,192.80295 C197.0205,192.80295 170.15652,188.44683 144.46062,179.82201 C125.94525,173.60775 106.55289,170.51736 87.08334,170.77962 C83.33823,170.82984 80.09346,173.39664 79.12254,177.01341 L79.10766,177.06828 L79.10673,177.07479 L83.06109,299.14659 C87.10008,315.61131 92.42247,329.57991 99.09243,336.03132 C123.66024,359.79654 182.28558,371.11278 224.38854,371.11278 C266.4915,371.11278 324.58953,359.79654 349.15827,336.03132 C360.24294,325.31028 367.61133,293.84373 371.54058,264.62778 C377.53071,267.27735 384.15231,268.75977 391.12359,268.75977 C418.48977,268.75977 440.56146,246.08451 439.5738,218.49792 Z" id="Path" fill="#B8B7AC"></path>
                <path d="M316.83519,287.54856 C328.31697,276.4425 335.81184,243.07875 339.6267,213.01464 C340.34001,207.39186 334.74792,203.11758 329.47947,205.21008 C296.17989,218.43096 261.01008,225.1251 224.66289,225.1251 C183.53085,225.1251 143.91285,216.56445 106.81515,199.671 C105.61266,201.10692 104.16,202.31964 102.53343,203.26545 C100.43814,197.67336 97.3338,192.58068 93.45012,188.19108 C93.35712,188.08692 93.26784,187.97997 93.17391,187.87674 C92.77029,187.42755 92.35365,186.98859 91.93422,186.55614 C91.8189,186.43803 91.70451,186.31806 91.58826,186.19995 C91.17441,185.78238 90.75126,185.37318 90.32346,184.97049 C90.18954,184.84587 90.05655,184.72032 89.9217,184.59663 C89.49576,184.2051 89.06331,183.82194 88.62435,183.44622 C88.47927,183.3216 88.3314,183.19977 88.18446,183.07701 C87.74457,182.70966 87.2991,182.34789 86.84619,181.99635 C86.69181,181.87638 86.53557,181.76106 86.38119,181.64388 C85.92177,181.29606 85.45956,180.95289 84.98805,180.62181 C84.84297,180.51951 84.6951,180.42279 84.54816,180.32235 C84.05433,179.9829 83.55957,179.6481 83.05272,179.32725 C82.96716,179.27331 82.87881,179.22309 82.79325,179.16915 C81.59727,178.42143 80.36874,177.72021 79.10487,177.07572 L79.1058,177.06921 C79.09464,177.06363 79.08534,177.05712 79.07418,177.05154 C71.54025,173.21808 62.87823,171.27996 53.70843,171.91236 C29.15364,173.60589 9.55296,193.90128 8.67318,218.49978 C7.68831,246.08451 29.76,268.75977 57.12618,268.75977 C64.09653,268.75977 70.71906,267.27735 76.70919,264.62778 C78.27438,276.26301 80.38641,288.24978 83.05923,299.14566 C111.90969,315.0003 157.52805,322.62909 192.06453,322.62909 C234.16935,322.63002 292.26738,311.31378 316.83519,287.54856 Z" id="Path" fill="#DBD9C7"></path>
                <circle id="Oval" fill="#A4A49E" cx="391.12731" cy="220.27515" r="16.16061"></circle>
                <circle id="Oval" fill="#B8B7AC" cx="57.12711" cy="220.27515" r="16.16061"></circle>
                <circle id="Oval" fill="#8D472E" cx="224.11884" cy="231.0492" r="16.16061"></circle>
                <path d="M218.19846,234.28281 C213.7419,234.28281 210.11769,230.6586 210.11769,226.20204 C210.11769,221.74548 213.7419,218.12127 218.19846,218.12127 C222.65502,218.12127 226.27923,221.74548 226.27923,226.20204 C226.27923,230.6586 222.65502,234.28281 218.19846,234.28281 Z" id="Path" fill="#AB5034"></path>
                <path d="M381.93612,13.13346 L416.33868,68.02764 C420.83616,75.20352 415.67745,84.52305 407.2098,84.52305 L318.93699,84.52305 L363.67836,13.13346 C367.89963,6.39654 377.71392,6.39654 381.93612,13.13346 Z" id="Path" fill="#535572"></path>
                <g id="Group" transform="translate(29.760000, 7.440000)" fill="#656890">
                    <path d="M36.55365,5.69346 L2.15109,60.58764 C-2.34639,67.76352 2.81232,77.08305 11.27997,77.08305 L99.55278,77.08305 L54.81234,5.69439 C50.59014,-1.04346 40.77585,-1.04346 36.55365,5.69346 Z" id="Path"></path>
                    <path d="M229.61049,10.87356 C211.38807,7.19727 194.36442,21.16215 194.36442,39.81609 C194.36442,21.16215 177.34077,7.19727 159.11835,10.87356 C94.92138,23.82381 44.42796,71.424 30.92994,131.80239 C27.52986,147.0144 35.06565,162.4524 49.02588,169.38741 C49.17375,169.46088 49.32069,169.53528 49.46763,169.60968 C55.38429,172.62009 60.60624,176.80044 64.8117,181.85964 C66.47733,175.64445 73.43652,172.56894 79.22205,175.33662 C114.29886,192.11568 153.57555,201.5217 195.05355,201.5217 C236.36508,201.5217 275.49297,192.18822 310.46283,175.53471 C315.97959,172.90653 322.52865,175.86114 324.18591,181.74246 L324.21846,181.85778 C328.42485,176.79858 333.64587,172.61916 339.56253,169.60782 C339.62856,169.57434 339.69366,169.54086 339.75969,169.50831 C353.67156,162.50076 361.212,147.13716 357.82773,131.93259 C344.37621,71.49282 293.85489,23.83404 229.61049,10.87356 Z" id="Path"></path>
                </g>
                <path d="M122.11923,146.22855 C123.34032,146.69727 124.54746,147.21807 125.73972,147.78723 C148.64004,158.74263 172.78284,165.71484 197.79426,168.62202 C198.57453,168.71223 199.94256,168.74292 201.81186,168.71037 C266.3892,167.62506 312.91896,106.30179 297.0699,43.68954 L293.31828,28.86813 C294.32175,29.29686 295.31034,29.74791 296.30265,30.19524 C284.67765,24.95655 272.31981,20.92221 259.39281,18.31449 C241.17039,14.6382 224.14674,28.60308 224.14674,47.25702 C224.14674,28.60308 207.12309,14.6382 188.90067,18.31449 C137.20011,28.74351 94.40616,61.65342 72.64695,105.60336 C73.2096,106.48686 73.7769,107.37129 74.34792,108.25851 C85.6623,125.81319 102.62178,138.7374 122.11923,146.22855 Z" id="Path" fill="#797DAF"></path>
                <path d="M122.37312,90.05655 C132.67287,79.08255 145.01676,69.79278 158.8626,62.69223 C173.91651,54.97416 191.80227,66.07464 191.80227,82.99134 C191.80227,95.53983 181.629,105.71124 169.08237,105.71124 L129.16491,105.71124 C121.02927,105.7131 116.80614,95.98902 122.37312,90.05655 Z" id="Path" fill="#959BC9" opacity="0.5"></path>
                <path d="M146.55405,233.74434 L135.78,233.74434 C131.316,233.74434 127.69923,237.36204 127.69923,241.82511 C127.69923,246.28818 131.316,249.90588 135.78,249.90588 L146.55405,249.90588 C151.01805,249.90588 154.63482,246.28818 154.63482,241.82511 C154.63482,237.36204 151.01712,233.74434 146.55405,233.74434 Z" id="Path" fill="#000000"></path>
                <path d="M301.69944,233.74434 C297.23544,233.74434 293.61867,237.36204 293.61867,241.82511 C293.61867,246.28818 297.23544,249.90588 301.69944,249.90588 L312.47349,249.90588 C316.93749,249.90588 320.55426,246.28818 320.55426,241.82511 C320.55426,237.36204 316.93749,233.74434 312.47349,233.74434 L301.69944,233.74434 Z" id="Path" fill="#000000"></path>
                <path d="M241.30989,259.7955 C236.76684,264.40923 230.69766,266.97789 224.28438,267.02718 L224.03142,267.02811 C217.63209,267.02811 211.59267,264.55245 207.02916,260.05683 C203.84856,256.92459 198.7317,256.96458 195.60225,260.14425 C192.47094,263.32485 192.51,268.43985 195.68967,271.57116 C203.29707,279.06231 213.36246,283.18779 224.03328,283.18779 L224.34855,283.18686 C235.1412,283.10409 245.25495,278.8233 252.82608,271.13406 C255.95739,267.95346 255.91833,262.83846 252.73866,259.70715 C249.55713,256.57677 244.44027,256.61583 241.30989,259.7955 Z" id="Path" fill="#000000"></path>
                <path d="M447.64899,218.20869 C447.15237,204.31263 441.50355,191.09826 431.74506,180.99939 C422.91006,171.85749 411.40968,166.01616 399.02673,164.2752 C397.33971,128.83941 383.4855,94.59402 359.58078,67.13856 C355.71942,62.70246 351.62091,58.47375 347.31222,54.46266 L370.52502,17.42355 C371.21322,16.32429 372.2511,16.16061 372.80817,16.16061 C373.36524,16.16061 374.40126,16.32429 375.09132,17.42355 L409.49388,72.31866 C410.22765,73.4886 409.85472,74.53485 409.56828,75.05286 C409.28184,75.57087 408.59364,76.44228 407.21073,76.44228 L390.04665,76.44228 C385.58358,76.44228 381.96588,80.05998 381.96588,84.52305 C381.96588,88.98612 385.58358,92.60382 390.04665,92.60382 L407.21073,92.60382 C414.06669,92.60382 420.38697,88.87824 423.708,82.87881 C427.02717,76.88124 426.82815,69.54633 423.1872,63.73569 L388.78278,8.84151 C385.31295,3.30522 379.34049,0 372.80631,0 C366.27213,0 360.29967,3.30522 356.82984,8.84244 L334.84557,43.92297 C313.43883,27.47313 288.06657,15.86022 260.96916,10.39368 C249.91239,8.1654 238.56453,10.9833 229.8309,18.13035 C227.70213,19.87224 225.79377,21.81873 224.12535,23.92797 C222.456,21.81873 220.54857,19.87224 218.4198,18.13035 C209.6871,10.9833 198.33738,8.16261 187.28154,10.39368 C159.64287,15.96903 134.47707,27.7047 113.41536,43.94064 L91.41993,8.84151 C87.94917,3.30522 81.97764,0 75.44253,0 C68.90835,0 62.93589,3.30522 59.46699,8.84244 L25.06443,63.73569 C21.42348,69.5454 21.22446,76.88031 24.54363,82.87881 C27.86373,88.87638 34.18401,92.60382 41.0409,92.60382 L56.05017,92.60382 C60.51324,92.60382 64.13094,88.98612 64.13094,84.52305 C64.13094,80.05998 60.51324,76.44228 56.05017,76.44228 L41.03997,76.44228 C39.65892,76.44228 38.97072,75.5718 38.68242,75.05286 C38.39505,74.53392 38.02305,73.4886 38.75682,72.31866 L73.15938,17.42355 C73.84851,16.32429 74.88639,16.16061 75.44253,16.16061 C75.99867,16.16061 77.03562,16.32429 77.72568,17.42355 L100.96452,54.50451 C74.47626,79.22949 56.35521,111.79902 50.83752,147.94626 C50.1642,152.35818 53.19507,156.47994 57.60606,157.15419 C62.01891,157.83123 66.13974,154.79664 66.81399,150.38565 C76.16049,89.16282 125.8569,39.27018 190.47609,26.23437 C196.76196,24.96585 203.21616,26.57196 208.18329,30.63513 C213.17925,34.72248 216.04365,40.78143 216.04365,47.25423 C216.04365,51.7173 219.66135,55.335 224.12442,55.335 C228.58749,55.335 232.20519,51.7173 232.20519,47.25423 C232.20519,40.78143 235.06959,34.72248 240.06555,30.63513 C245.03268,26.56917 251.48502,24.96306 257.77275,26.23437 C327.8157,40.36386 379.32561,97.79322 382.84845,164.33379 C376.87785,165.22287 371.12208,167.06706 365.65926,169.84683 C359.17344,173.14554 353.47626,177.57606 348.70722,183.02772 C346.3785,185.01141 345.28389,188.23758 346.16925,191.37447 L346.2018,191.48979 C347.01555,194.37837 349.3638,196.57875 352.29888,197.20185 C352.85781,197.31996 353.42139,197.37855 353.97939,197.37855 C356.35182,197.37855 358.64055,196.3323 360.19272,194.46393 C363.73509,190.2036 368.03913,186.76725 372.98952,184.24974 C378.65322,181.36767 384.76332,179.89455 391.14777,179.87502 C391.6323,179.87409 392.10567,179.82108 392.56788,179.73831 C393.02451,179.8527 393.49695,179.9364 393.98241,179.96988 C414.29175,181.37046 430.77042,198.42015 431.49861,218.78436 C431.89479,229.87182 427.8837,240.36222 420.2019,248.32395 C412.51545,256.29033 402.18873,260.67621 391.12266,260.67621 C387.45102,260.67621 383.85378,260.18145 380.36907,259.21611 C382.05888,245.02431 383.04189,230.84274 383.04189,220.27329 C383.04189,215.81673 386.6661,212.19252 391.12266,212.19252 C395.57922,212.19252 399.20343,215.81673 399.20343,220.27329 C399.20343,224.73636 402.82113,228.35406 407.2842,228.35406 C411.74727,228.35406 415.36497,224.73636 415.36497,220.27329 C415.36497,206.90547 404.49048,196.03191 391.12359,196.03191 C377.75577,196.03191 366.88221,206.9064 366.88221,220.27329 C366.88221,231.77553 365.63043,247.95009 363.53328,263.53875 C363.53328,263.54061 363.53235,263.54433 363.53235,263.54712 C359.01813,297.11175 351.35772,322.65978 343.54107,330.21975 C327.34698,345.88374 295.0518,355.36416 265.32714,359.83467 C263.49318,360.11088 261.65643,360.37128 259.81875,360.61122 C259.53045,360.64935 259.24215,360.68562 258.95385,360.72189 C256.98318,360.97392 255.01158,361.20921 253.04091,361.42125 C252.90885,361.4352 252.77679,361.44915 252.64473,361.4631 C248.33604,361.91973 244.03479,362.2815 239.7726,362.5419 C235.40997,362.80695 232.04988,366.49254 232.18659,370.86075 C232.18938,370.99095 232.19775,371.12022 232.20612,371.26437 C232.16706,373.36431 231.33006,375.33219 229.84113,376.82298 C228.31593,378.35004 226.28667,379.1889 224.12721,379.1889 C221.96775,379.1889 219.93942,378.34818 218.41329,376.82298 C216.92343,375.33312 216.08643,373.36338 216.0483,371.26251 C216.05667,371.12394 216.06411,370.98444 216.06969,370.84308 C216.21198,366.47673 212.8584,362.78649 208.4967,362.51493 C206.48418,362.39031 204.46143,362.23686 202.43496,362.06667 C202.06203,362.03505 201.68817,362.00157 201.31338,361.96902 C199.64961,361.82394 197.98212,361.66119 196.31277,361.48542 C195.53064,361.40265 194.742,361.3143 193.95243,361.22502 C193.02708,361.12086 192.10173,361.0074 191.17638,360.89394 C189.62886,360.70329 188.0739,360.50241 186.50406,360.28386 C186.28086,360.25224 186.05766,360.22062 185.83539,360.189 C155.40951,355.88496 121.40313,346.36269 104.71428,330.21975 C101.92056,327.51624 96.41217,319.63635 90.91308,297.2187 C90.91308,297.21777 90.91308,297.21777 90.91308,297.21777 C88.5081,287.41557 86.36817,275.77662 84.72486,263.55549 C84.72486,263.5527 84.72486,263.54898 84.72393,263.54619 C82.62585,247.95474 81.37407,231.77739 81.37407,220.27236 C81.37407,206.90454 70.49958,196.03098 57.13269,196.03098 C43.7658,196.03098 32.89131,206.90547 32.89131,220.27236 C32.89131,224.73543 36.50901,228.35313 40.97208,228.35313 C45.43515,228.35313 49.05285,224.73543 49.05285,220.27236 C49.05285,215.8158 52.67706,212.19159 57.13362,212.19159 C61.59018,212.19159 65.21439,215.8158 65.21439,220.27236 C65.21439,230.84181 66.19926,245.02431 67.88721,259.21518 C64.4025,260.18052 60.80526,260.67528 57.13362,260.67528 C46.06755,260.67528 35.74083,256.28847 28.05438,248.32302 C20.37258,240.36222 16.36056,229.87182 16.75767,218.78343 C17.48307,198.50757 33.82038,181.51833 54.00882,179.98848 L56.05575,179.98848 C56.50308,179.98848 56.93832,179.94291 57.36612,179.87316 C63.75987,179.88525 69.88299,181.35651 75.57087,184.24974 C80.5194,186.76725 84.82437,190.2036 88.36581,194.46393 C90.28533,196.77312 93.34131,197.76543 96.28011,197.14047 C99.21612,196.51458 101.58111,194.25282 102.39207,191.36238 C102.60411,190.60629 103.13514,190.22685 103.54248,190.04271 C103.90983,189.87717 104.65197,189.65955 105.50106,190.06503 C122.667,198.27693 140.41326,204.60744 158.61801,209.08167 C155.82429,211.98606 154.09821,215.92647 154.09821,220.27515 C154.09821,229.20036 161.33361,236.43669 170.25975,236.43669 C179.18496,236.43669 186.42036,229.20129 186.42036,220.27515 C186.42036,218.14266 185.99721,216.11247 185.2467,214.24782 C191.74647,215.17317 198.29832,215.85393 204.89388,216.31893 C201.75792,220.40442 199.88676,225.51105 199.88676,231.04827 C199.88676,244.41609 210.76125,255.28965 224.12814,255.28965 C237.49503,255.28965 248.36952,244.41516 248.36952,231.04827 C248.36952,226.5852 244.75182,222.9675 240.28875,222.9675 C235.82568,222.9675 232.20798,226.5852 232.20798,231.04827 C232.20798,235.50483 228.58377,239.12904 224.12721,239.12904 C219.67065,239.12904 216.04644,235.50483 216.04644,231.04827 C216.04644,226.59171 219.67065,222.9675 224.12721,222.9675 C227.87697,222.9675 231.01944,220.41093 231.93177,216.94761 C242.36451,216.68535 252.70704,215.83812 262.94262,214.42824 C262.23768,216.24267 261.83592,218.20869 261.83592,220.27329 C261.83592,229.1985 269.07132,236.4339 277.99746,236.4339 C286.9236,236.4339 294.159,229.1985 294.159,220.27329 C294.159,216.05388 292.52871,212.22507 289.88193,209.34765 C302.97447,206.18844 315.84288,202.06854 328.43043,196.9833 C332.56893,195.31116 334.5675,190.60164 332.89629,186.465 C331.22415,182.3265 326.5137,180.32886 322.37799,181.99914 C291.36528,194.5281 258.54186,200.88093 224.81913,200.88093 C185.4978,200.88093 147.69981,192.33702 112.4742,175.48542 C107.53776,173.12508 101.85081,173.06556 96.87252,175.32174 C95.78535,175.81371 94.76142,176.40426 93.80724,177.08223 C90.48249,174.26991 86.83503,171.85005 82.89741,169.84683 C75.3858,166.02546 67.33293,163.97202 58.93596,163.73394 C58.35564,163.60188 57.75207,163.5312 57.13176,163.5312 C56.38869,163.5312 55.67166,163.64001 54.98811,163.82787 L53.71587,163.82787 C53.5308,163.82787 53.3448,163.83438 53.15973,163.8474 C39.28878,164.80437 26.27343,170.89587 16.50936,180.99846 C6.74994,191.09733 1.10205,204.3117 0.60543,218.20776 C0.05022,233.7183 5.66835,248.39835 16.42287,259.54533 C27.18297,270.69603 41.63982,276.83775 57.13269,276.83775 C61.54647,276.83775 65.88678,276.33462 70.11549,275.3358 C71.58396,284.60232 73.29423,293.22528 75.21654,301.0689 L75.21654,301.06983 C80.21715,321.45171 86.18961,334.78698 93.47895,341.83545 C104.63523,352.6281 121.51938,360.78513 140.28492,366.67854 C138.63696,368.40555 137.04108,370.16697 135.52518,371.96745 C118.53036,392.15124 108.88161,417.79227 108.35709,444.168 C108.26781,448.62921 111.81297,452.31852 116.27604,452.40687 C116.33091,452.4078 116.38485,452.4078 116.43972,452.4078 C120.82839,452.4078 124.42749,448.89519 124.51584,444.48792 C124.96596,421.79871 133.26714,399.74097 147.88767,382.37694 C150.81159,378.90339 154.04892,375.5619 157.51038,372.44547 C157.81821,372.1674 158.0907,371.86701 158.34645,371.55639 C163.19361,372.67332 168.08076,373.65819 172.95303,374.51844 L172.95303,382.99353 C172.95303,388.86462 175.36638,394.30512 179.44071,398.1888 C175.88811,405.2568 177.04596,414.10575 182.93751,419.99637 L215.95809,453.01695 L215.95809,468.07551 C215.95809,472.53858 219.57579,476.15628 224.03886,476.15628 C228.501,476.15628 232.11963,472.53858 232.11963,468.07551 L232.11963,453.19644 L265.3197,419.99637 C271.21125,414.10482 272.36817,405.2568 268.8165,398.1888 C272.89083,394.30326 275.30511,388.86369 275.30511,382.99353 L275.30511,374.55285 C279.94116,373.73631 284.88783,372.75702 289.99539,371.58429 C290.24463,371.88468 290.50968,372.17577 290.80821,372.44547 C293.8614,375.19734 296.76207,378.14823 299.42838,381.21909 C314.3121,398.35806 322.94808,420.28746 323.74509,442.96737 C323.89947,447.33093 327.48369,450.76356 331.81563,450.76356 C331.91142,450.76356 332.00814,450.76263 332.10579,450.75798 C336.56607,450.60081 340.05357,446.85849 339.89733,442.39821 C338.97105,416.0355 328.9317,390.54513 311.63091,370.62174 C310.48236,369.29835 309.28545,368.00472 308.06808,366.72504 C325.54464,361.25571 342.91239,353.3163 354.77919,341.83731 C367.01055,330.00678 374.12412,300.85779 378.1473,275.33766 C382.37508,276.33555 386.71353,276.83868 391.12638,276.83868 C406.61832,276.83868 421.0761,270.69789 431.8362,259.54626 C442.587,248.40114 448.2042,233.72016 447.64899,218.20869 Z M194.68341,377.57442 C195.04797,377.61255 195.41067,377.64696 195.77523,377.68323 C197.29206,377.83761 198.79587,377.97804 200.28852,378.10731 C200.4987,378.12591 200.70981,378.14916 200.91999,378.16683 C201.27339,379.33398 201.71421,380.47137 202.24059,381.57063 L197.38599,386.42523 C195.31767,388.49262 193.00197,387.84999 192.10266,387.47706 C191.20335,387.10413 189.10992,385.92117 189.10992,382.99725 L189.10992,376.94481 C189.3294,376.97178 189.54888,376.99317 189.76836,377.01921 C191.41632,377.21637 193.05777,377.40423 194.68341,377.57442 Z M194.36163,408.57225 C193.31073,407.52135 193.31073,405.81294 194.36163,404.76297 C194.61459,404.51001 194.83965,404.24031 195.05262,403.96317 C200.13135,403.70091 205.05012,401.61585 208.81476,397.85214 L213.69075,392.97615 C214.4301,393.32955 215.18433,393.64389 215.9553,393.91917 L215.9553,430.16592 L194.36163,408.57225 Z M253.88907,408.57225 L232.11591,430.34541 L232.11591,393.98334 C232.95012,393.69225 233.7648,393.35652 234.56088,392.97615 L239.43687,397.85214 C243.17268,401.58888 248.04495,403.67115 253.08462,403.95759 L253.88907,404.76204 C254.93811,405.81294 254.93811,407.52135 253.88907,408.57225 Z M259.13985,376.99503 L259.13985,382.99632 C259.13985,385.92024 257.04642,387.1032 256.14711,387.47613 C255.2478,387.84906 252.9321,388.49355 250.86378,386.4243 L246.00918,381.5697 C246.52998,380.48346 246.96708,379.35909 247.31862,378.20496 C247.78827,378.1659 248.26164,378.11568 248.73129,378.07476 C248.83917,378.06918 248.94612,378.07011 249.05307,378.06081 C250.20999,377.95851 251.55291,377.83017 253.05114,377.67486 C253.20552,377.65905 253.35804,377.64231 253.51242,377.6265 C254.75397,377.4963 256.09317,377.34657 257.53095,377.17638 C258.06849,377.11221 258.6051,377.0592 259.13985,376.99503 Z" id="Shape" fill="#000000" fill-rule="nonzero"></path>
                <path d="M296.71557,395.70477 C292.44408,394.4037 287.93172,396.8124 286.63251,401.0811 C282.68838,414.03507 280.68888,427.51449 280.68888,441.14457 C280.68888,447.5067 281.13807,453.95532 282.02715,460.31094 C282.59073,464.35086 286.05219,467.27571 290.01957,467.27571 C290.39157,467.27571 290.76822,467.24967 291.14673,467.19666 C295.18665,466.63308 298.10964,463.17255 298.1115,459.20703 C298.1115,458.8341 298.08546,458.45745 298.03245,458.07708 C297.24846,452.45988 296.85042,446.76363 296.85042,441.1455 C296.85042,429.11223 298.6137,417.2166 302.09283,405.79062 C302.33184,405.00663 302.4453,404.21427 302.4453,403.43586 C302.4453,399.96882 300.20121,396.7659 296.71557,395.70477 Z" id="Path" fill="#000000"></path>
                <path d="M151.53327,395.70477 C148.04763,396.7659 145.80354,399.96882 145.80447,403.434 C145.80447,404.21334 145.91793,405.00477 146.15694,405.78969 C149.63607,417.21567 151.39935,429.1113 151.39935,441.14457 C151.39935,446.76084 151.00224,452.45709 150.21732,458.07615 C150.16431,458.45652 150.13827,458.83317 150.13827,459.2061 C150.1392,463.17162 153.06219,466.63308 157.10304,467.19573 C157.48248,467.24874 157.8582,467.27478 158.2302,467.27478 C162.19758,467.27478 165.65904,464.35179 166.22262,460.31001 C167.11077,453.95439 167.56089,447.50577 167.56089,441.14364 C167.56089,427.51356 165.56139,414.03414 161.61726,401.08017 C160.31712,396.8124 155.80383,394.40184 151.53327,395.70477 Z" id="Path" fill="#000000"></path>
            </g>
            <g id="lion-svgrepo-com" transform="translate(58.000000, 10.000000)">
                <path d="M502.299,132.211 C500.121,118.759 485.235,111.652 473.5,118.467 L478.247,115.71 C488.228,109.914 491.057,96.641 484.191,87.332 C476.548,76.969 466.334,67.659 452.915,59.671 C451.321,58.723 449.721,57.78 448.07,56.881 C432.429,48.364 416.248,40.987 399.674,34.743 C389.002,30.722 377.001,35.121 371.303,45.049 L365.851,54.548 C373.663,40.938 366.286,23.515 351.078,19.913 C328.3,14.518 305.07,11.112 281.724,9.7 C268.306,8.888 256.997,19.671 256.997,33.193 C256.997,19.671 245.689,8.888 232.27,9.7 C208.922,11.112 185.694,14.518 162.916,19.913 C147.708,23.515 140.332,40.938 148.143,54.548 L142.691,45.049 C136.993,35.121 124.992,30.722 114.32,34.743 C97.746,40.986 81.566,48.363 65.925,56.881 C64.274,57.78 62.673,58.722 61.08,59.671 C47.663,67.659 37.448,76.968 29.804,87.331 C22.938,96.641 25.769,109.914 35.748,115.709 L40.496,118.466 C28.76,111.651 13.875,118.757 11.696,132.21 C6.935,161.614 11.702,194.842 18.083,228.516 C18.092,228.568 18.103,228.62 18.112,228.672 C19.829,237.709 27.767,244.2 36.915,244.2 L46.753,244.2 C33.705,244.2 24.405,256.912 28.256,269.453 C35.34,292.526 44.735,315.609 56.322,337.583 C61.439,347.286 73.597,350.71 83.052,345.218 L83.741,344.817 C73.931,350.515 71.086,363.411 77.513,372.794 C91.38,393.041 107.344,411.585 125.29,427.329 C134.458,435.372 148.661,432.942 154.743,422.346 L152.729,425.855 C147.414,435.116 150.509,446.967 159.673,452.387 C182.541,465.913 207.842,475.047 235.418,478.215 C246.913,479.536 256.995,470.495 256.995,458.857 C256.995,470.495 267.078,479.536 278.572,478.215 C306.146,475.048 331.448,465.913 354.317,452.387 C363.481,446.967 366.577,435.115 361.261,425.855 L359.247,422.346 C365.329,432.942 379.533,435.372 388.7,427.329 C406.647,411.585 422.61,393.041 436.477,372.794 C442.904,363.411 440.06,350.515 430.249,344.817 L430.938,345.218 C440.394,350.71 452.553,347.286 457.668,337.583 C469.255,315.61 478.65,292.527 485.734,269.453 C489.584,256.912 480.286,244.2 467.237,244.2 L477.075,244.2 C486.223,244.2 494.161,237.711 495.878,228.672 C495.887,228.62 495.898,228.568 495.907,228.516 C502.293,194.843 507.061,161.615 502.299,132.211 Z" id="Path" fill="#80531A"></path>
                <g id="Group" opacity="0.4" transform="translate(9.000000, 9.000000)" fill="#9E7325">
                    <path d="M223.272,0.7 C199.924,2.112 176.696,5.517 153.918,10.913 C138.71,14.515 131.333,31.938 139.145,45.548 L247.999,235.2 L247.999,24.192 C247.999,10.671 236.69,-0.111 223.272,0.7 Z" id="Path"></path>
                    <path d="M469.247,106.71 C479.228,100.914 482.057,87.641 475.191,78.331 C467.548,67.968 457.334,58.658 443.915,50.67 C442.321,49.722 440.721,48.779 439.07,47.88 C423.429,39.363 407.248,31.986 390.674,25.742 C380.002,21.721 368.001,26.12 362.303,36.048 L247.997,235.199 L469.247,106.71 Z" id="Path"></path>
                    <path d="M31.498,109.467 C19.762,102.651 4.877,109.758 2.698,123.211 C-2.063,152.615 2.704,185.843 9.085,219.517 C9.094,219.569 9.105,219.621 9.114,219.673 C10.831,228.71 18.769,235.201 27.917,235.201 L247.999,235.201 L31.498,109.467 Z" id="Path"></path>
                    <path d="M68.517,363.794 C82.384,384.041 98.348,402.585 116.294,418.329 C125.462,426.372 139.665,423.942 145.747,413.345 L247.997,235.199 L74.746,335.816 C64.935,341.514 62.09,354.411 68.517,363.794 Z" id="Path"></path>
                    <path d="M448.673,328.582 C460.26,306.609 469.655,283.526 476.739,260.452 C480.589,247.911 471.291,235.199 458.242,235.199 L247.999,235.199 L421.942,336.216 C431.398,341.708 443.556,338.285 448.673,328.582 Z" id="Path"></path>
                    <path d="M269.576,469.216 C297.15,466.049 322.452,456.914 345.321,443.388 C354.485,437.968 357.581,426.116 352.265,416.856 L247.999,235.199 L247.999,449.858 C247.999,461.495 258.081,470.536 269.576,469.216 Z" id="Path"></path>
                </g>
                <path d="M397.322,34.009 C394.942,34.343 392.567,35.134 390.308,36.446 L395.055,33.689 C395.118,33.653 395.173,33.608 395.235,33.571 C385.834,32.044 376.223,36.48 371.305,45.048 L365.853,54.547 C373.665,40.937 366.288,23.514 351.08,19.912 C328.302,14.517 305.072,11.111 281.726,9.699 C268.308,8.888 257,19.671 257,33.192 C257,19.669 245.692,8.887 232.273,9.699 C208.925,11.111 185.697,14.517 162.919,19.912 C147.711,23.514 140.335,40.937 148.146,54.547 L142.694,45.048 C136.996,35.12 124.996,30.721 114.323,34.742 C97.748,40.986 81.568,48.363 65.926,56.882 C64.275,57.781 62.674,58.723 61.081,59.672 C47.664,67.658 37.449,76.969 29.805,87.332 C22.939,96.642 25.77,109.915 35.749,115.71 L40.497,118.467 C28.761,111.652 13.876,118.758 11.697,132.211 C6.936,161.615 11.703,194.843 18.084,228.517 C18.093,228.569 18.104,228.621 18.113,228.673 C19.83,237.71 27.768,244.201 36.916,244.201 L46.754,244.201 C33.706,244.201 24.406,256.913 28.257,269.454 C35.341,292.527 44.736,315.61 56.323,337.584 C58.526,341.76 62.036,344.765 66.071,346.405 C68.23,344.845 70.123,342.823 71.555,340.328 L69.541,343.837 C68.934,344.894 68.451,345.987 68.06,347.099 C72.921,348.482 78.327,347.966 83.054,345.22 L83.743,344.819 C74.868,349.973 71.721,361.013 75.956,370.02 C76.135,370.134 76.3,370.261 76.484,370.37 C99.352,383.896 124.653,393.03 152.229,396.198 C163.724,397.519 173.806,388.478 173.806,376.84 C173.806,388.478 183.889,397.517 195.383,396.198 C222.957,393.031 248.259,383.896 271.128,370.37 C280.292,364.95 283.388,353.098 278.072,343.838 L276.058,340.329 C282.14,350.925 296.344,353.355 305.511,345.312 C323.458,329.568 339.421,311.024 353.288,290.777 C359.715,281.394 356.871,268.498 347.06,262.8 L347.749,263.201 C357.205,268.693 369.363,265.269 374.479,255.566 C386.066,233.593 395.461,210.51 402.545,187.436 C406.395,174.895 397.097,162.183 384.048,162.183 L393.886,162.183 C403.034,162.183 410.972,155.694 412.689,146.655 C412.698,146.603 412.709,146.551 412.718,146.499 C419.099,112.825 423.866,79.597 419.105,50.193 C418.518,46.569 417.003,43.411 414.882,40.857 C409.851,38.716 404.783,36.67 399.673,34.744 C398.898,34.449 398.112,34.213 397.322,34.009 Z" id="Path" fill="#FEFBE1" opacity="0.1"></path>
                <path d="M402.301,187.871 C426.363,182.981 444.474,161.708 444.474,136.202 C444.474,107.081 420.867,83.475 391.747,83.475 C371.201,83.475 353.413,95.234 344.712,112.381 C320.242,92.519 290.829,79.977 256.999,79.96 C164.451,80.01 104.904,173.719 89.422,254.936 C80.537,301.549 76.103,346.943 119.58,372.673 C120.698,373.334 121.82,373.991 122.978,374.618 C164.116,396.889 210.556,408.028 256.998,408.04 C303.44,408.028 349.881,396.888 391.018,374.618 C392.176,373.991 393.298,373.334 394.416,372.673 C437.893,346.943 433.459,301.55 424.574,254.936 C420.355,232.792 412.85,209.721 402.301,187.871 Z" id="Path" fill="#AD712C"></path>
                <path d="M356.616,231.502 C345.91,175.34 314.129,113.213 264.94,80.205 C262.32,80.049 259.674,79.961 256.999,79.96 C223.17,79.979 193.757,92.521 169.286,112.381 C160.584,95.233 142.796,83.475 122.251,83.475 C93.13,83.475 69.524,107.082 69.524,136.202 C69.524,161.708 87.634,182.982 111.697,187.871 C101.148,209.721 93.643,232.791 89.423,254.937 C80.538,301.55 76.104,346.944 119.581,372.674 C120.699,373.335 121.821,373.992 122.979,374.619 C125.529,375.999 128.098,377.335 130.688,378.63 C149.875,382.593 169.454,384.602 189.04,384.607 C235.482,384.595 281.923,373.455 323.06,351.185 C324.218,350.558 325.34,349.901 326.458,349.24 C369.935,323.508 365.501,278.114 356.616,231.502 Z" id="Path" fill="#C98A2E"></path>
                <path d="M256.999,302.586 L225.759,337.516 C234.051,344.938 244.995,349.455 256.999,349.455 C269.003,349.455 279.947,344.937 288.239,337.516 L256.999,302.586 Z" id="Path" fill="#AD712C"></path>
                <g id="Group" transform="translate(163.000000, 150.000000)" fill="#D5A150">
                    <path d="M70.564,129.151 L45.333,154.382 C33.582,166.133 40.878,186.737 57.47,187.697 C57.926,187.724 58.385,187.737 58.847,187.737 C78.261,187.737 93.999,172 93.999,152.585 L93.999,129.151 L70.564,129.151 Z" id="Path"></path>
                    <path d="M117.433,129.151 L142.664,154.382 C154.415,166.133 147.119,186.737 130.527,187.697 C130.071,187.724 129.612,187.737 129.15,187.737 C109.736,187.737 93.998,172 93.998,152.585 L93.998,129.151 L117.433,129.151 Z" id="Path"></path>
                    <path d="M117.433,94.409 L117.433,94 L187.736,94 C187.736,42.23 145.769,0.263 93.998,0.263 C42.227,0.263 0.261,42.23 0.261,94 L70.564,94 L70.564,94.409 C70.564,107.338 68.163,120.053 65,132.588 C64.807,133.354 64.706,134.162 64.706,135.01 L123.292,135.01 C123.292,134.162 123.192,133.354 122.998,132.588 C119.835,120.053 117.433,107.338 117.433,94.409 Z" id="Path"></path>
                </g>
                <path d="M286.292,285.01 C286.292,294.717 256.999,302.586 256.999,302.586 C256.999,302.586 227.706,294.717 227.706,285.01 C227.706,275.303 240.821,270.949 256.999,270.949 C273.177,270.949 286.292,275.304 286.292,285.01 Z" id="Path" fill="#BD7155"></path>
                <g id="Group" transform="translate(139.000000, 273.000000)" fill="#D5A150">
                    <path d="M21.332,17.869 L9.615,17.869 C4.761,17.869 0.827,13.934 0.827,9.081 C0.827,4.228 4.76,0.293 9.615,0.293 L21.332,0.293 C26.186,0.293 30.12,4.228 30.12,9.081 C30.12,13.934 26.186,17.869 21.332,17.869 Z" id="Path"></path>
                    <path d="M226.383,17.869 L214.666,17.869 C209.812,17.869 205.878,13.934 205.878,9.081 C205.878,4.228 209.811,0.293 214.666,0.293 L226.383,0.293 C231.237,0.293 235.171,4.228 235.171,9.081 C235.17,13.934 231.237,17.869 226.383,17.869 Z" id="Path"></path>
                </g>
                <g id="Group" transform="translate(163.000000, 208.000000)" fill="#DFCE4E">
                    <path d="M35.413,0.848 C16.03,0.848 0.261,16.617 0.261,36 C0.261,55.383 16.03,71.152 35.413,71.152 C54.796,71.152 70.565,55.383 70.565,36 C70.565,16.617 54.795,0.848 35.413,0.848 Z" id="Path"></path>
                    <path d="M152.585,0.848 C133.202,0.848 117.433,16.617 117.433,36 C117.433,55.383 133.202,71.152 152.585,71.152 C171.968,71.152 187.737,55.383 187.737,36 C187.737,16.617 171.967,0.848 152.585,0.848 Z" id="Path"></path>
                </g>
                <circle id="Oval" fill="#915729" opacity="0.5" cx="391.744" cy="136.198" r="17.576"></circle>
                <circle id="Oval" fill="#AD712C" cx="122.249" cy="136.198" r="17.576"></circle>
                <path d="M510.974,130.806 C509.484,121.606 503.582,113.741 495.184,109.767 C495.005,109.683 494.823,109.598 494.643,109.517 C495.292,107.927 495.799,106.27 496.153,104.563 C497.781,96.717 495.998,88.535 491.263,82.115 C482.675,70.47 471.286,60.38 457.406,52.115 C455.81,51.165 454.098,50.156 452.273,49.161 C436.474,40.557 419.819,32.939 402.774,26.518 C393.233,22.924 382.988,24.144 374.804,29.175 C370.648,20.125 362.777,13.652 353.105,11.361 C329.975,5.882 306.139,2.372 282.257,0.928 C273.384,0.393 264.9,3.465 258.396,9.588 C257.914,10.041 257.448,10.508 256.998,10.987 C256.548,10.508 256.082,10.039 255.6,9.587 C249.096,3.466 240.614,0.395 231.74,0.928 C207.858,2.372 184.021,5.883 160.891,11.361 C151.218,13.652 143.349,20.124 139.192,29.173 C131.008,24.142 120.761,22.922 111.222,26.517 C94.177,32.939 77.523,40.557 61.722,49.162 C59.898,50.157 58.187,51.166 56.586,52.117 C42.711,60.378 31.32,70.47 22.733,82.114 C17.997,88.534 16.216,96.717 17.843,104.563 C18.197,106.269 18.705,107.926 19.355,109.516 C19.173,109.597 18.993,109.681 18.812,109.767 C10.415,113.741 4.514,121.606 3.023,130.805 C-1.997,161.811 3.146,196.877 9.455,230.173 L9.482,230.311 C11.016,238.383 15.96,245.093 22.653,249.07 C18.481,255.969 17.452,264.195 19.858,272.031 C27.289,296.233 36.943,319.666 48.552,341.681 C52.141,348.486 58.192,353.405 65.589,355.528 C65.706,355.561 65.822,355.595 65.939,355.626 C64.278,363.255 65.85,371.309 70.266,377.759 C85.051,399.346 101.615,418.247 119.499,433.934 C125.652,439.332 133.755,441.742 141.83,440.616 C143.245,448.44 147.898,455.629 155.204,459.949 C180.119,474.686 206.771,483.768 234.419,486.944 C242.367,487.856 250.35,485.321 256.327,479.991 C256.554,479.787 256.779,479.581 257,479.372 C257.22,479.582 257.444,479.787 257.673,479.991 C262.85,484.606 269.531,487.127 276.388,487.127 C277.45,487.127 278.516,487.066 279.581,486.944 C307.229,483.767 333.881,474.685 358.795,459.949 C366.101,455.628 370.755,448.44 372.17,440.616 C380.249,441.749 388.348,439.332 394.501,433.934 C412.385,418.245 428.95,399.345 443.734,377.759 C448.15,371.31 449.723,363.255 448.061,355.626 C448.178,355.594 448.294,355.56 448.411,355.528 C455.808,353.404 461.859,348.485 465.449,341.679 C477.058,319.662 486.712,296.228 494.142,272.031 C496.147,265.5 495.759,258.703 493.161,252.624 C496.804,251.552 499.466,248.188 499.466,244.198 C499.466,243.476 499.369,242.778 499.205,242.106 C501.813,238.729 503.679,234.725 504.518,230.31 C504.518,230.309 504.547,230.152 504.547,230.152 C510.851,196.878 515.994,161.812 510.974,130.806 Z M373.474,58.921 C373.481,58.908 373.488,58.896 373.495,58.885 L374.689,56.804 L378.926,49.421 C378.926,49.421 378.927,49.417 378.928,49.416 C382.513,43.175 389.934,40.461 396.576,42.965 C412.865,49.101 428.776,56.38 443.864,64.596 C445.42,65.444 446.969,66.358 448.418,67.219 C460.271,74.275 469.926,82.797 477.116,92.545 C478.917,94.987 479.565,97.986 478.942,100.992 C478.31,104.034 476.495,106.561 473.831,108.109 L451.388,121.143 C444.653,94.481 420.47,74.686 391.744,74.686 C379.886,74.686 368.628,78.056 359.027,84.088 L373.474,58.921 Z M155.024,36.831 C156.868,32.569 160.484,29.521 164.944,28.464 C187.094,23.217 209.926,19.855 232.804,18.473 C236.804,18.226 240.617,19.62 243.556,22.387 C246.559,25.213 248.212,29.052 248.212,33.195 L248.212,56.527 C248.212,61.381 252.147,65.315 257,65.315 C261.853,65.315 265.788,61.382 265.788,56.527 L265.788,33.192 C265.788,29.05 267.441,25.21 270.444,22.384 C273.382,19.619 277.187,18.227 281.197,18.47 C304.074,19.854 326.906,23.215 349.056,28.461 C353.516,29.517 357.131,32.567 358.976,36.828 C360.866,41.193 360.595,46.055 358.233,50.17 L333.376,93.476 C309.779,78.687 284.172,71.185 256.994,71.17 C229.824,71.185 204.219,78.685 180.621,93.476 L155.771,50.181 C155.769,50.177 155.767,50.174 155.766,50.17 C153.405,46.058 153.134,41.194 155.024,36.831 Z M36.878,92.547 C44.068,82.799 53.723,74.278 65.572,67.224 C67.025,66.36 68.574,65.445 70.128,64.599 C85.219,56.382 101.129,49.103 117.419,42.967 C124.061,40.464 131.485,43.18 135.07,49.423 L140.501,58.886 C140.507,58.895 140.512,58.905 140.517,58.914 C140.519,58.918 140.521,58.92 140.522,58.923 L154.967,84.089 C145.366,78.057 134.108,74.687 122.25,74.687 C93.524,74.687 69.341,94.481 62.606,121.143 L44.915,110.87 C44.914,110.869 44.911,110.868 44.91,110.866 C44.901,110.86 44.89,110.854 44.881,110.848 L40.162,108.107 C37.498,106.559 35.683,104.032 35.051,100.991 C34.43,97.989 35.077,94.989 36.878,92.547 Z M147.127,417.971 C147.123,417.977 147.121,417.983 147.119,417.987 L147.115,417.992 C145.517,420.761 142.805,422.648 139.671,423.169 C136.533,423.699 133.483,422.822 131.089,420.724 C114.308,406.003 98.721,388.205 84.766,367.828 C83.037,365.304 82.455,362.271 83.128,359.289 C83.68,356.847 85.018,354.754 86.938,353.255 C93.543,364.061 102.88,373.003 115.104,380.237 C116.187,380.878 117.454,381.622 118.793,382.347 C131.235,389.083 144.23,394.862 157.631,399.667 L147.127,417.971 Z M349.846,444.824 C327.07,458.295 302.753,466.592 277.573,469.485 C274.555,469.832 271.644,468.904 269.369,466.876 C267.06,464.816 265.787,461.969 265.787,458.858 L265.787,432.647 C265.787,427.793 261.852,423.859 256.999,423.859 C252.146,423.859 248.211,427.792 248.211,432.647 L248.211,458.858 C248.211,461.968 246.94,464.816 244.629,466.876 C242.354,468.903 239.441,469.838 236.425,469.485 C211.245,466.592 186.928,458.295 164.151,444.824 C159.141,441.861 157.437,435.313 160.355,430.23 L162.346,426.762 C162.354,426.748 162.362,426.735 162.369,426.721 L162.37,426.72 L174.722,405.199 C201.168,412.857 228.92,416.821 257.001,416.829 C285.079,416.822 312.83,412.858 339.274,405.2 L353.642,430.231 C356.56,435.313 354.857,441.861 349.846,444.824 Z M429.231,367.828 C415.276,388.205 399.691,406.001 382.909,420.723 C380.515,422.824 377.469,423.694 374.326,423.17 C371.193,422.65 368.481,420.762 366.883,417.993 L366.883,417.992 L356.366,399.667 C369.767,394.862 382.761,389.082 395.205,382.345 C396.543,381.621 397.811,380.877 398.895,380.235 C411.118,373.001 420.455,364.059 427.06,353.254 C428.979,354.754 430.319,356.845 430.87,359.288 C431.541,362.271 430.96,365.304 429.231,367.828 Z M487.25,227.032 C486.328,231.888 482.05,235.411 477.081,235.411 L467.243,235.411 L446.818,235.411 C441.965,235.411 438.03,239.344 438.03,244.199 C438.03,249.054 441.965,252.987 446.818,252.987 L467.243,252.987 C470.609,252.987 473.696,254.55 475.71,257.275 C477.764,260.055 478.359,263.553 477.34,266.871 C470.232,290.023 461,312.433 449.902,333.482 C448.566,336.014 446.313,337.845 443.559,338.635 C440.777,339.435 437.864,339.072 435.36,337.618 C435.359,337.617 435.358,337.617 435.356,337.616 L435.154,337.499 L434.677,337.221 C434.673,337.219 434.671,337.217 434.668,337.215 C434.664,337.213 434.66,337.211 434.656,337.209 L434.459,337.094 C435.91,332.643 437.033,327.952 437.814,323.002 C441.269,301.091 437.643,276.548 433.208,253.288 C428.754,229.922 420.803,205.978 410.215,184.048 C410.214,184.046 410.211,184.042 410.21,184.04 C402.745,168.483 394.273,154.303 385.07,141.944 C382.388,138.287 382.597,132.923 385.533,129.985 C387.193,128.326 389.4,127.412 391.747,127.412 C394.094,127.412 396.3,128.326 397.961,129.985 C401.393,133.418 406.957,133.417 410.389,129.986 C413.821,126.554 413.821,120.99 410.389,117.559 C405.409,112.579 398.789,109.836 391.747,109.836 C384.705,109.836 378.085,112.579 373.105,117.558 C363.991,126.672 363.042,141.623 370.935,152.39 C379.51,163.904 387.396,177.12 394.378,191.671 C394.379,191.675 394.382,191.678 394.384,191.682 C394.385,191.686 394.386,191.688 394.387,191.691 C404.317,212.261 411.771,234.699 415.942,256.581 C424.35,300.689 428.688,342.179 389.943,365.109 C388.92,365.715 387.894,366.316 386.836,366.89 C372.195,374.816 356.74,381.342 340.725,386.407 C340.696,386.416 340.665,386.426 340.636,386.435 C313.92,394.874 285.646,399.245 257.001,399.252 C228.343,399.245 200.059,394.871 173.333,386.426 C173.326,386.424 173.319,386.421 173.313,386.419 C157.284,381.352 141.815,374.821 127.163,366.89 C126.104,366.316 125.077,365.714 124.056,365.109 C85.31,342.177 89.647,300.688 98.056,256.58 C102.227,234.698 109.681,212.26 119.621,191.671 C126.602,177.121 134.489,163.905 143.103,152.338 C150.957,141.624 150.007,126.674 140.894,117.56 C135.914,112.58 129.294,109.837 122.252,109.837 C115.21,109.837 108.59,112.58 103.61,117.56 C100.178,120.992 100.179,126.556 103.61,129.987 C107.043,133.418 112.606,133.419 116.038,129.986 C117.698,128.327 119.905,127.413 122.252,127.413 C124.599,127.413 126.805,128.327 128.466,129.987 C131.402,132.923 131.61,138.287 128.967,141.892 C119.719,154.311 111.242,168.501 103.783,184.049 C93.195,205.979 85.244,229.922 80.79,253.289 C76.356,276.549 72.73,301.092 76.184,323.003 C76.964,327.954 78.088,332.643 79.539,337.094 L79.332,337.215 C79.331,337.215 79.331,337.216 79.33,337.216 C79.326,337.218 79.324,337.22 79.321,337.222 L78.643,337.617 C76.137,339.072 73.224,339.438 70.441,338.636 C67.686,337.845 65.434,336.015 64.098,333.483 C53,312.439 43.768,290.027 36.658,266.873 C35.639,263.555 36.234,260.057 38.289,257.275 C40.303,254.551 43.388,252.988 46.755,252.988 L68.325,252.988 C73.178,252.988 77.113,249.055 77.113,244.2 C77.113,239.346 73.178,235.412 68.325,235.412 L46.756,235.412 L36.918,235.412 C31.949,235.412 27.671,231.887 26.749,227.033 L18.116,228.672 L26.721,226.88 C20.715,195.18 15.788,161.942 20.374,133.615 C20.947,130.075 23.118,127.174 26.331,125.653 C29.493,124.159 33.044,124.303 36.071,126.058 L36.083,126.065 L60.9,140.479 C62.048,157.067 69.825,172.487 82.662,183.289 C86.378,186.415 91.92,185.938 95.044,182.224 C98.169,178.511 97.692,172.967 93.979,169.842 C84.021,161.463 78.31,149.202 78.31,136.204 C78.31,111.975 98.021,92.265 122.249,92.265 C138.886,92.265 153.906,101.498 161.449,116.359 C162.65,118.727 164.859,120.426 167.456,120.978 C170.051,121.53 172.76,120.88 174.824,119.205 C199.703,99.012 227.353,88.765 256.993,88.749 C286.642,88.765 314.291,99.012 339.171,119.205 C341.232,120.879 343.942,121.529 346.539,120.978 C349.137,120.425 351.345,118.727 352.546,116.359 C360.088,101.497 375.109,92.265 391.746,92.265 C415.975,92.265 435.685,111.976 435.685,136.204 C435.685,149.516 429.746,161.965 419.389,170.36 C415.618,173.415 415.04,178.949 418.095,182.72 C419.831,184.862 422.368,185.974 424.927,185.974 C426.871,185.974 428.828,185.332 430.455,184.013 C443.834,173.171 451.929,157.485 453.097,140.478 L477.912,126.067 L477.913,126.067 C480.943,124.308 484.497,124.156 487.665,125.655 C490.878,127.176 493.05,130.077 493.622,133.617 L493.622,133.616 C498.209,161.945 493.282,195.183 487.275,226.882 L495.909,228.518 L487.25,227.032 Z" id="Shape" fill="#000000" fill-rule="nonzero"></path>
                <path d="M198.413,264.505 C203.266,264.505 207.201,260.572 207.201,255.717 L207.201,232.283 C207.201,227.429 203.266,223.495 198.413,223.495 C193.56,223.495 189.625,227.428 189.625,232.283 L189.625,255.717 C189.625,260.572 193.559,264.505 198.413,264.505 Z" id="Path" fill="#000000"></path>
                <path d="M306.797,232.283 L306.797,255.717 C306.797,260.571 310.732,264.505 315.585,264.505 C320.438,264.505 324.373,260.572 324.373,255.717 L324.373,232.283 C324.373,227.429 320.438,223.495 315.585,223.495 C310.731,223.495 306.797,227.429 306.797,232.283 Z" id="Path" fill="#000000"></path>
                <path d="M315.585,200.06 C291.356,200.06 271.646,219.771 271.646,243.999 L271.646,244.408 C271.646,256.16 273.402,268.434 277.323,284.112 C274.744,286.731 265.895,290.797 256.997,293.451 C248.429,290.893 239.649,286.891 236.841,284.283 C238.026,282.891 242.287,280.794 250.387,280.031 C255.219,279.575 258.767,275.289 258.311,270.457 C257.855,265.625 253.563,262.086 248.738,262.533 C245.83,262.807 243.217,263.222 240.842,263.74 C241.865,256.877 242.351,250.57 242.351,244.408 L242.351,243.999 C242.351,219.77 222.64,200.06 198.412,200.06 C186.824,200.06 175.882,204.55 167.603,212.702 C164.144,216.107 164.101,221.672 167.506,225.129 C170.91,228.587 176.473,228.629 179.933,225.226 C184.905,220.331 191.466,217.634 198.412,217.634 C212.95,217.634 224.776,229.461 224.776,243.998 L224.776,244.407 C224.776,254.807 223.141,265.919 219.479,280.437 C219.457,280.524 219.446,280.609 219.427,280.696 C219.037,282.349 218.917,283.839 218.917,285.009 C218.917,296.939 234.508,304.594 247.442,308.892 C244.608,320.392 234.21,328.948 221.846,328.948 C221.553,328.948 221.264,328.939 220.977,328.923 C215.122,328.583 212.827,324.176 212.112,322.298 C210.877,319.052 210.868,314.275 214.548,310.596 C217.061,308.082 217.814,304.303 216.453,301.018 C215.093,297.734 211.888,295.593 208.334,295.593 L191.383,295.593 C186.53,295.593 182.595,299.526 182.595,304.381 C182.595,309.235 186.53,313.169 191.383,313.169 L194.202,313.169 C193.293,318.185 193.754,323.474 195.687,328.551 C199.652,338.966 208.953,345.831 219.964,346.469 C220.587,346.505 221.215,346.524 221.847,346.524 C236.205,346.524 248.976,339.6 256.999,328.918 C265.022,339.601 277.792,346.524 292.151,346.524 C292.784,346.524 293.411,346.505 294.036,346.469 C305.045,345.832 314.347,338.966 318.312,328.551 C320.244,323.474 320.706,318.185 319.797,313.169 L321.836,313.169 C326.689,313.169 330.624,309.236 330.624,304.381 C330.624,299.527 326.689,295.593 321.836,295.593 L305.665,295.593 C302.11,295.593 298.907,297.734 297.546,301.018 C296.186,304.302 296.938,308.081 299.451,310.596 C303.131,314.276 303.122,319.053 301.887,322.298 C301.172,324.177 298.876,328.583 293.023,328.923 C292.735,328.939 292.444,328.948 292.152,328.948 C279.788,328.948 269.391,320.392 266.556,308.892 C279.489,304.594 295.081,296.94 295.081,285.009 C295.081,283.451 294.892,281.912 294.52,280.438 C290.856,265.919 289.223,254.808 289.223,244.408 L289.223,243.999 C289.223,229.463 301.049,217.635 315.587,217.635 C322.763,217.635 329.48,220.489 334.503,225.669 C337.881,229.154 343.444,229.242 346.929,225.862 C350.414,222.484 350.5,216.921 347.122,213.436 C338.758,204.812 327.558,200.06 315.585,200.06 Z" id="Path" fill="#000000"></path>
            </g>
            <g id="User-Copy-2" transform="translate(681.000000, 562.000000)">
                <circle id="Oval" stroke="#979797" stroke-width="20" fill="#D8D8D8" fill-rule="nonzero" cx="265.5" cy="265.5" r="265.5"></circle>
                <g id="assistant-circus-svgrepo-com" transform="translate(42.000000, 10.000000)">
                    <path d="M56.823,266.089 C56.823,296.188 51.317,325.891 40.715,353.771 C32.681,374.9 48.389,397.514 70.993,397.514 L224,397.514 L288.713,328.285 L224,266.088 L56.823,266.088 L56.823,266.089 Z" id="Path" fill="#848075"></path>
                    <path d="M407.285,353.771 C396.683,325.89 391.177,296.188 391.177,266.089 L224.001,266.089 L224.001,397.515 L377.007,397.515 C399.61,397.516 415.319,374.9 407.285,353.771 Z" id="Path" fill="#706B63"></path>
                    <path d="M305.701,420.022 C300.815,414.294 295.317,409.117 289.298,404.594 C288.479,403.979 287.665,403.359 286.834,402.763 C269.14,390.059 247.444,382.574 224,382.574 L180.858,447.287 L224,512 C246.39,512 268.081,509.016 288.713,503.455 C288.714,503.456 288.714,503.456 288.715,503.457 C292.343,502.479 295.938,501.422 299.498,500.286 C306.842,497.942 314.04,495.275 321.069,492.283 L321.069,490.43 L321.069,463.987 L321.069,461.729 C321.07,446.44 315.621,431.654 305.701,420.022 Z" id="Path" fill="#E1B872"></path>
                    <path d="M161.166,402.762 C160.533,403.217 159.911,403.686 159.287,404.154 C152.948,408.917 147.145,414.355 141.999,420.373 C141.94,420.443 141.88,420.512 141.82,420.582 C132.08,432.033 126.931,446.692 126.931,461.726 L126.931,463.955 L126.931,492.281 C133.96,495.273 141.158,497.94 148.502,500.284 C152.062,501.421 155.657,502.477 159.285,503.455 C159.286,503.454 159.286,503.454 159.287,503.453 C160.429,503.76 161.576,504.058 162.724,504.349 C182.325,509.332 202.85,511.998 224,511.998 L224,382.572 C200.555,382.573 178.86,390.057 161.166,402.762 Z" id="Path" fill="#F8E5B5"></path>
                    <polygon id="Path" fill="#BD7155" points="224 391.483 168.061 460.348 224 491.42 279.939 460.348"></polygon>
                    <path d="M251.6,446.213 C248.011,446.154 244.533,446.596 241.234,447.475 C235.58,448.981 229.789,449.733 224,449.733 L200.272,483.957 L224,512 C246.391,512 268.081,509.016 288.713,503.455 L288.713,501.215 L288.713,500.912 L288.713,485.037 L288.713,484.734 C288.713,464.307 272.023,446.55 251.6,446.213 Z" id="Path" fill="#8D472E"></path>
                    <path d="M206.765,447.475 C203.466,446.596 199.99,446.154 196.399,446.213 C185.064,446.4 174.881,451.952 168.06,460.347 C162.591,467.08 159.285,475.642 159.285,484.732 L159.285,485.035 L159.285,500.91 L159.285,501.213 L159.285,503.453 C179.918,509.014 201.609,511.998 223.998,511.998 L223.998,449.732 C218.21,449.734 212.42,448.981 206.765,447.475 Z" id="Path" fill="#AB5034"></path>
                    <path d="M391.176,215.397 C383.262,215.397 375.797,217.304 369.196,220.664 C351.758,154.7 296.882,95.526 230.987,91.584 C228.67,91.445 226.343,91.365 224,91.365 C222.995,91.365 221.993,91.381 220.992,91.406 C220.655,91.415 220.319,91.43 219.982,91.442 C219.323,91.465 218.665,91.489 218.008,91.524 C217.599,91.546 217.19,91.57 216.782,91.596 C216.201,91.632 215.62,91.671 215.04,91.716 C214.601,91.749 214.163,91.785 213.725,91.824 C213.18,91.873 212.636,91.925 212.092,91.981 C211.635,92.027 211.177,92.074 210.721,92.126 C210.211,92.184 209.703,92.25 209.195,92.315 C208.713,92.376 208.231,92.434 207.751,92.502 C207.347,92.558 206.944,92.624 206.541,92.684 C205.377,92.859 204.218,93.05 203.063,93.259 C202.793,93.308 202.522,93.353 202.252,93.404 C201.604,93.526 200.958,93.657 200.312,93.79 C200.026,93.848 199.74,93.905 199.456,93.966 C198.796,94.106 198.138,94.253 197.481,94.405 C197.229,94.463 196.975,94.521 196.723,94.582 C196.032,94.746 195.341,94.914 194.653,95.09 C194.473,95.135 194.294,95.184 194.114,95.23 C189.887,96.329 185.723,97.648 181.632,99.179 L181.631,99.179 C145.941,112.528 115.729,141.761 96.296,177.126 C96.29,177.128 96.283,177.13 96.277,177.132 C96.144,177.373 96.022,177.618 95.891,177.86 C95.132,179.257 94.383,180.66 93.657,182.074 C93.579,182.226 93.501,182.377 93.423,182.529 C92.604,184.136 91.807,185.754 91.033,187.383 C90.947,187.564 90.862,187.746 90.775,187.928 C90,189.572 89.245,191.224 88.515,192.887 C88.469,192.993 88.424,193.098 88.379,193.203 C87.627,194.927 86.897,196.66 86.196,198.403 C86.194,198.407 86.193,198.412 86.191,198.416 C85.514,200.102 84.865,201.797 84.237,203.499 C84.156,203.717 84.074,203.935 83.994,204.154 C83.401,205.776 82.832,207.406 82.284,209.042 C82.191,209.319 82.1,209.597 82.008,209.875 C81.47,211.507 80.951,213.145 80.458,214.788 C80.389,215.018 80.323,215.249 80.255,215.479 C79.747,217.197 79.257,218.92 78.801,220.647 C78.8,220.649 78.8,220.652 78.799,220.655 L181.427,404.137 C194.403,411.173 209.022,414.935 224,414.935 C245.928,414.935 267.092,406.881 283.448,392.277 C308.049,370.31 343.459,335.6 362.214,302.885 C370.299,308.907 380.321,312.472 391.176,312.472 C417.981,312.472 439.711,290.742 439.711,263.937 C439.71,237.129 417.981,215.397 391.176,215.397 Z" id="Path" fill="#ECCE93"></path>
                    <path d="M305.43,302.513 C305.43,284.27 289.128,270.332 271.111,273.201 C267.101,273.84 263.074,274.395 259.032,274.867 C257.477,275.048 255.896,275.141 254.333,275.141 C235.072,275.141 218.392,261.41 214.671,242.49 L207.353,205.283 C207.34,205.215 207.326,205.147 207.313,205.079 C205.545,196.191 194.709,192.548 187.884,198.511 C166.529,217.167 141.184,231.361 113.301,239.603 C106.616,241.579 99.297,239.421 94.986,233.943 C90.638,228.42 85.117,223.864 78.799,220.649 C78.798,220.652 78.797,220.657 78.796,220.66 C71.254,216.823 62.583,214.882 53.404,215.515 C28.823,217.21 9.2,237.528 8.32,262.153 C7.333,289.769 29.427,312.468 56.823,312.468 C67.679,312.468 77.701,308.902 85.785,302.881 C104.54,335.596 139.95,370.306 164.551,392.273 C169.736,396.902 175.406,400.868 181.426,404.133 C203.15,403.994 224.09,395.966 240.304,381.488 C257.678,365.974 280.444,344.103 298.926,321.067 C303.148,315.806 305.43,309.257 305.43,302.513 Z" id="Path" fill="#F8E5B5"></path>
                    <circle id="Oval" fill="#E1B872" cx="391.171" cy="263.933" r="16.178"></circle>
                    <circle id="Oval" fill="#ECCE93" cx="56.819" cy="263.933" r="16.178"></circle>
                    <g id="Group" transform="translate(127.000000, 277.000000)" fill="#DFB296">
                        <path d="M19.344,16.592 L8.558,16.592 C4.09,16.592 0.469,12.97 0.469,8.503 C0.469,4.036 4.09,0.414 8.558,0.414 L19.344,0.414 C23.812,0.414 27.433,4.036 27.433,8.503 C27.433,12.971 23.812,16.592 19.344,16.592 Z" id="Path"></path>
                        <path d="M185.441,16.592 L174.655,16.592 C170.187,16.592 166.566,12.97 166.566,8.503 C166.566,4.036 170.187,0.414 174.655,0.414 L185.441,0.414 C189.909,0.414 193.53,4.036 193.53,8.503 C193.53,12.971 189.91,16.592 185.441,16.592 Z" id="Path"></path>
                    </g>
                    <rect id="Rectangle" fill="#848075" x="72.997" y="194.906" width="45.299" height="161.783"></rect>
                    <g id="Group" transform="translate(197.000000, 46.000000)" fill="#706B63">
                        <rect id="Rectangle" x="132.694" y="148.906" width="45.299" height="161.783"></rect>
                        <path d="M153.77,32.844 C131.81,18.088 105.435,7.112 76.293,1.219 C72.501,0.452 68.609,0.064 64.73,0.064 C50.366,0.064 37.132,5.225 27,13.642 L0.744,91.91 C17.861,109.027 29.495,130.85 34.166,154.601 L41.484,191.808 C43.113,200.089 50.837,205.744 59.22,204.765 C88.977,201.29 117.253,192.963 143.232,180.59 C148.751,177.962 155.303,180.924 156.961,186.809 L156.993,186.924 C161.204,181.859 166.43,177.675 172.354,174.661 C178.911,171.325 186.32,169.427 194.175,169.403 L194.175,169.22 L194.175,109.329 C194.176,78.722 179.173,49.914 153.77,32.844 Z" id="Path"></path>
                    </g>
                    <path d="M350.301,78.529 C331.537,66.003 309.577,56.227 285.44,50.008 C285.329,49.98 285.206,49.95 285.071,49.918 C274.014,47.345 264.19,57.512 266.97,68.52 L275.5,102.307 C284.575,138.252 307.718,169.039 339.724,187.748 C351.203,194.458 364.818,196.513 377.766,193.491 L377.967,193.445 C385.698,191.673 391.179,184.793 391.179,176.861 L391.179,155.328 C391.176,124.522 375.922,95.634 350.301,78.529 Z" id="Path" fill="#848075"></path>
                    <path d="M197.743,137.909 C205.898,146.064 212.792,155.297 218.298,165.289 C242.22,132.383 256.356,91.925 256.356,48.22 L256.356,46.306 C244.079,47.417 232.854,52.286 223.999,59.641 L197.743,137.909 Z" id="Path" fill="#5B5751"></path>
                    <path d="M118.301,238.05 L118.301,194.905 L73.002,194.905 L73.002,247.095 C88.68,245.832 103.847,242.742 118.301,238.05 Z" id="Path" fill="#706B63"></path>
                    <path d="M223.636,59.277 C217.944,146.452 145.439,215.397 56.824,215.397 L17.285,175.859 C8.861,167.435 8.861,153.777 17.285,145.353 L148.244,14.393 C156.668,5.969 170.326,5.969 178.75,14.393 L223.636,59.277 Z" id="Path" fill="#8D472E"></path>
                    <path d="M154.948,183.215 C182.935,143.915 178.161,90.068 144.045,55.952 L140.618,52.525 C132.194,44.101 118.537,44.1 110.112,52.525 L17.285,145.352 C8.86,153.777 8.861,167.434 17.285,175.858 L56.824,215.396 C93.253,215.396 126.955,203.737 154.417,183.956 C154.594,183.71 154.771,183.463 154.948,183.215 Z" id="Path" fill="#AB5034"></path>
                    <path d="M223.636,59.277 L191.644,27.285 L191.644,48.221 C191.644,73.339 184.732,96.871 172.72,117.026 L154.949,183.215 C154.782,183.449 154.615,183.683 154.447,183.916 C193.763,155.579 220.285,110.598 223.636,59.277 Z" id="Path" fill="#ADA999"></path>
                    <path d="M154.948,183.215 C169.068,163.387 174.838,139.857 172.719,117.026 C149.182,156.522 106.045,183.04 56.824,183.04 L24.468,183.04 C26.085,184.657 27.882,186.454 29.797,188.369 C30.955,189.527 32.153,190.725 33.368,191.94 C34.584,193.156 35.82,194.392 37.056,195.628 C38.292,196.864 39.527,198.099 40.744,199.316 C42.569,201.141 44.35,202.922 46.021,204.593 C47.692,206.264 49.257,207.829 50.647,209.219 C51.342,209.914 51.977,210.548 52.577,211.149 C52.977,211.549 53.352,211.924 53.704,212.276 C54.231,212.803 54.721,213.293 55.127,213.699 C55.667,214.239 56.092,214.664 56.381,214.953 C56.526,215.098 56.637,215.209 56.712,215.284 C56.786,215.358 56.825,215.397 56.825,215.397 C56.836,215.397 56.845,215.397 56.856,215.397 C58.121,215.397 59.381,215.38 60.64,215.351 C61.051,215.341 61.46,215.326 61.871,215.314 C62.736,215.288 63.6,215.258 64.461,215.219 C64.931,215.197 65.401,215.174 65.871,215.149 C66.685,215.106 67.497,215.056 68.309,215.001 C68.775,214.97 69.242,214.938 69.707,214.903 C70.586,214.836 71.462,214.76 72.337,214.679 C72.714,214.644 73.094,214.614 73.471,214.577 C74.691,214.456 75.906,214.324 77.119,214.177 C77.467,214.135 77.814,214.085 78.162,214.041 C79.041,213.929 79.919,213.813 80.795,213.687 C81.291,213.616 81.785,213.539 82.28,213.463 C83.007,213.352 83.734,213.238 84.458,213.117 C84.986,213.029 85.515,212.939 86.042,212.846 C86.737,212.723 87.43,212.595 88.123,212.464 C88.65,212.364 89.178,212.267 89.703,212.161 C90.447,212.012 91.189,211.855 91.93,211.696 C92.511,211.572 93.094,211.449 93.673,211.318 C94.659,211.097 95.641,210.867 96.621,210.629 C97.197,210.489 97.77,210.339 98.343,210.192 C98.932,210.042 99.52,209.891 100.106,209.735 C100.723,209.57 101.338,209.4 101.951,209.228 C102.485,209.078 103.018,208.927 103.551,208.772 C104.185,208.588 104.819,208.401 105.451,208.21 C105.944,208.06 106.434,207.906 106.924,207.752 C107.585,207.545 108.247,207.339 108.904,207.123 C109.229,207.016 109.55,206.904 109.875,206.796 C111.371,206.296 112.858,205.775 114.336,205.233 C114.624,205.127 114.914,205.025 115.202,204.918 C115.942,204.642 116.676,204.357 117.411,204.071 C117.762,203.935 118.112,203.799 118.462,203.66 C119.196,203.369 119.928,203.071 120.657,202.77 C120.981,202.636 121.304,202.5 121.628,202.364 C122.388,202.044 123.148,201.721 123.902,201.39 C124.104,201.302 124.303,201.21 124.505,201.12 C127.208,199.922 129.874,198.655 132.499,197.32 C132.59,197.274 132.681,197.229 132.772,197.183 C133.596,196.762 134.416,196.332 135.231,195.897 C135.413,195.8 135.596,195.703 135.777,195.606 C136.589,195.17 137.397,194.728 138.202,194.279 C138.335,194.205 138.467,194.129 138.6,194.055 C142.195,192.035 145.708,189.887 149.132,187.615 C149.167,187.592 149.201,187.57 149.236,187.547 C150.061,186.998 150.882,186.441 151.696,185.878 C151.79,185.813 151.884,185.749 151.978,185.684 C152.8,185.115 153.616,184.539 154.427,183.954 C154.594,183.71 154.771,183.463 154.948,183.215 Z" id="Path" fill="#C1BDAB"></path>
                    <path d="M224,310.735 C230.482,310.735 236.576,308.21 241.16,303.627 C244.319,300.468 244.319,295.346 241.159,292.187 C238.001,289.028 232.879,289.029 229.72,292.187 C228.193,293.715 226.161,294.557 224,294.557 C221.84,294.557 219.808,293.716 218.28,292.187 C215.121,289.029 209.999,289.028 206.841,292.187 C203.681,295.346 203.681,300.468 206.84,303.627 C211.424,308.21 217.519,310.735 224,310.735 Z" id="Path" fill="#000000"></path>
                    <path d="M130.38,246.272 C131.818,247.319 133.485,247.824 135.137,247.824 C137.634,247.824 140.098,246.671 141.681,244.498 C146.69,237.624 153.869,232.4 161.895,229.784 C166.142,228.4 168.464,223.835 167.081,219.586 C165.697,215.339 161.134,213.017 156.884,214.4 C145.645,218.062 135.603,225.366 128.605,234.969 C125.975,238.582 126.769,243.641 130.38,246.272 Z" id="Path" fill="#000000"></path>
                    <path d="M145.804,263.932 C145.804,268.399 149.425,272.021 153.893,272.021 C158.361,272.021 161.982,268.399 161.982,263.932 C161.982,259.471 165.61,255.843 170.071,255.843 C174.532,255.843 178.16,259.471 178.16,263.932 C178.16,268.399 181.781,272.021 186.249,272.021 C190.717,272.021 194.338,268.399 194.338,263.932 C194.338,250.55 183.451,239.664 170.07,239.664 C156.689,239.664 145.804,250.55 145.804,263.932 Z" id="Path" fill="#000000"></path>
                    <path d="M447.763,261.865 C447.266,247.954 441.611,234.723 431.84,224.614 C423.038,215.507 411.593,209.671 399.264,207.896 L399.264,155.327 C399.264,121.738 382.821,90.636 355.281,72.129 C332.183,56.609 304.386,45.252 274.896,39.289 C265.41,37.371 255.442,37.571 246.042,39.819 C241.698,40.858 239.017,45.223 240.056,49.568 C241.095,53.913 245.456,56.589 249.805,55.554 C256.928,53.851 264.498,53.693 271.689,55.147 C299.119,60.694 324.904,71.21 346.257,85.558 C369.318,101.054 383.085,127.136 383.085,155.328 L383.085,207.895 C379.932,208.349 376.825,209.075 373.776,210.063 C369.889,210.653 366.907,213.999 366.907,218.051 L366.907,356.69 C366.907,361.157 370.529,364.779 374.996,364.779 C379.463,364.779 383.085,361.157 383.085,356.69 L383.085,319.973 C385.752,320.355 388.451,320.559 391.174,320.559 C406.683,320.559 421.155,314.411 431.926,303.249 C442.694,292.088 448.318,277.392 447.763,261.865 Z M420.286,292.012 C412.592,299.986 402.254,304.378 391.177,304.378 C388.439,304.378 385.735,304.1 383.088,303.563 L383.088,255.843 L391.177,255.843 C395.638,255.843 399.266,259.471 399.266,263.932 C399.266,268.399 402.888,272.021 407.355,272.021 C411.822,272.021 415.444,268.399 415.444,263.932 C415.444,250.55 404.558,239.664 391.176,239.664 L383.087,239.664 L383.087,224.31 C386.659,223.581 390.324,223.329 394.037,223.585 C414.37,224.986 430.868,242.054 431.597,262.442 C431.992,273.542 427.975,284.043 420.286,292.012 Z" id="Shape" fill="#000000" fill-rule="nonzero"></path>
                    <path d="M128.471,171.836 C149.503,159.599 167.207,142.078 179.668,121.168 C181.955,117.331 180.698,112.365 176.859,110.078 C173.019,107.789 168.056,109.047 165.769,112.887 C142.954,151.17 101.209,174.952 56.823,174.952 C52.356,174.952 48.734,178.574 48.734,183.041 C48.734,187.508 52.356,191.13 56.823,191.13 C82.003,191.13 106.778,184.458 128.471,171.836 Z" id="Path" fill="#000000"></path>
                    <path d="M178.506,106.792 C179.513,107.206 180.554,107.401 181.579,107.401 C184.761,107.401 187.779,105.511 189.063,102.386 C194.523,89.109 197.927,75.115 199.182,60.794 C199.572,56.344 196.281,52.419 191.831,52.03 C187.373,51.638 183.456,54.93 183.067,59.381 C181.954,72.072 178.937,84.471 174.101,96.235 C172.401,100.367 174.374,105.093 178.506,106.792 Z" id="Path" fill="#000000"></path>
                    <path d="M408.388,331.438 C407.165,327.141 402.69,324.651 398.392,325.874 C394.095,327.098 391.605,331.573 392.828,335.87 C394.82,342.863 397.14,349.855 399.723,356.648 C402.58,364.162 401.594,372.277 397.018,378.914 C392.41,385.596 385.116,389.428 377.005,389.428 L298.581,389.428 C306.76,381.848 314.463,374.337 321.635,366.948 C321.92,371.158 325.415,374.486 329.696,374.486 C334.163,374.486 337.785,370.864 337.785,366.397 L337.787,231.327 C337.787,228.613 336.426,226.08 334.163,224.582 C331.899,223.083 329.036,222.821 326.538,223.881 C303.82,233.521 279.845,239.864 255.279,242.732 C251.123,243.216 247.23,240.37 246.419,236.249 L239.101,199.042 C234.531,175.81 223.809,154.464 207.992,136.971 C223.351,110.925 232.18,80.588 232.18,48.224 L232.18,16.164 C232.18,11.697 228.558,8.075 224.091,8.075 C219.624,8.075 216.002,11.697 216.002,16.164 L216.002,40.205 L184.47,8.674 C172.905,-2.891 154.088,-2.89 142.524,8.674 L11.565,139.633 C0.001,151.197 0.001,170.015 11.565,181.579 L37.344,207.358 L10.327,207.426 C5.86,207.441 2.25,211.075 2.265,215.542 C2.28,220.001 5.899,223.604 10.354,223.604 C10.363,223.604 10.372,223.604 10.381,223.604 L56.916,223.486 C59.597,223.486 62.261,223.416 64.913,223.296 L64.913,239.664 L56.824,239.664 C43.442,239.664 32.557,250.55 32.557,263.931 C32.557,268.398 36.179,272.02 40.646,272.02 C45.113,272.02 48.735,268.398 48.735,263.931 C48.735,259.47 52.363,255.842 56.824,255.842 L64.913,255.842 L64.913,303.567 C62.265,304.104 59.56,304.377 56.824,304.377 C45.746,304.377 35.408,299.985 27.714,292.01 C20.025,284.041 16.008,273.539 16.405,262.439 C16.69,254.467 19.343,246.806 24.077,240.283 C26.701,236.667 25.898,231.609 22.281,228.985 C18.664,226.359 13.606,227.165 10.983,230.781 C4.353,239.916 0.637,250.664 0.237,261.861 C-0.32,277.388 5.304,292.085 16.071,303.244 C23.512,310.957 32.723,316.272 42.819,318.824 C40.347,329.72 37.117,340.477 33.154,350.897 C28.448,363.272 30.134,377.179 37.663,388.097 C45.223,399.059 57.683,405.604 70.994,405.604 L145.015,405.604 C141.784,408.612 138.704,411.779 135.854,415.113 L135.659,415.342 C124.814,428.091 118.842,444.563 118.842,461.726 L118.842,492.281 C118.842,496.748 122.464,500.37 126.931,500.37 C131.398,500.37 135.02,496.748 135.02,492.281 L135.02,461.726 C135.02,448.4 139.623,435.65 147.965,425.842 L148.146,425.63 C151.969,421.158 156.228,416.992 160.804,413.243 L170.059,406.714 C172.492,408.332 174.999,409.846 177.571,411.241 C177.579,411.245 177.586,411.248 177.594,411.252 C182.308,413.807 187.23,415.953 192.287,417.692 L166.459,449.488 C165.11,446.898 162.407,445.127 159.286,445.127 C154.819,445.127 151.197,448.749 151.197,453.216 L151.197,484.731 L151.197,503.451 L151.197,503.907 C151.197,508.374 154.819,511.996 159.286,511.996 C163.753,511.996 167.375,508.374 167.375,503.907 L167.375,503.451 L167.375,484.731 C167.375,477.525 170.009,470.777 174.317,465.471 C174.325,465.462 174.333,465.455 174.34,465.446 L174.411,465.359 C179.808,458.774 187.793,454.443 196.532,454.299 C199.308,454.257 202.044,454.587 204.684,455.29 C217.296,458.648 230.702,458.649 243.317,455.29 C245.955,454.588 248.699,454.256 251.467,454.3 C260.213,454.445 268.203,458.78 273.6,465.372 L273.66,465.446 C273.667,465.454 273.674,465.46 273.679,465.468 C277.988,470.773 280.624,477.524 280.624,484.732 L280.624,503.452 L280.624,503.908 C280.624,508.375 284.246,511.997 288.713,511.997 C293.18,511.997 296.802,508.375 296.802,503.908 L296.802,503.452 L296.802,484.732 L296.802,453.22 C296.802,448.753 293.18,445.131 288.713,445.131 C285.592,445.131 282.888,446.902 281.54,449.492 L255.719,417.705 C263.231,415.12 270.412,411.617 277.106,407.257 L289.299,414.975 C292.957,418.125 296.403,421.588 299.546,425.273 C308.209,435.431 312.98,448.378 312.98,461.729 L312.98,490.43 C312.98,494.897 316.602,498.519 321.069,498.519 C325.536,498.519 329.158,494.897 329.158,490.43 L329.158,461.729 C329.158,444.534 323.013,427.859 311.855,414.774 C309.11,411.557 306.163,408.491 303.068,405.606 L377.006,405.606 C390.316,405.606 402.777,399.061 410.337,388.099 C417.866,377.181 419.552,363.274 414.846,350.899 C412.425,344.534 410.253,337.987 408.388,331.438 Z M23.005,151.072 L153.965,20.113 C159.222,14.856 167.775,14.856 173.032,20.113 L215.361,62.442 C208.237,142.464 141.617,205.629 60.134,207.267 L23.005,170.14 C17.748,164.883 17.748,156.329 23.005,151.072 Z M50.981,378.913 C46.405,372.277 45.419,364.162 48.276,356.647 C52.736,344.919 56.334,332.791 59.021,320.512 C61,320.436 62.965,320.249 64.913,319.971 L64.913,331.803 C64.913,336.27 68.535,339.892 73.002,339.892 C77.469,339.892 81.091,336.27 81.091,331.803 L81.091,221.811 C129.348,215.123 171.382,188.72 198.778,151.016 C211.1,165.706 219.502,183.217 223.229,202.161 L230.547,239.368 C232.783,250.734 242.858,258.845 254.18,258.937 C253.841,260.549 253.66,262.22 253.66,263.932 C253.66,268.399 257.281,272.021 261.749,272.021 C266.217,272.021 269.838,268.399 269.838,263.932 C269.838,259.471 273.466,255.843 277.927,255.843 C282.388,255.843 286.016,259.471 286.016,263.932 C286.016,268.399 289.637,272.021 294.105,272.021 C298.573,272.021 302.194,268.399 302.194,263.932 C302.194,259.09 300.763,254.579 298.31,250.788 C306.181,248.624 313.956,246.114 321.61,243.255 L321.608,343.385 C321.494,343.497 321.377,343.604 321.268,343.724 C308.847,357.425 294.31,371.729 278.06,386.238 C263.18,399.524 243.982,406.841 224,406.841 C210.519,406.841 197.131,403.446 185.284,397.021 C185.279,397.019 185.274,397.017 185.269,397.013 C179.752,394.021 174.595,390.396 169.937,386.238 C153.494,371.556 138.876,357.136 126.388,343.324 L126.388,230.74 C126.388,226.273 122.766,222.651 118.299,222.651 C113.832,222.651 110.21,226.273 110.21,230.74 L110.21,366.395 C110.21,370.862 113.832,374.484 118.299,374.484 C122.582,374.484 126.078,371.153 126.36,366.943 C133.529,374.329 141.231,381.838 149.418,389.427 L70.992,389.427 C62.884,389.426 55.59,385.594 50.981,378.913 Z M251.469,438.13 C247.3,438.084 243.151,438.594 239.153,439.658 C229.255,442.294 218.742,442.293 208.849,439.658 C204.85,438.592 200.705,438.083 196.531,438.129 L209.679,421.944 C214.414,422.65 219.204,423.018 224.003,423.018 C228.828,423.018 233.611,422.645 238.325,421.947 L251.469,438.13 Z" id="Shape" fill="#000000" fill-rule="nonzero"></path>
                </g>
            </g>
        </g>
    </g>
</svg>