<?xml version="1.0" encoding="UTF-8"?>
<svg width="130px" height="19px" viewBox="0 0 130 19" version="1.1" xmlns="http://www.w3.org/2000/svg" xmlns:xlink="http://www.w3.org/1999/xlink">
    <g id="Page-1" stroke="none" stroke-width="1" fill="none" fill-rule="evenodd">
        <path d="M11.236,14.274 C11.6346687,13.9826652 11.9949984,13.6261688 12.317,13.2045 C12.6390016,12.7828312 12.9111656,12.572 13.1335,12.572 C13.3558344,12.572 13.467,12.9054967 13.467,13.5725 C13.467,14.2395033 13.2791685,14.8681637 12.9035,15.4585 C12.5278315,16.0488363 12.0333364,16.5433313 11.42,16.942 C10.1626604,17.7700041 8.67534192,18.184 6.958,18.184 C4.87265624,18.184 3.25500575,17.6626719 2.105,16.62 C0.95499425,15.5773281 0.38,14.1283426 0.38,12.273 C0.38,9.98832191 0.93199448,7.81867694 2.036,5.764 C2.40400184,5.08932996 2.8179977,4.46833617 3.278,3.901 C2.92533157,3.48699793 2.64550103,3.0538356 2.4385,2.6015 C2.23149897,2.1491644 2.128,1.80800115 2.128,1.578 C2.128,1.16399793 2.2813318,0.957 2.588,0.957 C2.80266774,0.97233341 3.04799862,1.11799862 3.324,1.394 L4.037,2.084 C4.22100092,2.26800092 4.41266567,2.42133272 4.612,2.544 C6.13000759,1.25599356 7.76682455,0.612 9.5225,0.612 C11.2781754,0.612 12.4166641,1.10266176 12.938,2.084 C13.1220009,2.45200184 13.214,2.90433065 13.214,3.441 C13.214,4.25367073 12.8613369,4.93599724 12.156,5.488 C11.4506631,6.04000276 10.5038393,6.316 9.3155,6.316 C8.12716073,6.316 6.89667303,6.07066912 5.624,5.58 C4.53532789,7.43534261 3.991,9.37498988 3.991,11.399 C3.991,14.205014 5.11032214,15.608 7.349,15.608 C8.7290069,15.608 10.0246606,15.1633378 11.236,14.274 Z M6.728,4.154 C7.51000391,4.41466797 8.3609954,4.545 9.281,4.545 C10.2010046,4.545 10.661,4.29200253 10.661,3.786 C10.661,3.18799701 10.2853371,2.889 9.534,2.889 C8.50666153,2.889 7.57133755,3.31066245 6.728,4.154 Z M20.976,10.272 C20.976,9.71999724 20.6501699,9.444 19.9985,9.444 C19.3468301,9.444 18.7066698,9.94616165 18.078,10.9505 C17.4493302,11.9548384 17.0583341,12.9783281 16.905,14.021 L16.997,15.079 C17.0276668,15.4316684 17.043,15.776665 17.043,16.114 C17.043,16.9266707 16.7746694,17.4786652 16.238,17.77 C15.9926654,17.9080007 15.7588344,18.0383327 15.5365,18.161 C15.3141656,18.2836673 15.0573348,18.345 14.766,18.345 C14.4746652,18.345 14.2178344,18.149502 13.9955,17.7585 C13.7731656,17.367498 13.662,16.7580041 13.662,15.93 C13.662,13.6146551 13.830665,11.6060085 14.168,9.904 C14.6893359,7.26665348 15.7243256,4.44534836 17.273,1.44 C17.4876677,1.02599793 17.8019979,0.822833295 18.216,0.8305 C18.6300021,0.838166705 18.967332,1.12566383 19.228,1.693 C19.488668,2.26033617 19.6151667,2.73566475 19.6075,3.119 C19.5998333,3.50233525 19.5385006,3.87416487 19.4235,4.2345 C19.3084994,4.59483513 19.1628342,4.94749828 18.9865,5.2925 C18.8101658,5.63750172 18.6108344,5.99016486 18.3885,6.3505 C18.1661656,6.71083513 17.9476677,7.09799793 17.733,7.512 L17.388,9.168 C17.986003,8.17132835 18.7909949,7.50433502 19.803,7.167 C20.1710018,7.04433272 20.5773311,6.983 21.022,6.983 C22.0646719,6.983 22.8543307,7.216831 23.391,7.6845 C23.9276694,8.15216901 24.196,8.81149575 24.196,9.6625 C24.196,10.5135043 24.0848344,11.3759956 23.8625,12.25 C23.6401656,13.1240044 23.4791672,13.7488315 23.3795,14.1245 C23.2798328,14.5001685 23.23,14.8106654 23.23,15.056 C23.23,15.3013346 23.3143325,15.424 23.483,15.424 C23.7130011,15.424 23.996665,15.2783348 24.334,14.987 C24.671335,14.6956652 25.008665,14.3775017 25.346,14.0325 C25.683335,13.6874983 25.9938319,13.3693348 26.2775,13.078 C26.5611681,12.7866652 26.7566661,12.641 26.864,12.641 C27.0786677,12.641 27.186,12.9016641 27.186,13.423 C27.186,14.4963387 26.6570053,15.5313283 25.599,16.528 C23.8203244,17.5706719 22.6856691,18.092 22.195,18.092 C22.1489998,18.092 22.1183334,18.0843334 22.103,18.069 C20.8763272,18.069 20.263,17.0876765 20.263,15.125 C20.263,14.2816624 20.3434992,13.5073369 20.5045,12.802 C20.6655008,12.0966631 20.7843329,11.5830016 20.861,11.261 C20.9376671,10.9389984 20.976,10.609335 20.976,10.272 Z M32.395,15.493 C33.591006,15.493 34.7486611,15.0176714 35.868,14.067 C36.2820021,13.7143316 36.619332,13.3885015 36.88,13.0895 C37.140668,12.7904985 37.3399993,12.641 37.478,12.641 C37.6926677,12.641 37.8,12.8556645 37.8,13.285 C37.8,13.7143355 37.6850012,14.1934974 37.455,14.7225 C37.2249988,15.2515026 36.8416693,15.7689975 36.305,16.275 C34.9863267,17.5170062 33.1770115,18.138 30.877,18.138 C29.0523242,18.138 27.8103366,17.4786733 27.151,16.16 C26.9209988,15.6999977 26.806,15.040671 26.806,14.182 C26.806,13.323329 26.974665,12.4301713 27.312,11.5025 C27.649335,10.5748287 28.0978305,9.77367004 28.6575,9.099 C29.2171695,8.42432996 29.8649963,7.89916854 30.601,7.5235 C31.3370037,7.14783146 32.1228292,6.96 32.9585,6.96 C33.7941708,6.96 34.4381644,7.16699793 34.8905,7.581 C35.3428356,7.99500207 35.569,8.53166337 35.569,9.191 C35.569,9.85033663 35.4041683,10.3908312 35.0745,10.8125 C34.7448317,11.2341688 34.3193359,11.5868319 33.798,11.8705 C33.2766641,12.1541681 32.6978365,12.4071656 32.0615,12.6295 C31.4251635,12.8518344 30.8003364,13.1009986 30.187,13.377 L30.187,13.952 C30.2023334,14.5040028 30.4323311,14.8949989 30.877,15.125 C31.3216689,15.3550011 31.8276638,15.4776666 32.395,15.493 Z M32.004,9.007 C31.2066627,9.007 30.6546682,9.93465739 30.348,11.79 C30.6700016,11.5753323 30.9728319,11.3836675 31.2565,11.215 C31.5401681,11.0463325 31.7893323,10.8853341 32.004,10.732 C32.4640023,10.394665 32.7016666,10.0113355 32.717,9.582 C32.717,9.19866475 32.4793357,9.007 32.004,9.007 Z M43.009,15.493 C44.205006,15.493 45.3626611,15.0176714 46.482,14.067 C46.8960021,13.7143316 47.233332,13.3885015 47.494,13.0895 C47.754668,12.7904985 47.9539993,12.641 48.092,12.641 C48.3066677,12.641 48.414,12.8556645 48.414,13.285 C48.414,13.7143355 48.2990011,14.1934974 48.069,14.7225 C47.8389988,15.2515026 47.4556693,15.7689975 46.919,16.275 C45.6003267,17.5170062 43.7910115,18.138 41.491,18.138 C39.6663242,18.138 38.4243366,17.4786733 37.765,16.16 C37.5349988,15.6999977 37.42,15.040671 37.42,14.182 C37.42,13.323329 37.588665,12.4301713 37.926,11.5025 C38.263335,10.5748287 38.7118305,9.77367004 39.2715,9.099 C39.8311695,8.42432996 40.4789963,7.89916854 41.215,7.5235 C41.9510037,7.14783146 42.7368292,6.96 43.5725,6.96 C44.4081708,6.96 45.0521644,7.16699793 45.5045,7.581 C45.9568356,7.99500207 46.183,8.53166337 46.183,9.191 C46.183,9.85033663 46.0181683,10.3908312 45.6885,10.8125 C45.3588317,11.2341688 44.9333359,11.5868319 44.412,11.8705 C43.8906641,12.1541681 43.3118365,12.4071656 42.6755,12.6295 C42.0391635,12.8518344 41.4143364,13.1009986 40.801,13.377 L40.801,13.952 C40.8163334,14.5040028 41.0463311,14.8949989 41.491,15.125 C41.9356689,15.3550011 42.4416638,15.4776666 43.009,15.493 Z M42.618,9.007 C41.8206627,9.007 41.2686682,9.93465739 40.962,11.79 C41.2840016,11.5753323 41.5868319,11.3836675 41.8705,11.215 C42.1541681,11.0463325 42.4033323,10.8853341 42.618,10.732 C43.0780023,10.394665 43.3156666,10.0113355 43.331,9.582 C43.331,9.19866475 43.0933357,9.007 42.618,9.007 Z M51.622,14.136 L51.76,16.942 C51.76,17.3100018 51.5683353,17.6396652 51.185,17.931 C50.8016647,18.2223348 50.2803366,18.368 49.621,18.368 C49.2376648,18.368 48.9731674,18.1686687 48.8275,17.77 C48.6818326,17.3713313 48.609,16.7886705 48.609,16.022 C48.609,14.411992 48.6894992,13.1508379 48.8505,12.2385 C49.0115008,11.3261621 49.3296643,10.402338 49.805,9.467 C49.0996631,8.79232996 48.747,8.20966912 48.747,7.719 C48.747,6.69166153 49.2989945,6.178 50.403,6.178 C50.9703362,6.178 51.4686645,6.47699701 51.898,7.075 C52.2046682,7.48900207 52.4269993,7.97199724 52.565,8.524 C52.7796677,8.60066705 53.0479984,8.639 53.37,8.639 C53.8146689,8.639 54.3283304,8.49333479 54.911,8.202 L55.509,7.903 C55.6930009,7.81099954 55.8539993,7.765 55.992,7.765 C56.4366689,7.765 56.8813311,8.41666015 57.326,9.72 C57.1879993,10.318003 57.0385008,10.8929972 56.8775,11.445 C56.7164992,11.9970028 56.5286677,12.6639961 56.314,13.446 C56.0993323,14.2280039 55.9881667,14.7531653 55.9805,15.0215 C55.9728333,15.2898347 56.0533325,15.424 56.222,15.424 C56.4520012,15.424 56.735665,15.2783348 57.073,14.987 C57.410335,14.6956652 57.747665,14.3775017 58.085,14.0325 C58.422335,13.6874983 58.7328319,13.3693348 59.0165,13.078 C59.3001681,12.7866652 59.4956661,12.641 59.603,12.641 C59.8176677,12.641 59.925,12.9016641 59.925,13.423 C59.925,14.4810053 59.4611713,15.5236615 58.5335,16.551 C57.6058287,17.5783385 56.544006,18.0843334 55.348,18.069 C54.6426631,18.069 54.1136684,17.7853362 53.761,17.218 C53.4083316,16.6506638 53.2243334,15.9606707 53.209,15.148 C53.209,13.5379919 53.5693297,12.0123405 54.29,10.571 C53.952665,10.7090007 53.5731688,10.778 53.1515,10.778 C52.7298312,10.778 52.4270009,10.7626668 52.243,10.732 C52.1049993,11.3146696 51.9670007,11.9011637 51.829,12.4915 C51.6909993,13.0818363 51.622,13.6299975 51.622,14.136 Z M70.472,13.147 C70.472,14.4810067 71.0393277,15.148 72.174,15.148 C73.4160062,15.148 74.2516645,14.718671 74.681,13.86 C74.8343341,13.5533318 74.911,13.1585024 74.911,12.6755 C74.911,12.1924976 74.7960011,11.7440021 74.566,11.33 C74.1826648,10.6706634 73.523338,9.94233732 72.588,9.145 C71.0393256,7.82632674 70.265,6.45784043 70.265,5.0395 C70.265,3.62115958 70.7096622,2.5286705 71.599,1.762 C72.4883378,0.9953295 73.5079943,0.612 74.658,0.612 C75.8080058,0.612 76.72033,0.90333042 77.395,1.486 C78.06967,2.06866958 78.407,2.94266084 78.407,4.108 C78.407,4.8746705 78.1501692,5.54166383 77.6365,6.109 C77.1228308,6.67633617 76.4443376,7.02899931 75.601,7.167 C75.9843352,7.48900161 76.3676648,7.81866498 76.751,8.156 C77.1190018,8.49333502 77.4563318,8.86133134 77.763,9.26 C78.43767,10.1646712 78.775,11.2456604 78.775,12.503 C78.775,13.3770044 78.5718354,14.1666631 78.1655,14.872 C77.7591646,15.5773369 77.2301699,16.1714976 76.5785,16.6545 C75.9268301,17.1375024 75.1946707,17.509332 74.382,17.77 C73.5693293,18.030668 72.8103369,18.161 72.105,18.161 C70.6023258,18.161 69.4370041,17.8160034 68.609,17.126 C67.6429952,16.3439961 67.16,15.2170074 67.16,13.745 C67.16,12.7789952 67.4743302,11.8436712 68.103,10.939 C68.7316698,10.0343288 69.3986631,9.582 70.104,9.582 C70.6560028,9.582 70.932,9.75066498 70.932,10.088 C70.932,10.5786691 70.8553341,11.0654976 70.702,11.5485 C70.5486659,12.0315024 70.472,12.5643304 70.472,13.147 Z M74.934,6.615 C75.8080044,5.74099563 76.245,4.82867142 76.245,3.878 C76.245,3.58666521 76.0916682,3.34133433 75.785,3.142 C75.447665,2.95799908 75.0950018,2.866 74.727,2.866 C73.8989959,2.866 73.3010018,3.13433065 72.933,3.671 C73.1170009,4.33033663 73.3891649,4.8899977 73.7495,5.35 C74.1098351,5.8100023 74.5046645,6.23166475 74.934,6.615 Z M86.344,10.272 C86.344,9.71999724 86.0181699,9.444 85.3665,9.444 C84.7148301,9.444 84.0746698,9.94616165 83.446,10.9505 C82.8173302,11.9548384 82.4263341,12.9783281 82.273,14.021 L82.365,15.079 C82.3956668,15.4316684 82.411,15.776665 82.411,16.114 C82.411,16.9266707 82.1426694,17.4786652 81.606,17.77 C81.3606654,17.9080007 81.1268344,18.0383327 80.9045,18.161 C80.6821656,18.2836673 80.4253348,18.345 80.134,18.345 C79.8426652,18.345 79.5858344,18.149502 79.3635,17.7585 C79.1411656,17.367498 79.03,16.7580041 79.03,15.93 C79.03,13.6146551 79.198665,11.6060085 79.536,9.904 C80.0573359,7.26665348 81.0923256,4.44534836 82.641,1.44 C82.8556677,1.02599793 83.1699979,0.822833295 83.584,0.8305 C83.9980021,0.838166705 84.335332,1.12566383 84.596,1.693 C84.856668,2.26033617 84.9831667,2.73566475 84.9755,3.119 C84.9678333,3.50233525 84.9065006,3.87416487 84.7915,4.2345 C84.6764994,4.59483513 84.5308342,4.94749828 84.3545,5.2925 C84.1781658,5.63750172 83.9788344,5.99016486 83.7565,6.3505 C83.5341656,6.71083513 83.3156677,7.09799793 83.101,7.512 L82.756,9.168 C83.354003,8.17132835 84.1589949,7.50433502 85.171,7.167 C85.5390018,7.04433272 85.9453311,6.983 86.39,6.983 C87.4326719,6.983 88.2223307,7.216831 88.759,7.6845 C89.2956694,8.15216901 89.564,8.81149575 89.564,9.6625 C89.564,10.5135043 89.4528344,11.3759956 89.2305,12.25 C89.0081656,13.1240044 88.8471672,13.7488315 88.7475,14.1245 C88.6478328,14.5001685 88.598,14.8106654 88.598,15.056 C88.598,15.3013346 88.6823325,15.424 88.851,15.424 C89.0810012,15.424 89.364665,15.2783348 89.702,14.987 C90.039335,14.6956652 90.376665,14.3775017 90.714,14.0325 C91.051335,13.6874983 91.3618319,13.3693348 91.6455,13.078 C91.9291681,12.7866652 92.1246661,12.641 92.232,12.641 C92.4466677,12.641 92.554,12.9016641 92.554,13.423 C92.554,14.4963387 92.0250053,15.5313283 90.967,16.528 C89.1883244,17.5706719 88.0536691,18.092 87.563,18.092 C87.5169998,18.092 87.4863334,18.0843334 87.471,18.069 C86.2443272,18.069 85.631,17.0876765 85.631,15.125 C85.631,14.2816624 85.7114992,13.5073369 85.8725,12.802 C86.0335008,12.0966631 86.1523329,11.5830016 86.229,11.261 C86.3056671,10.9389984 86.344,10.609335 86.344,10.272 Z M106.526,12.572 C106.802001,12.572 106.94,12.9246631 106.94,13.63 C106.94,14.0133352 106.779002,14.4771639 106.457,15.0215 C106.134998,15.5658361 105.717169,16.0641644 105.2035,16.5165 C104.689831,16.9688356 104.11867,17.3406652 103.49,17.632 C102.86133,17.9233348 102.248003,18.069 101.65,18.069 C100.837329,18.069 100.293001,17.3560071 100.017,15.93 C99.6183313,16.5893366 99.0970032,17.1298312 98.453,17.5515 C97.8089968,17.9731688 96.9465054,18.184 95.8655,18.184 C94.7844946,18.184 93.9143366,17.84667 93.255,17.172 C92.5956634,16.49733 92.2736666,15.6770048 92.289,14.711 C92.289,12.1043203 93.1553247,10.0496742 94.888,8.547 C95.6240037,7.91833019 96.3101635,7.50433433 96.9465,7.305 C97.5828365,7.10566567 98.2536631,7.006 98.959,7.006 C99.6643369,7.006 100.239331,7.12866544 100.684,7.374 C100.898668,6.92933111 101.143999,6.707 101.42,6.707 C101.956669,6.707 102.466498,6.94083099 102.9495,7.4085 C103.432502,7.87616901 103.674,8.31699793 103.674,8.731 C103.459332,9.23700253 103.145002,9.84266314 102.731,10.548 C102.608333,11.2533369 102.547,12.242327 102.547,13.515 C102.547,14.787673 102.707998,15.424 103.03,15.424 C103.428669,15.424 104.394659,14.6266746 105.928,13.032 C106.204001,12.7253318 106.403333,12.572 106.526,12.572 Z M95.67,13.952 C95.67,15.1326726 96.1069956,15.723 96.981,15.723 C97.916338,15.7076666 98.6906636,15.2093382 99.304,14.228 C99.5186677,13.890665 99.6949993,13.4766691 99.833,12.986 C99.833,11.2686581 99.9863318,9.7966728 100.293,8.57 C99.0509938,8.81533456 97.9700046,9.41332858 97.05,10.364 C96.1299954,11.3146714 95.67,12.5106595 95.67,13.952 Z M110.148,14.136 L110.286,16.942 C110.286,17.3100018 110.094335,17.6396652 109.711,17.931 C109.327665,18.2223348 108.806337,18.368 108.147,18.368 C107.763665,18.368 107.499167,18.1686687 107.3535,17.77 C107.207833,17.3713313 107.135,16.7886705 107.135,16.022 C107.135,14.411992 107.215499,13.1508379 107.3765,12.2385 C107.537501,11.3261621 107.855664,10.402338 108.331,9.467 C107.625663,8.79232996 107.273,8.20966912 107.273,7.719 C107.273,6.69166153 107.824994,6.178 108.929,6.178 C109.496336,6.178 109.994665,6.47699701 110.424,7.075 C110.730668,7.48900207 110.952999,7.97199724 111.091,8.524 C111.305668,8.60066705 111.573998,8.639 111.896,8.639 C112.340669,8.639 112.85433,8.49333479 113.437,8.202 L114.035,7.903 C114.219001,7.81099954 114.379999,7.765 114.518,7.765 C114.962669,7.765 115.407331,8.41666015 115.852,9.72 C115.713999,10.318003 115.564501,10.8929972 115.4035,11.445 C115.242499,11.9970028 115.054668,12.6639961 114.84,13.446 C114.625332,14.2280039 114.514167,14.7531653 114.5065,15.0215 C114.498833,15.2898347 114.579332,15.424 114.748,15.424 C114.978001,15.424 115.261665,15.2783348 115.599,14.987 C115.936335,14.6956652 116.273665,14.3775017 116.611,14.0325 C116.948335,13.6874983 117.258832,13.3693348 117.5425,13.078 C117.826168,12.7866652 118.021666,12.641 118.129,12.641 C118.343668,12.641 118.451,12.9016641 118.451,13.423 C118.451,14.4810053 117.987171,15.5236615 117.0595,16.551 C116.131829,17.5783385 115.070006,18.0843334 113.874,18.069 C113.168663,18.069 112.639668,17.7853362 112.287,17.218 C111.934332,16.6506638 111.750333,15.9606707 111.735,15.148 C111.735,13.5379919 112.09533,12.0123405 112.816,10.571 C112.478665,10.7090007 112.099169,10.778 111.6775,10.778 C111.255831,10.778 110.953001,10.7626668 110.769,10.732 C110.630999,11.3146696 110.493001,11.9011637 110.355,12.4915 C110.216999,13.0818363 110.148,13.6299975 110.148,14.136 Z M123.66,15.493 C124.856006,15.493 126.013661,15.0176714 127.133,14.067 C127.547002,13.7143316 127.884332,13.3885015 128.145,13.0895 C128.405668,12.7904985 128.604999,12.641 128.743,12.641 C128.957668,12.641 129.065,12.8556645 129.065,13.285 C129.065,13.7143355 128.950001,14.1934974 128.72,14.7225 C128.489999,15.2515026 128.106669,15.7689975 127.57,16.275 C126.251327,17.5170062 124.442011,18.138 122.142,18.138 C120.317324,18.138 119.075337,17.4786733 118.416,16.16 C118.185999,15.6999977 118.071,15.040671 118.071,14.182 C118.071,13.323329 118.239665,12.4301713 118.577,11.5025 C118.914335,10.5748287 119.362831,9.77367004 119.9225,9.099 C120.482169,8.42432996 121.129996,7.89916854 121.866,7.5235 C122.602004,7.14783146 123.387829,6.96 124.2235,6.96 C125.059171,6.96 125.703164,7.16699793 126.1555,7.581 C126.607836,7.99500207 126.834,8.53166337 126.834,9.191 C126.834,9.85033663 126.669168,10.3908312 126.3395,10.8125 C126.009832,11.2341688 125.584336,11.5868319 125.063,11.8705 C124.541664,12.1541681 123.962837,12.4071656 123.3265,12.6295 C122.690163,12.8518344 122.065336,13.1009986 121.452,13.377 L121.452,13.952 C121.467333,14.5040028 121.697331,14.8949989 122.142,15.125 C122.586669,15.3550011 123.092664,15.4776666 123.66,15.493 Z M123.269,9.007 C122.471663,9.007 121.919668,9.93465739 121.613,11.79 C121.935002,11.5753323 122.237832,11.3836675 122.5215,11.215 C122.805168,11.0463325 123.054332,10.8853341 123.269,10.732 C123.729002,10.394665 123.966667,10.0113355 123.982,9.582 C123.982,9.19866475 123.744336,9.007 123.269,9.007 Z" id="Cheer-Share" fill="#209CEE"></path>
    </g>
</svg>
